<svg xmlns="http://www.w3.org/2000/svg" version="1.1" xmlns:xlink="http://www.w3.org/1999/xlink" xmlns:svgjs="http://svgjs.dev/svgjs" width="1440" height="560" preserveAspectRatio="none" viewBox="0 0 1440 560">
    <g mask="url(&quot;#SvgjsMask1008&quot;)" fill="none">
        <rect width="1440" height="560" x="0" y="0" fill="rgba(255, 255, 255, 1)"></rect>
        <path d="M-52.05 347.28L-52.05 347.28" stroke="rgba(254, 182, 46, 1)" stroke-width="1.5"></path>
        <path d="M-52.05 347.28L65.47 355.09" stroke="rgba(254, 182, 46, 1)" stroke-width="1.5"></path>
        <path d="M-52.05 347.28L-69.94 525.39" stroke="rgba(254, 182, 46, 1)" stroke-width="1.5"></path>
        <path d="M-69.94 525.39L-69.94 525.39" stroke="rgba(254, 182, 46, 1)" stroke-width="1.5"></path>
        <path d="M-69.94 525.39L43.91 514.8" stroke="rgba(254, 182, 46, 1)" stroke-width="1.5"></path>
        <path d="M-69.94 525.39L-95.22 689.45" stroke="rgba(254, 182, 46, 1)" stroke-width="1.5"></path>
        <path d="M-69.94 525.39L82.49 647.03" stroke="rgba(254, 182, 46, 1)" stroke-width="1.5"></path>
        <path d="M-69.94 525.39L65.47 355.09" stroke="rgba(254, 182, 46, 1)" stroke-width="1.5"></path>
        <path d="M-95.22 689.45L-95.22 689.45" stroke="rgba(254, 182, 46, 1)" stroke-width="1.5"></path>
        <path d="M-95.22 689.45L82.49 647.03" stroke="rgba(254, 182, 46, 1)" stroke-width="1.5"></path>
        <path d="M-95.22 689.45L43.91 514.8" stroke="rgba(254, 182, 46, 1)" stroke-width="1.5"></path>
        <path d="M-95.22 689.45L227.7 671.73" stroke="rgba(254, 182, 46, 1)" stroke-width="1.5"></path>
        <path d="M-95.22 689.45L-52.05 347.28" stroke="rgba(254, 182, 46, 1)" stroke-width="1.5"></path>
        <path d="M-95.22 689.45L204.45 511.23" stroke="rgba(254, 182, 46, 1)" stroke-width="1.5"></path>
        <path d="M65.47 355.09L65.47 355.09" stroke="rgba(254, 182, 46, 1)" stroke-width="1.5"></path>
        <path d="M65.47 355.09L43.91 514.8" stroke="rgba(254, 182, 46, 1)" stroke-width="1.5"></path>
        <path d="M65.47 355.09L235.41 393.26" stroke="rgba(254, 182, 46, 1)" stroke-width="1.5"></path>
        <path d="M65.47 355.09L204.45 511.23" stroke="rgba(254, 182, 46, 1)" stroke-width="1.5"></path>
        <path d="M65.47 355.09L82.49 647.03" stroke="rgba(254, 182, 46, 1)" stroke-width="1.5"></path>
        <path d="M43.91 514.8L43.91 514.8" stroke="rgba(254, 182, 46, 1)" stroke-width="1.5"></path>
        <path d="M43.91 514.8L82.49 647.03" stroke="rgba(254, 182, 46, 1)" stroke-width="1.5"></path>
        <path d="M43.91 514.8L204.45 511.23" stroke="rgba(254, 182, 46, 1)" stroke-width="1.5"></path>
        <path d="M82.49 647.03L82.49 647.03" stroke="rgba(254, 182, 46, 1)" stroke-width="1.5"></path>
        <path d="M82.49 647.03L227.7 671.73" stroke="rgba(254, 182, 46, 1)" stroke-width="1.5"></path>
        <path d="M82.49 647.03L204.45 511.23" stroke="rgba(254, 182, 46, 1)" stroke-width="1.5"></path>
        <path d="M235.41 393.26L235.41 393.26" stroke="rgba(254, 182, 46, 1)" stroke-width="1.5"></path>
        <path d="M235.41 393.26L204.45 511.23" stroke="rgba(254, 182, 46, 1)" stroke-width="1.5"></path>
        <path d="M235.41 393.26L399.63 351.45" stroke="rgba(254, 182, 46, 1)" stroke-width="1.5"></path>
        <path d="M235.41 393.26L379.12 531.69" stroke="rgba(254, 182, 46, 1)" stroke-width="1.5"></path>
        <path d="M235.41 393.26L43.91 514.8" stroke="rgba(254, 182, 46, 1)" stroke-width="1.5"></path>
        <path d="M204.45 511.23L204.45 511.23" stroke="rgba(254, 182, 46, 1)" stroke-width="1.5"></path>
        <path d="M204.45 511.23L227.7 671.73" stroke="rgba(254, 182, 46, 1)" stroke-width="1.5"></path>
        <path d="M204.45 511.23L379.12 531.69" stroke="rgba(254, 182, 46, 1)" stroke-width="1.5"></path>
        <path d="M227.7 671.73L227.7 671.73" stroke="rgba(254, 182, 46, 1)" stroke-width="1.5"></path>
        <path d="M227.7 671.73L404.23 686.03" stroke="rgba(254, 182, 46, 1)" stroke-width="1.5"></path>
        <path d="M399.63 351.45L399.63 351.45" stroke="rgba(254, 182, 46, 1)" stroke-width="1.5"></path>
        <path d="M399.63 351.45L489.99 489.96" stroke="rgba(254, 182, 46, 1)" stroke-width="1.5"></path>
        <path d="M379.12 531.69L379.12 531.69" stroke="rgba(254, 182, 46, 1)" stroke-width="1.5"></path>
        <path d="M379.12 531.69L489.99 489.96" stroke="rgba(254, 182, 46, 1)" stroke-width="1.5"></path>
        <path d="M379.12 531.69L404.23 686.03" stroke="rgba(254, 182, 46, 1)" stroke-width="1.5"></path>
        <path d="M379.12 531.69L399.63 351.45" stroke="rgba(254, 182, 46, 1)" stroke-width="1.5"></path>
        <path d="M404.23 686.03L404.23 686.03" stroke="rgba(254, 182, 46, 1)" stroke-width="1.5"></path>
        <path d="M404.23 686.03L541.45 651.52" stroke="rgba(254, 182, 46, 1)" stroke-width="1.5"></path>
        <path d="M404.23 686.03L489.99 489.96" stroke="rgba(254, 182, 46, 1)" stroke-width="1.5"></path>
        <path d="M489.99 489.96L489.99 489.96" stroke="rgba(254, 182, 46, 1)" stroke-width="1.5"></path>
        <path d="M489.99 489.96L638.25 538.04" stroke="rgba(254, 182, 46, 1)" stroke-width="1.5"></path>
        <path d="M541.45 651.52L541.45 651.52" stroke="rgba(254, 182, 46, 1)" stroke-width="1.5"></path>
        <path d="M541.45 651.52L638.25 538.04" stroke="rgba(254, 182, 46, 1)" stroke-width="1.5"></path>
        <path d="M541.45 651.52L696.75 645.39" stroke="rgba(254, 182, 46, 1)" stroke-width="1.5"></path>
        <path d="M662.67 255.3L662.67 255.3" stroke="rgba(254, 182, 46, 1)" stroke-width="1.5"></path>
        <path d="M662.67 255.3L673.58 376.87" stroke="rgba(254, 182, 46, 1)" stroke-width="1.5"></path>
        <path d="M673.58 376.87L673.58 376.87" stroke="rgba(254, 182, 46, 1)" stroke-width="1.5"></path>
        <path d="M673.58 376.87L793.38 352.68" stroke="rgba(254, 182, 46, 1)" stroke-width="1.5"></path>
        <path d="M673.58 376.87L638.25 538.04" stroke="rgba(254, 182, 46, 1)" stroke-width="1.5"></path>
        <path d="M673.58 376.87L798.89 239.46" stroke="rgba(254, 182, 46, 1)" stroke-width="1.5"></path>
        <path d="M673.58 376.87L489.99 489.96" stroke="rgba(254, 182, 46, 1)" stroke-width="1.5"></path>
        <path d="M673.58 376.87L857.28 535.69" stroke="rgba(254, 182, 46, 1)" stroke-width="1.5"></path>
        <path d="M638.25 538.04L638.25 538.04" stroke="rgba(254, 182, 46, 1)" stroke-width="1.5"></path>
        <path d="M638.25 538.04L696.75 645.39" stroke="rgba(254, 182, 46, 1)" stroke-width="1.5"></path>
        <path d="M696.75 645.39L696.75 645.39" stroke="rgba(254, 182, 46, 1)" stroke-width="1.5"></path>
        <path d="M696.75 645.39L799.61 692.28" stroke="rgba(254, 182, 46, 1)" stroke-width="1.5"></path>
        <path d="M854.13 73.38L854.13 73.38" stroke="rgba(254, 182, 46, 1)" stroke-width="1.5"></path>
        <path d="M854.13 73.38L974.51 95.56" stroke="rgba(254, 182, 46, 1)" stroke-width="1.5"></path>
        <path d="M854.13 73.38L798.89 239.46" stroke="rgba(254, 182, 46, 1)" stroke-width="1.5"></path>
        <path d="M854.13 73.38L950.91 -85.4" stroke="rgba(254, 182, 46, 1)" stroke-width="1.5"></path>
        <path d="M798.89 239.46L798.89 239.46" stroke="rgba(254, 182, 46, 1)" stroke-width="1.5"></path>
        <path d="M798.89 239.46L793.38 352.68" stroke="rgba(254, 182, 46, 1)" stroke-width="1.5"></path>
        <path d="M798.89 239.46L662.67 255.3" stroke="rgba(254, 182, 46, 1)" stroke-width="1.5"></path>
        <path d="M793.38 352.68L793.38 352.68" stroke="rgba(254, 182, 46, 1)" stroke-width="1.5"></path>
        <path d="M857.28 535.69L857.28 535.69" stroke="rgba(254, 182, 46, 1)" stroke-width="1.5"></path>
        <path d="M857.28 535.69L946.6 553.97" stroke="rgba(254, 182, 46, 1)" stroke-width="1.5"></path>
        <path d="M857.28 535.69L799.61 692.28" stroke="rgba(254, 182, 46, 1)" stroke-width="1.5"></path>
        <path d="M857.28 535.69L793.38 352.68" stroke="rgba(254, 182, 46, 1)" stroke-width="1.5"></path>
        <path d="M857.28 535.69L696.75 645.39" stroke="rgba(254, 182, 46, 1)" stroke-width="1.5"></path>
        <path d="M857.28 535.69L978.79 699.35" stroke="rgba(254, 182, 46, 1)" stroke-width="1.5"></path>
        <path d="M857.28 535.69L638.25 538.04" stroke="rgba(254, 182, 46, 1)" stroke-width="1.5"></path>
        <path d="M799.61 692.28L799.61 692.28" stroke="rgba(254, 182, 46, 1)" stroke-width="1.5"></path>
        <path d="M799.61 692.28L978.79 699.35" stroke="rgba(254, 182, 46, 1)" stroke-width="1.5"></path>
        <path d="M950.91 -85.4L950.91 -85.4" stroke="rgba(254, 182, 46, 1)" stroke-width="1.5"></path>
        <path d="M950.91 -85.4L974.51 95.56" stroke="rgba(254, 182, 46, 1)" stroke-width="1.5"></path>
        <path d="M950.91 -85.4L1147.16 -85.34" stroke="rgba(254, 182, 46, 1)" stroke-width="1.5"></path>
        <path d="M950.91 -85.4L1120.89 46.14" stroke="rgba(254, 182, 46, 1)" stroke-width="1.5"></path>
        <path d="M950.91 -85.4L1004.94 189.18" stroke="rgba(254, 182, 46, 1)" stroke-width="1.5"></path>
        <path d="M950.91 -85.4L1100.83 223" stroke="rgba(254, 182, 46, 1)" stroke-width="1.5"></path>
        <path d="M974.51 95.56L974.51 95.56" stroke="rgba(254, 182, 46, 1)" stroke-width="1.5"></path>
        <path d="M974.51 95.56L1004.94 189.18" stroke="rgba(254, 182, 46, 1)" stroke-width="1.5"></path>
        <path d="M974.51 95.56L1120.89 46.14" stroke="rgba(254, 182, 46, 1)" stroke-width="1.5"></path>
        <path d="M974.51 95.56L1100.83 223" stroke="rgba(254, 182, 46, 1)" stroke-width="1.5"></path>
        <path d="M974.51 95.56L798.89 239.46" stroke="rgba(254, 182, 46, 1)" stroke-width="1.5"></path>
        <path d="M1004.94 189.18L1004.94 189.18" stroke="rgba(254, 182, 46, 1)" stroke-width="1.5"></path>
        <path d="M1004.94 189.18L1100.83 223" stroke="rgba(254, 182, 46, 1)" stroke-width="1.5"></path>
        <path d="M1004.94 189.18L1120.89 46.14" stroke="rgba(254, 182, 46, 1)" stroke-width="1.5"></path>
        <path d="M1004.94 189.18L854.13 73.38" stroke="rgba(254, 182, 46, 1)" stroke-width="1.5"></path>
        <path d="M1004.94 189.18L798.89 239.46" stroke="rgba(254, 182, 46, 1)" stroke-width="1.5"></path>
        <path d="M1004.94 189.18L1129.97 383.65" stroke="rgba(254, 182, 46, 1)" stroke-width="1.5"></path>
        <path d="M946.6 553.97L946.6 553.97" stroke="rgba(254, 182, 46, 1)" stroke-width="1.5"></path>
        <path d="M946.6 553.97L978.79 699.35" stroke="rgba(254, 182, 46, 1)" stroke-width="1.5"></path>
        <path d="M946.6 553.97L799.61 692.28" stroke="rgba(254, 182, 46, 1)" stroke-width="1.5"></path>
        <path d="M946.6 553.97L1156.74 639.61" stroke="rgba(254, 182, 46, 1)" stroke-width="1.5"></path>
        <path d="M946.6 553.97L1129.97 383.65" stroke="rgba(254, 182, 46, 1)" stroke-width="1.5"></path>
        <path d="M978.79 699.35L978.79 699.35" stroke="rgba(254, 182, 46, 1)" stroke-width="1.5"></path>
        <path d="M1147.16 -85.34L1147.16 -85.34" stroke="rgba(254, 182, 46, 1)" stroke-width="1.5"></path>
        <path d="M1147.16 -85.34L1120.89 46.14" stroke="rgba(254, 182, 46, 1)" stroke-width="1.5"></path>
        <path d="M1120.89 46.14L1120.89 46.14" stroke="rgba(254, 182, 46, 1)" stroke-width="1.5"></path>
        <path d="M1120.89 46.14L1100.83 223" stroke="rgba(254, 182, 46, 1)" stroke-width="1.5"></path>
        <path d="M1120.89 46.14L1298.7 71.63" stroke="rgba(254, 182, 46, 1)" stroke-width="1.5"></path>
        <path d="M1100.83 223L1100.83 223" stroke="rgba(254, 182, 46, 1)" stroke-width="1.5"></path>
        <path d="M1100.83 223L1258.16 238.56" stroke="rgba(254, 182, 46, 1)" stroke-width="1.5"></path>
        <path d="M1100.83 223L1129.97 383.65" stroke="rgba(254, 182, 46, 1)" stroke-width="1.5"></path>
        <path d="M1129.97 383.65L1129.97 383.65" stroke="rgba(254, 182, 46, 1)" stroke-width="1.5"></path>
        <path d="M1129.97 383.65L1310.61 375.6" stroke="rgba(254, 182, 46, 1)" stroke-width="1.5"></path>
        <path d="M1129.97 383.65L1258.16 238.56" stroke="rgba(254, 182, 46, 1)" stroke-width="1.5"></path>
        <path d="M1156.74 639.61L1156.74 639.61" stroke="rgba(254, 182, 46, 1)" stroke-width="1.5"></path>
        <path d="M1156.74 639.61L1265.49 706.59" stroke="rgba(254, 182, 46, 1)" stroke-width="1.5"></path>
        <path d="M1156.74 639.61L978.79 699.35" stroke="rgba(254, 182, 46, 1)" stroke-width="1.5"></path>
        <path d="M1156.74 639.61L1406.8 650.51" stroke="rgba(254, 182, 46, 1)" stroke-width="1.5"></path>
        <path d="M1298.7 71.63L1298.7 71.63" stroke="rgba(254, 182, 46, 1)" stroke-width="1.5"></path>
        <path d="M1298.7 71.63L1397.26 192.54" stroke="rgba(254, 182, 46, 1)" stroke-width="1.5"></path>
        <path d="M1258.16 238.56L1258.16 238.56" stroke="rgba(254, 182, 46, 1)" stroke-width="1.5"></path>
        <path d="M1258.16 238.56L1397.26 192.54" stroke="rgba(254, 182, 46, 1)" stroke-width="1.5"></path>
        <path d="M1310.61 375.6L1310.61 375.6" stroke="rgba(254, 182, 46, 1)" stroke-width="1.5"></path>
        <path d="M1310.61 375.6L1414.45 354.1" stroke="rgba(254, 182, 46, 1)" stroke-width="1.5"></path>
        <path d="M1310.61 375.6L1258.16 238.56" stroke="rgba(254, 182, 46, 1)" stroke-width="1.5"></path>
        <path d="M1265.49 706.59L1265.49 706.59" stroke="rgba(254, 182, 46, 1)" stroke-width="1.5"></path>
        <path d="M1265.49 706.59L1406.8 650.51" stroke="rgba(254, 182, 46, 1)" stroke-width="1.5"></path>
        <path d="M1265.49 706.59L1454.02 552.1" stroke="rgba(254, 182, 46, 1)" stroke-width="1.5"></path>
        <path d="M1265.49 706.59L978.79 699.35" stroke="rgba(254, 182, 46, 1)" stroke-width="1.5"></path>
        <path d="M1453.81 -62.69L1453.81 -62.69" stroke="rgba(254, 182, 46, 1)" stroke-width="1.5"></path>
        <path d="M1453.81 -62.69L1553.56 -69.62" stroke="rgba(254, 182, 46, 1)" stroke-width="1.5"></path>
        <path d="M1453.81 -62.69L1458.96 85.15" stroke="rgba(254, 182, 46, 1)" stroke-width="1.5"></path>
        <path d="M1453.81 -62.69L1568.79 73.9" stroke="rgba(254, 182, 46, 1)" stroke-width="1.5"></path>
        <path d="M1453.81 -62.69L1298.7 71.63" stroke="rgba(254, 182, 46, 1)" stroke-width="1.5"></path>
        <path d="M1453.81 -62.69L1397.26 192.54" stroke="rgba(254, 182, 46, 1)" stroke-width="1.5"></path>
        <path d="M1458.96 85.15L1458.96 85.15" stroke="rgba(254, 182, 46, 1)" stroke-width="1.5"></path>
        <path d="M1458.96 85.15L1568.79 73.9" stroke="rgba(254, 182, 46, 1)" stroke-width="1.5"></path>
        <path d="M1458.96 85.15L1397.26 192.54" stroke="rgba(254, 182, 46, 1)" stroke-width="1.5"></path>
        <path d="M1458.96 85.15L1298.7 71.63" stroke="rgba(254, 182, 46, 1)" stroke-width="1.5"></path>
        <path d="M1458.96 85.15L1553.56 -69.62" stroke="rgba(254, 182, 46, 1)" stroke-width="1.5"></path>
        <path d="M1458.96 85.15L1258.16 238.56" stroke="rgba(254, 182, 46, 1)" stroke-width="1.5"></path>
        <path d="M1397.26 192.54L1397.26 192.54" stroke="rgba(254, 182, 46, 1)" stroke-width="1.5"></path>
        <path d="M1397.26 192.54L1414.45 354.1" stroke="rgba(254, 182, 46, 1)" stroke-width="1.5"></path>
        <path d="M1414.45 354.1L1414.45 354.1" stroke="rgba(254, 182, 46, 1)" stroke-width="1.5"></path>
        <path d="M1414.45 354.1L1568.92 394.77" stroke="rgba(254, 182, 46, 1)" stroke-width="1.5"></path>
        <path d="M1454.02 552.1L1454.02 552.1" stroke="rgba(254, 182, 46, 1)" stroke-width="1.5"></path>
        <path d="M1454.02 552.1L1553.49 523.91" stroke="rgba(254, 182, 46, 1)" stroke-width="1.5"></path>
        <path d="M1454.02 552.1L1406.8 650.51" stroke="rgba(254, 182, 46, 1)" stroke-width="1.5"></path>
        <path d="M1454.02 552.1L1568.92 394.77" stroke="rgba(254, 182, 46, 1)" stroke-width="1.5"></path>
        <path d="M1454.02 552.1L1414.45 354.1" stroke="rgba(254, 182, 46, 1)" stroke-width="1.5"></path>
        <path d="M1454.02 552.1L1604.33 693.79" stroke="rgba(254, 182, 46, 1)" stroke-width="1.5"></path>
        <path d="M1406.8 650.51L1406.8 650.51" stroke="rgba(254, 182, 46, 1)" stroke-width="1.5"></path>
        <path d="M1553.56 -69.62L1553.56 -69.62" stroke="rgba(254, 182, 46, 1)" stroke-width="1.5"></path>
        <path d="M1553.56 -69.62L1568.79 73.9" stroke="rgba(254, 182, 46, 1)" stroke-width="1.5"></path>
        <path d="M1568.79 73.9L1568.79 73.9" stroke="rgba(254, 182, 46, 1)" stroke-width="1.5"></path>
        <path d="M1568.92 394.77L1568.92 394.77" stroke="rgba(254, 182, 46, 1)" stroke-width="1.5"></path>
        <path d="M1568.92 394.77L1553.49 523.91" stroke="rgba(254, 182, 46, 1)" stroke-width="1.5"></path>
        <path d="M1553.49 523.91L1553.49 523.91" stroke="rgba(254, 182, 46, 1)" stroke-width="1.5"></path>
        <path d="M1553.49 523.91L1604.33 693.79" stroke="rgba(254, 182, 46, 1)" stroke-width="1.5"></path>
        <path d="M1553.49 523.91L1406.8 650.51" stroke="rgba(254, 182, 46, 1)" stroke-width="1.5"></path>
        <path d="M1553.49 523.91L1414.45 354.1" stroke="rgba(254, 182, 46, 1)" stroke-width="1.5"></path>
        <path d="M1604.33 693.79L1604.33 693.79" stroke="rgba(254, 182, 46, 1)" stroke-width="1.5"></path>
        <circle r="5" cx="-52.05" cy="347.28" fill="rgba(254, 182, 46, 1)"></circle>
        <circle r="5" cx="-69.94" cy="525.39" fill="rgba(254, 182, 46, 1)"></circle>
        <circle r="5" cx="-95.22" cy="689.45" fill="rgba(254, 182, 46, 1)"></circle>
        <circle r="5" cx="65.47" cy="355.09" fill="rgba(254, 182, 46, 1)"></circle>
        <circle r="5" cx="43.91" cy="514.8" fill="rgba(254, 182, 46, 1)"></circle>
        <circle r="5" cx="82.49" cy="647.03" fill="rgba(254, 182, 46, 1)"></circle>
        <circle r="5" cx="235.41" cy="393.26" fill="rgba(254, 182, 46, 1)"></circle>
        <circle r="5" cx="204.45" cy="511.23" fill="rgba(254, 182, 46, 1)"></circle>
        <circle r="5" cx="227.7" cy="671.73" fill="rgba(254, 182, 46, 1)"></circle>
        <circle r="5" cx="399.63" cy="351.45" fill="rgba(254, 182, 46, 1)"></circle>
        <circle r="5" cx="379.12" cy="531.69" fill="rgba(254, 182, 46, 1)"></circle>
        <circle r="5" cx="404.23" cy="686.03" fill="rgba(254, 182, 46, 1)"></circle>
        <circle r="5" cx="489.99" cy="489.96" fill="rgba(254, 182, 46, 1)"></circle>
        <circle r="5" cx="541.45" cy="651.52" fill="rgba(254, 182, 46, 1)"></circle>
        <circle r="5" cx="662.67" cy="255.3" fill="rgba(254, 182, 46, 1)"></circle>
        <circle r="5" cx="673.58" cy="376.87" fill="rgba(254, 182, 46, 1)"></circle>
        <circle r="5" cx="638.25" cy="538.04" fill="rgba(254, 182, 46, 1)"></circle>
        <circle r="5" cx="696.75" cy="645.39" fill="rgba(254, 182, 46, 1)"></circle>
        <circle r="5" cx="854.13" cy="73.38" fill="rgba(254, 182, 46, 1)"></circle>
        <circle r="5" cx="798.89" cy="239.46" fill="rgba(254, 182, 46, 1)"></circle>
        <circle r="5" cx="793.38" cy="352.68" fill="rgba(254, 182, 46, 1)"></circle>
        <circle r="5" cx="857.28" cy="535.69" fill="rgba(254, 182, 46, 1)"></circle>
        <circle r="5" cx="799.61" cy="692.28" fill="rgba(254, 182, 46, 1)"></circle>
        <circle r="5" cx="950.91" cy="-85.4" fill="rgba(254, 182, 46, 1)"></circle>
        <circle r="5" cx="974.51" cy="95.56" fill="rgba(254, 182, 46, 1)"></circle>
        <circle r="5" cx="1004.94" cy="189.18" fill="rgba(254, 182, 46, 1)"></circle>
        <circle r="5" cx="946.6" cy="553.97" fill="rgba(254, 182, 46, 1)"></circle>
        <circle r="5" cx="978.79" cy="699.35" fill="rgba(254, 182, 46, 1)"></circle>
        <circle r="5" cx="1147.16" cy="-85.34" fill="rgba(254, 182, 46, 1)"></circle>
        <circle r="5" cx="1120.89" cy="46.14" fill="rgba(254, 182, 46, 1)"></circle>
        <circle r="5" cx="1100.83" cy="223" fill="rgba(254, 182, 46, 1)"></circle>
        <circle r="5" cx="1129.97" cy="383.65" fill="rgba(254, 182, 46, 1)"></circle>
        <circle r="5" cx="1156.74" cy="639.61" fill="rgba(254, 182, 46, 1)"></circle>
        <circle r="5" cx="1298.7" cy="71.63" fill="rgba(254, 182, 46, 1)"></circle>
        <circle r="5" cx="1258.16" cy="238.56" fill="rgba(254, 182, 46, 1)"></circle>
        <circle r="5" cx="1310.61" cy="375.6" fill="rgba(254, 182, 46, 1)"></circle>
        <circle r="5" cx="1265.49" cy="706.59" fill="rgba(254, 182, 46, 1)"></circle>
        <circle r="5" cx="1453.81" cy="-62.69" fill="rgba(254, 182, 46, 1)"></circle>
        <circle r="5" cx="1458.96" cy="85.15" fill="rgba(254, 182, 46, 1)"></circle>
        <circle r="5" cx="1397.26" cy="192.54" fill="rgba(254, 182, 46, 1)"></circle>
        <circle r="5" cx="1414.45" cy="354.1" fill="rgba(254, 182, 46, 1)"></circle>
        <circle r="5" cx="1454.02" cy="552.1" fill="rgba(254, 182, 46, 1)"></circle>
        <circle r="5" cx="1406.8" cy="650.51" fill="rgba(254, 182, 46, 1)"></circle>
        <circle r="5" cx="1553.56" cy="-69.62" fill="rgba(254, 182, 46, 1)"></circle>
        <circle r="5" cx="1568.79" cy="73.9" fill="rgba(254, 182, 46, 1)"></circle>
        <circle r="5" cx="1568.92" cy="394.77" fill="rgba(254, 182, 46, 1)"></circle>
        <circle r="5" cx="1553.49" cy="523.91" fill="rgba(254, 182, 46, 1)"></circle>
        <circle r="5" cx="1604.33" cy="693.79" fill="rgba(254, 182, 46, 1)"></circle>
        <path d="M-88.68 683.6L-88.68 683.6" stroke="hsl(39.19999999999999, 99%, 76.5%)" stroke-width="1.5"></path>
        <path d="M-88.68 683.6L-46.61 549.24" stroke="hsl(39.19999999999999, 99%, 76.5%)" stroke-width="1.5"></path>
        <path d="M-88.68 683.6L97.53 676.17" stroke="hsl(39.19999999999999, 99%, 76.5%)" stroke-width="1.5"></path>
        <path d="M-88.68 683.6L74.31 498.26" stroke="hsl(39.19999999999999, 99%, 76.5%)" stroke-width="1.5"></path>
        <path d="M-88.68 683.6L249.64 648.05" stroke="hsl(39.19999999999999, 99%, 76.5%)" stroke-width="1.5"></path>
        <path d="M-88.68 683.6L246.34 510.67" stroke="hsl(39.19999999999999, 99%, 76.5%)" stroke-width="1.5"></path>
        <path d="M-88.68 683.6L392.27 708.2" stroke="hsl(39.19999999999999, 99%, 76.5%)" stroke-width="1.5"></path>
        <path d="M97.53 676.17L97.53 676.17" stroke="hsl(39.19999999999999, 99%, 76.5%)" stroke-width="1.5"></path>
        <path d="M97.53 676.17L249.64 648.05" stroke="hsl(39.19999999999999, 99%, 76.5%)" stroke-width="1.5"></path>
        <path d="M97.53 676.17L74.31 498.26" stroke="hsl(39.19999999999999, 99%, 76.5%)" stroke-width="1.5"></path>
        <path d="M246.34 510.67L246.34 510.67" stroke="hsl(39.19999999999999, 99%, 76.5%)" stroke-width="1.5"></path>
        <path d="M246.34 510.67L249.64 648.05" stroke="hsl(39.19999999999999, 99%, 76.5%)" stroke-width="1.5"></path>
        <path d="M246.34 510.67L383.13 553.32" stroke="hsl(39.19999999999999, 99%, 76.5%)" stroke-width="1.5"></path>
        <path d="M246.34 510.67L74.31 498.26" stroke="hsl(39.19999999999999, 99%, 76.5%)" stroke-width="1.5"></path>
        <path d="M659.48 404.33L659.48 404.33" stroke="hsl(39.19999999999999, 99%, 76.5%)" stroke-width="1.5"></path>
        <path d="M659.48 404.33L811.04 407.95" stroke="hsl(39.19999999999999, 99%, 76.5%)" stroke-width="1.5"></path>
        <path d="M659.48 404.33L524.91 490.56" stroke="hsl(39.19999999999999, 99%, 76.5%)" stroke-width="1.5"></path>
        <path d="M659.48 404.33L670.73 669.89" stroke="hsl(39.19999999999999, 99%, 76.5%)" stroke-width="1.5"></path>
        <path d="M659.48 404.33L789.41 650.39" stroke="hsl(39.19999999999999, 99%, 76.5%)" stroke-width="1.5"></path>
        <path d="M659.48 404.33L549.06 678.48" stroke="hsl(39.19999999999999, 99%, 76.5%)" stroke-width="1.5"></path>
        <path d="M659.48 404.33L383.13 553.32" stroke="hsl(39.19999999999999, 99%, 76.5%)" stroke-width="1.5"></path>
        <path d="M811.04 407.95L811.04 407.95" stroke="hsl(39.19999999999999, 99%, 76.5%)" stroke-width="1.5"></path>
        <path d="M811.04 407.95L1003.29 412.36" stroke="hsl(39.19999999999999, 99%, 76.5%)" stroke-width="1.5"></path>
        <path d="M811.04 407.95L1011.07 510.56" stroke="hsl(39.19999999999999, 99%, 76.5%)" stroke-width="1.5"></path>
        <path d="M811.04 407.95L789.41 650.39" stroke="hsl(39.19999999999999, 99%, 76.5%)" stroke-width="1.5"></path>
        <path d="M811.04 407.95L1093.12 391.22" stroke="hsl(39.19999999999999, 99%, 76.5%)" stroke-width="1.5"></path>
        <path d="M811.04 407.95L670.73 669.89" stroke="hsl(39.19999999999999, 99%, 76.5%)" stroke-width="1.5"></path>
        <path d="M1098.78 561.9L1098.78 561.9" stroke="hsl(39.19999999999999, 99%, 76.5%)" stroke-width="1.5"></path>
        <path d="M1098.78 561.9L1011.07 510.56" stroke="hsl(39.19999999999999, 99%, 76.5%)" stroke-width="1.5"></path>
        <path d="M1098.78 561.9L1141.77 698.34" stroke="hsl(39.19999999999999, 99%, 76.5%)" stroke-width="1.5"></path>
        <path d="M1098.78 561.9L1093.12 391.22" stroke="hsl(39.19999999999999, 99%, 76.5%)" stroke-width="1.5"></path>
        <path d="M1438.16 -42.39L1438.16 -42.39" stroke="hsl(39.19999999999999, 99%, 76.5%)" stroke-width="1.5"></path>
        <path d="M1438.16 -42.39L1428.34 56.35" stroke="hsl(39.19999999999999, 99%, 76.5%)" stroke-width="1.5"></path>
        <path d="M1438.16 -42.39L1594.68 -48.96" stroke="hsl(39.19999999999999, 99%, 76.5%)" stroke-width="1.5"></path>
        <path d="M1438.16 -42.39L1582.11 39.39" stroke="hsl(39.19999999999999, 99%, 76.5%)" stroke-width="1.5"></path>
        <path d="M1438.16 -42.39L1303.32 71.01" stroke="hsl(39.19999999999999, 99%, 76.5%)" stroke-width="1.5"></path>
        <path d="M1594.68 -48.96L1594.68 -48.96" stroke="hsl(39.19999999999999, 99%, 76.5%)" stroke-width="1.5"></path>
        <path d="M1594.68 -48.96L1582.11 39.39" stroke="hsl(39.19999999999999, 99%, 76.5%)" stroke-width="1.5"></path>
        <path d="M1594.68 -48.96L1428.34 56.35" stroke="hsl(39.19999999999999, 99%, 76.5%)" stroke-width="1.5"></path>
        <path d="M1594.68 -48.96L1549.15 224.72" stroke="hsl(39.19999999999999, 99%, 76.5%)" stroke-width="1.5"></path>
        <path d="M1549.15 224.72L1549.15 224.72" stroke="hsl(39.19999999999999, 99%, 76.5%)" stroke-width="1.5"></path>
        <path d="M1549.15 224.72L1595.84 345.22" stroke="hsl(39.19999999999999, 99%, 76.5%)" stroke-width="1.5"></path>
        <path d="M1549.15 224.72L1401.59 232.26" stroke="hsl(39.19999999999999, 99%, 76.5%)" stroke-width="1.5"></path>
        <path d="M1570.31 513.92L1570.31 513.92" stroke="hsl(39.19999999999999, 99%, 76.5%)" stroke-width="1.5"></path>
        <path d="M1570.31 513.92L1550.83 680.07" stroke="hsl(39.19999999999999, 99%, 76.5%)" stroke-width="1.5"></path>
        <path d="M1570.31 513.92L1595.84 345.22" stroke="hsl(39.19999999999999, 99%, 76.5%)" stroke-width="1.5"></path>
        <path d="M1570.31 513.92L1453.5 638.47" stroke="hsl(39.19999999999999, 99%, 76.5%)" stroke-width="1.5"></path>
        <path d="M1550.83 680.07L1550.83 680.07" stroke="hsl(39.19999999999999, 99%, 76.5%)" stroke-width="1.5"></path>
        <path d="M1550.83 680.07L1453.5 638.47" stroke="hsl(39.19999999999999, 99%, 76.5%)" stroke-width="1.5"></path>
        <path d="M1550.83 680.07L1397.19 532.93" stroke="hsl(39.19999999999999, 99%, 76.5%)" stroke-width="1.5"></path>
        <path d="M1550.83 680.07L1285.89 654.45" stroke="hsl(39.19999999999999, 99%, 76.5%)" stroke-width="1.5"></path>
        <path d="M1550.83 680.07L1304.21 540.67" stroke="hsl(39.19999999999999, 99%, 76.5%)" stroke-width="1.5"></path>
        <path d="M1550.83 680.07L1595.84 345.22" stroke="hsl(39.19999999999999, 99%, 76.5%)" stroke-width="1.5"></path>
        <path d="M-46.61 549.24L-46.61 549.24" stroke="hsl(39.19999999999999, 99%, 76.5%)" stroke-width="1.5"></path>
        <path d="M-46.61 549.24L74.31 498.26" stroke="hsl(39.19999999999999, 99%, 76.5%)" stroke-width="1.5"></path>
        <path d="M-46.61 549.24L97.53 676.17" stroke="hsl(39.19999999999999, 99%, 76.5%)" stroke-width="1.5"></path>
        <path d="M74.31 498.26L74.31 498.26" stroke="hsl(39.19999999999999, 99%, 76.5%)" stroke-width="1.5"></path>
        <path d="M74.31 498.26L249.64 648.05" stroke="hsl(39.19999999999999, 99%, 76.5%)" stroke-width="1.5"></path>
        <path d="M249.64 648.05L249.64 648.05" stroke="hsl(39.19999999999999, 99%, 76.5%)" stroke-width="1.5"></path>
        <path d="M249.64 648.05L392.27 708.2" stroke="hsl(39.19999999999999, 99%, 76.5%)" stroke-width="1.5"></path>
        <path d="M383.13 553.32L383.13 553.32" stroke="hsl(39.19999999999999, 99%, 76.5%)" stroke-width="1.5"></path>
        <path d="M383.13 553.32L524.91 490.56" stroke="hsl(39.19999999999999, 99%, 76.5%)" stroke-width="1.5"></path>
        <path d="M392.27 708.2L392.27 708.2" stroke="hsl(39.19999999999999, 99%, 76.5%)" stroke-width="1.5"></path>
        <path d="M392.27 708.2L383.13 553.32" stroke="hsl(39.19999999999999, 99%, 76.5%)" stroke-width="1.5"></path>
        <path d="M392.27 708.2L549.06 678.48" stroke="hsl(39.19999999999999, 99%, 76.5%)" stroke-width="1.5"></path>
        <path d="M392.27 708.2L246.34 510.67" stroke="hsl(39.19999999999999, 99%, 76.5%)" stroke-width="1.5"></path>
        <path d="M524.91 490.56L524.91 490.56" stroke="hsl(39.19999999999999, 99%, 76.5%)" stroke-width="1.5"></path>
        <path d="M524.91 490.56L549.06 678.48" stroke="hsl(39.19999999999999, 99%, 76.5%)" stroke-width="1.5"></path>
        <path d="M524.91 490.56L670.73 669.89" stroke="hsl(39.19999999999999, 99%, 76.5%)" stroke-width="1.5"></path>
        <path d="M549.06 678.48L549.06 678.48" stroke="hsl(39.19999999999999, 99%, 76.5%)" stroke-width="1.5"></path>
        <path d="M549.06 678.48L670.73 669.89" stroke="hsl(39.19999999999999, 99%, 76.5%)" stroke-width="1.5"></path>
        <path d="M549.06 678.48L383.13 553.32" stroke="hsl(39.19999999999999, 99%, 76.5%)" stroke-width="1.5"></path>
        <path d="M549.06 678.48L789.41 650.39" stroke="hsl(39.19999999999999, 99%, 76.5%)" stroke-width="1.5"></path>
        <path d="M670.73 669.89L670.73 669.89" stroke="hsl(39.19999999999999, 99%, 76.5%)" stroke-width="1.5"></path>
        <path d="M670.73 669.89L789.41 650.39" stroke="hsl(39.19999999999999, 99%, 76.5%)" stroke-width="1.5"></path>
        <path d="M670.73 669.89L392.27 708.2" stroke="hsl(39.19999999999999, 99%, 76.5%)" stroke-width="1.5"></path>
        <path d="M789.41 650.39L789.41 650.39" stroke="hsl(39.19999999999999, 99%, 76.5%)" stroke-width="1.5"></path>
        <path d="M789.41 650.39L1011.07 510.56" stroke="hsl(39.19999999999999, 99%, 76.5%)" stroke-width="1.5"></path>
        <path d="M789.41 650.39L524.91 490.56" stroke="hsl(39.19999999999999, 99%, 76.5%)" stroke-width="1.5"></path>
        <path d="M1003.29 412.36L1003.29 412.36" stroke="hsl(39.19999999999999, 99%, 76.5%)" stroke-width="1.5"></path>
        <path d="M1003.29 412.36L1093.12 391.22" stroke="hsl(39.19999999999999, 99%, 76.5%)" stroke-width="1.5"></path>
        <path d="M1003.29 412.36L1011.07 510.56" stroke="hsl(39.19999999999999, 99%, 76.5%)" stroke-width="1.5"></path>
        <path d="M1003.29 412.36L1098.78 561.9" stroke="hsl(39.19999999999999, 99%, 76.5%)" stroke-width="1.5"></path>
        <path d="M1003.29 412.36L1122.46 225.76" stroke="hsl(39.19999999999999, 99%, 76.5%)" stroke-width="1.5"></path>
        <path d="M1003.29 412.36L1269.82 241.23" stroke="hsl(39.19999999999999, 99%, 76.5%)" stroke-width="1.5"></path>
        <path d="M1011.07 510.56L1011.07 510.56" stroke="hsl(39.19999999999999, 99%, 76.5%)" stroke-width="1.5"></path>
        <path d="M1122.46 225.76L1122.46 225.76" stroke="hsl(39.19999999999999, 99%, 76.5%)" stroke-width="1.5"></path>
        <path d="M1122.46 225.76L1269.82 241.23" stroke="hsl(39.19999999999999, 99%, 76.5%)" stroke-width="1.5"></path>
        <path d="M1122.46 225.76L1093.12 391.22" stroke="hsl(39.19999999999999, 99%, 76.5%)" stroke-width="1.5"></path>
        <path d="M1122.46 225.76L1303.32 71.01" stroke="hsl(39.19999999999999, 99%, 76.5%)" stroke-width="1.5"></path>
        <path d="M1122.46 225.76L1401.59 232.26" stroke="hsl(39.19999999999999, 99%, 76.5%)" stroke-width="1.5"></path>
        <path d="M1122.46 225.76L1393.37 354.48" stroke="hsl(39.19999999999999, 99%, 76.5%)" stroke-width="1.5"></path>
        <path d="M1093.12 391.22L1093.12 391.22" stroke="hsl(39.19999999999999, 99%, 76.5%)" stroke-width="1.5"></path>
        <path d="M1093.12 391.22L1011.07 510.56" stroke="hsl(39.19999999999999, 99%, 76.5%)" stroke-width="1.5"></path>
        <path d="M1141.77 698.34L1141.77 698.34" stroke="hsl(39.19999999999999, 99%, 76.5%)" stroke-width="1.5"></path>
        <path d="M1141.77 698.34L1285.89 654.45" stroke="hsl(39.19999999999999, 99%, 76.5%)" stroke-width="1.5"></path>
        <path d="M1141.77 698.34L1304.21 540.67" stroke="hsl(39.19999999999999, 99%, 76.5%)" stroke-width="1.5"></path>
        <path d="M1240.35 -78L1240.35 -78" stroke="hsl(39.19999999999999, 99%, 76.5%)" stroke-width="1.5"></path>
        <path d="M1240.35 -78L1303.32 71.01" stroke="hsl(39.19999999999999, 99%, 76.5%)" stroke-width="1.5"></path>
        <path d="M1240.35 -78L1438.16 -42.39" stroke="hsl(39.19999999999999, 99%, 76.5%)" stroke-width="1.5"></path>
        <path d="M1303.32 71.01L1303.32 71.01" stroke="hsl(39.19999999999999, 99%, 76.5%)" stroke-width="1.5"></path>
        <path d="M1303.32 71.01L1428.34 56.35" stroke="hsl(39.19999999999999, 99%, 76.5%)" stroke-width="1.5"></path>
        <path d="M1303.32 71.01L1269.82 241.23" stroke="hsl(39.19999999999999, 99%, 76.5%)" stroke-width="1.5"></path>
        <path d="M1269.82 241.23L1269.82 241.23" stroke="hsl(39.19999999999999, 99%, 76.5%)" stroke-width="1.5"></path>
        <path d="M1269.82 241.23L1401.59 232.26" stroke="hsl(39.19999999999999, 99%, 76.5%)" stroke-width="1.5"></path>
        <path d="M1304.21 540.67L1304.21 540.67" stroke="hsl(39.19999999999999, 99%, 76.5%)" stroke-width="1.5"></path>
        <path d="M1304.21 540.67L1397.19 532.93" stroke="hsl(39.19999999999999, 99%, 76.5%)" stroke-width="1.5"></path>
        <path d="M1285.89 654.45L1285.89 654.45" stroke="hsl(39.19999999999999, 99%, 76.5%)" stroke-width="1.5"></path>
        <path d="M1285.89 654.45L1304.21 540.67" stroke="hsl(39.19999999999999, 99%, 76.5%)" stroke-width="1.5"></path>
        <path d="M1428.34 56.35L1428.34 56.35" stroke="hsl(39.19999999999999, 99%, 76.5%)" stroke-width="1.5"></path>
        <path d="M1428.34 56.35L1582.11 39.39" stroke="hsl(39.19999999999999, 99%, 76.5%)" stroke-width="1.5"></path>
        <path d="M1428.34 56.35L1401.59 232.26" stroke="hsl(39.19999999999999, 99%, 76.5%)" stroke-width="1.5"></path>
        <path d="M1401.59 232.26L1401.59 232.26" stroke="hsl(39.19999999999999, 99%, 76.5%)" stroke-width="1.5"></path>
        <path d="M1401.59 232.26L1393.37 354.48" stroke="hsl(39.19999999999999, 99%, 76.5%)" stroke-width="1.5"></path>
        <path d="M1393.37 354.48L1393.37 354.48" stroke="hsl(39.19999999999999, 99%, 76.5%)" stroke-width="1.5"></path>
        <path d="M1393.37 354.48L1269.82 241.23" stroke="hsl(39.19999999999999, 99%, 76.5%)" stroke-width="1.5"></path>
        <path d="M1397.19 532.93L1397.19 532.93" stroke="hsl(39.19999999999999, 99%, 76.5%)" stroke-width="1.5"></path>
        <path d="M1397.19 532.93L1453.5 638.47" stroke="hsl(39.19999999999999, 99%, 76.5%)" stroke-width="1.5"></path>
        <path d="M1397.19 532.93L1285.89 654.45" stroke="hsl(39.19999999999999, 99%, 76.5%)" stroke-width="1.5"></path>
        <path d="M1397.19 532.93L1570.31 513.92" stroke="hsl(39.19999999999999, 99%, 76.5%)" stroke-width="1.5"></path>
        <path d="M1453.5 638.47L1453.5 638.47" stroke="hsl(39.19999999999999, 99%, 76.5%)" stroke-width="1.5"></path>
        <path d="M1582.11 39.39L1582.11 39.39" stroke="hsl(39.19999999999999, 99%, 76.5%)" stroke-width="1.5"></path>
        <path d="M1595.84 345.22L1595.84 345.22" stroke="hsl(39.19999999999999, 99%, 76.5%)" stroke-width="1.5"></path>
        <path d="M1595.84 345.22L1393.37 354.48" stroke="hsl(39.19999999999999, 99%, 76.5%)" stroke-width="1.5"></path>
        <path d="M1595.84 345.22L1401.59 232.26" stroke="hsl(39.19999999999999, 99%, 76.5%)" stroke-width="1.5"></path>
        <circle r="25" cx="-88.68" cy="683.6" fill="url(&quot;#SvgjsRadialGradient1009&quot;)"></circle>
        <circle r="25" cx="97.53" cy="676.17" fill="url(&quot;#SvgjsRadialGradient1009&quot;)"></circle>
        <circle r="25" cx="246.34" cy="510.67" fill="url(&quot;#SvgjsRadialGradient1009&quot;)"></circle>
        <circle r="25" cx="659.48" cy="404.33" fill="url(&quot;#SvgjsRadialGradient1009&quot;)"></circle>
        <circle r="25" cx="811.04" cy="407.95" fill="url(&quot;#SvgjsRadialGradient1009&quot;)"></circle>
        <circle r="25" cx="1098.78" cy="561.9" fill="url(&quot;#SvgjsRadialGradient1009&quot;)"></circle>
        <circle r="25" cx="1438.16" cy="-42.39" fill="url(&quot;#SvgjsRadialGradient1009&quot;)"></circle>
        <circle r="25" cx="1594.68" cy="-48.96" fill="url(&quot;#SvgjsRadialGradient1009&quot;)"></circle>
        <circle r="25" cx="1549.15" cy="224.72" fill="url(&quot;#SvgjsRadialGradient1009&quot;)"></circle>
        <circle r="25" cx="1570.31" cy="513.92" fill="url(&quot;#SvgjsRadialGradient1009&quot;)"></circle>
        <circle r="25" cx="1550.83" cy="680.07" fill="url(&quot;#SvgjsRadialGradient1009&quot;)"></circle>
        <circle r="5" cx="-46.61" cy="549.24" fill="#ffdb97"></circle>
        <circle r="5" cx="74.31" cy="498.26" fill="#ffdb97"></circle>
        <circle r="5" cx="249.64" cy="648.05" fill="#ffdb97"></circle>
        <circle r="5" cx="383.13" cy="553.32" fill="#ffdb97"></circle>
        <circle r="5" cx="392.27" cy="708.2" fill="#ffdb97"></circle>
        <circle r="5" cx="524.91" cy="490.56" fill="#ffdb97"></circle>
        <circle r="5" cx="549.06" cy="678.48" fill="#ffdb97"></circle>
        <circle r="5" cx="670.73" cy="669.89" fill="#ffdb97"></circle>
        <circle r="5" cx="789.41" cy="650.39" fill="#ffdb97"></circle>
        <circle r="5" cx="1003.29" cy="412.36" fill="#ffdb97"></circle>
        <circle r="5" cx="1011.07" cy="510.56" fill="#ffdb97"></circle>
        <circle r="5" cx="1122.46" cy="225.76" fill="#ffdb97"></circle>
        <circle r="5" cx="1093.12" cy="391.22" fill="#ffdb97"></circle>
        <circle r="5" cx="1141.77" cy="698.34" fill="#ffdb97"></circle>
        <circle r="5" cx="1240.35" cy="-78" fill="#ffdb97"></circle>
        <circle r="5" cx="1303.32" cy="71.01" fill="#ffdb97"></circle>
        <circle r="5" cx="1269.82" cy="241.23" fill="#ffdb97"></circle>
        <circle r="5" cx="1304.21" cy="540.67" fill="#ffdb97"></circle>
        <circle r="5" cx="1285.89" cy="654.45" fill="#ffdb97"></circle>
        <circle r="5" cx="1428.34" cy="56.35" fill="#ffdb97"></circle>
        <circle r="5" cx="1401.59" cy="232.26" fill="#ffdb97"></circle>
        <circle r="5" cx="1393.37" cy="354.48" fill="#ffdb97"></circle>
        <circle r="5" cx="1397.19" cy="532.93" fill="#ffdb97"></circle>
        <circle r="5" cx="1453.5" cy="638.47" fill="#ffdb97"></circle>
        <circle r="5" cx="1582.11" cy="39.39" fill="#ffdb97"></circle>
        <circle r="5" cx="1595.84" cy="345.22" fill="#ffdb97"></circle>
    </g>
    <defs>
        <mask id="SvgjsMask1008">
            <rect width="1440" height="560" fill="#ffffff"></rect>
        </mask>
        <radialGradient id="SvgjsRadialGradient1009">
            <stop stop-color="#ffffff" offset="0.1"></stop>
            <stop stop-color="rgba(254, 182, 46, 1)" offset="0.2"></stop>
            <stop stop-color="rgba(254, 182, 46, 0)" offset="1"></stop>
        </radialGradient>
    </defs>
</svg>