<svg id="Layer_1" data-name="Layer 1" xmlns="http://www.w3.org/2000/svg" viewBox="0 0 66.98 71.04"><defs><style>.cls-1{fill:#141213;}.cls-2{fill:#f4f4f4;}.cls-3{fill:#e7f4fb;}.cls-4{fill:#f2ccab;}.cls-5{fill:#292929;}.cls-6{fill:#7297aa;}.cls-7{fill:#e74c1c;}.cls-8{fill:#834794;}.cls-9{fill:#5759a3;}.cls-10{fill:#e85a5a;}.cls-11{fill:#cfcfcf;}.cls-12{fill:#e58642;}.cls-13{fill:#eda482;}.cls-14{fill:#fac22d;}.cls-15{fill:#fbcc4c;}</style></defs><path class="cls-1" d="M54,43.76v2.12a2.46,2.46,0,0,1-1.33,2.29c-.17.09-.19.13-.09.31Q55.62,54,58.63,59.53a2.76,2.76,0,0,1,.1,2c-.12.5-.57.65-1.07.65H50.14c-.23,0-.32.06-.35.29a2.85,2.85,0,0,1-.51,1.17.57.57,0,0,0-.09.55c.09.28.13.57.21.85s0,.51.38.45c.11,0,.14.14.16.25q1.11,4.67,2.23,9.35c.06.29,0,.42-.33.42H46.09a.34.34,0,0,1-.4-.26.09.09,0,0,1,0,0c-.62-2.64-1.26-5.28-1.89-7.92,0-.17-.13-.4.17-.44s.28-.2.21-.41a.38.38,0,0,1,0-.15,1.78,1.78,0,0,0-1.11-1.59,4.44,4.44,0,0,1-1.88-2.22.43.43,0,0,0-.45-.28H28.33a.46.46,0,0,0-.45.29,4.86,4.86,0,0,1-2.32,2.39A1.35,1.35,0,0,0,24.62,66a2.21,2.21,0,0,1-.15.5c-.07.18-.08.32.16.36s.26.19.2.39l-2.46,8a.34.34,0,0,1-.4.27H16.08c-.32,0-.39-.1-.29-.41q1.49-4.82,3-9.65c.06-.19.09-.4.39-.31.1,0,.11-.08.13-.15l.39-1.26a.45.45,0,0,0-.06-.34,3.16,3.16,0,0,1-.37-.84c-.07-.32-.24-.36-.53-.36H10.3c-.75,0-1.11-.4-1.16-1.16a3.88,3.88,0,0,1,.53-2.16c1.81-3.35,3.59-6.73,5.38-10.11a1.37,1.37,0,0,1,.64-.7,2.85,2.85,0,0,1-1.16-2.7v-5.6c-.16-.06-.24.06-.34.12L8,43.76c-.77.48-1,.42-1.52-.33L1.78,36c-.41-.66-.33-1,.34-1.41l7.16-4.46c.52-.32.68-.29,1,.23,1.31,2.07,2.6,4.15,3.9,6.22l.19.29c.13,0,.09-.13.09-.2V30.73c0-.23,0-.33-.3-.23-.47.16-.81,0-1-.56-1.07-2.57-2.14-5.13-3.2-7.7a.74.74,0,0,0-.42-.49.74.74,0,0,1-.4-.64c-.47-2.84-1-5.67-1.41-8.51-.21-1.3-.14-1.38,1.17-1.6l8-1.33c.67-.11.82,0,.93.67l1,5.95a3.59,3.59,0,0,0,.08.35c.47-.24.9-.49,1.36-.71a10.69,10.69,0,0,1,2.52-.85,8.24,8.24,0,0,0,1.53-.56c.64-.24,1-.11,1.24.51q1.67,4,3.32,8c.09.23.18.33.44.33H50a1.76,1.76,0,0,1-.53-.59l-4.74-7.66a.82.82,0,0,1,0-1.15.79.79,0,0,1,.29-.18l7.34-4.59c.45-.29.65-.24.94.22l5.07,8.09c.26.42.22.64-.19.89l-7.72,4.82v.07h1A2.5,2.5,0,0,1,54,25.74v2.78a.45.45,0,0,0,.31.51,15.66,15.66,0,0,0,4.45,1.18,10.18,10.18,0,0,1,3.1.88,10,10,0,0,0,1.83.65c.77.2.94.52.73,1.29-.39,1.44-.78,2.88-1.19,4.31a.48.48,0,0,0,.12.53l4.88,5.71c.41.48.39.65-.08,1.06L61,50.78c-.44.38-.63.37-1-.07l-5.66-6.6c-.09-.11-.16-.24-.24-.36a.77.77,0,0,1,.28-.88l1.3-1.11a5.58,5.58,0,0,0,.76-.7l-2.22-.61c-.12,0-.22-.09-.22.12ZM41,48l.08-.08.1,0,.34-.11a.35.35,0,0,0-.41,0l-.11.07-.08.08,0,.09c-.05.06-.12.14,0,.19s.08-.07.11-.12Zm-23.3,7.65a.08.08,0,0,0-.06.11h0a.69.69,0,0,0,.05-.13v0Zm-5.1-21.26.08.08a.21.21,0,0,0,.08.16h0a.15.15,0,0,0-.08-.16l-.08-.08V34.3h0ZM55,12.57l.08.08v.1h0L55,12.66l-.08-.08-.08-.16a.28.28,0,0,0-.15-.24v-.11h0l.06.09a.31.31,0,0,0,.16.25Zm.41.55h0l.08.16a.28.28,0,0,0,.16.24,1,1,0,0,0,.32.56l.08.08v.11h0L56,14.18v-.07a1,1,0,0,0-.32-.56.28.28,0,0,0-.16-.24Zm-42.31,22L13,35c0-.06,0-.13-.1-.12h0c0,.08.06.1.12.11l.08.16a.21.21,0,0,0,.08.16l.08.08v.1h0l-.06-.09-.08-.08ZM45.85,50.47l-.1.14-.07.17a2.5,2.5,0,0,0,0,1.53c.29,1.22.59,2.44.89,3.65l.06.27a.12.12,0,0,1-.07.13c-.1,0-.12,0-.14-.09a2.68,2.68,0,0,1-.07-.27q-.75-3.11-1.51-6.21a.9.9,0,0,0-.34-.6c.29.63-.08.69-.44.75l-.5.14c-.23.06-.35,0-.4-.25a3.63,3.63,0,0,1-.09-1.09,2.38,2.38,0,0,0,0,1.58c.49,2,1,4,1.48,6.06a.4.4,0,0,0,.05.23c0,.08.07.17-.05.19s-.11-.1-.13-.16a.43.43,0,0,1,0-.16c-.57-2.38-1.14-4.76-1.73-7.14a.81.81,0,0,0-.29-.56c.16.49,0,.65-.46.69a2.52,2.52,0,0,0-.54.14c-.24.07-.34,0-.4-.26a5.57,5.57,0,0,1-.11-1,2.44,2.44,0,0,0,0,1.51c.56,2.32,1.13,4.65,1.69,7,0,.13.15.28,0,.49-.14-.54-.26-1-.38-1.51l-.36-1.48c-.12-.5-.24-1-.37-1.51A4.75,4.75,0,0,0,41,51.47c.16.44-.09.52-.42.59-1,.22-1,.23-1-.75l.12-.44.07-.1.18-.12.27-.09c-.11,0-.23-.09-.32,0a.19.19,0,0,0-.18.14l-.07.09a.68.68,0,0,0-.16.49,1.14,1.14,0,0,0,0,.58h0v.06a1,1,0,0,0,.05.39c.27,1.11.55,2.22.82,3.34.1.4.19.8.31,1.3a10.38,10.38,0,0,0-2.1-1.69,1.57,1.57,0,0,0-2,.26,3.2,3.2,0,0,1,1.52.32c.26.14.38.3.24.61a5.28,5.28,0,0,0-.23.72.27.27,0,0,0,.1.34,8.46,8.46,0,0,1,1.58,1.85A16.62,16.62,0,0,1,41.3,62,4.79,4.79,0,0,0,44,64.9c.17.06.18.18.21.31.11.42.21.85.31,1.28,0,.15.08.22.26.17,1.47-.36,3-.71,4.42-1,.22,0,.24-.14.18-.33-.1-.36-.17-.73-.27-1.09a.68.68,0,0,1,.11-.63,2.61,2.61,0,0,0,.52-2c-.08-.53-.11-1.06-.2-1.59-.3-2-.92-3.87-1.35-5.82-.19-.85-.41-1.68-.62-2.52-.1-.41-.16-.51-.35-.62.28.7.25.75-.47.92a2.09,2.09,0,0,0-.43.11c-.25.1-.35,0-.39-.25a2,2,0,0,1-.05-1l.06-.17.11-.16h0l.23-.12a.26.26,0,0,0,.2-.06.3.3,0,0,0-.26,0,.27.27,0,0,0-.22.12ZM12,33.47,12,33.39a.15.15,0,0,0-.08-.16l-.08-.08a.15.15,0,0,0-.08-.16l-.08-.16a.31.31,0,0,0-.16-.25h0a.26.26,0,0,0,.16.24l.08.16a.21.21,0,0,0,.08.16l.08.08a.21.21,0,0,0,.08.16l.08.08v.1h0Zm5.27,23.11a.44.44,0,0,0-.14.25c-.07.2-.22.23-.41.23H15.4c-.84,0-.79-.12-.45-.77.74-1.4,1.54-2.76,2.22-4.18.34-.71.75-1.08,1.54-.92a3.42,3.42,0,0,0,.64,0c.3,0,.41.08.31.41a6.09,6.09,0,0,0-.39,1c.41.12.64,0,.74-.41.09-.24.19-.47.3-.7a.38.38,0,0,1,.43-.27h1.08c.12,0,.23,0,.3-.12.25-.53.75-.92.86-1.52.05-.24.21-.3.44-.3h1.2a.36.36,0,0,0,.36-.19,5,5,0,0,1,.35-.58h-8.2a2.9,2.9,0,0,1-.83-.09c-.7-.2-.81-.15-1.15.51-1.23,2.3-2.45,4.61-3.68,6.92-.68,1.29-1.38,2.58-2.06,3.88a.87.87,0,0,0,.22,1.2.85.85,0,0,0,.51.15h8.75c.22,0,.3-.07.34-.29a19.08,19.08,0,0,1,.88-3.48.74.74,0,0,0,0-.21c-.34-.1-.14-.4-.2-.61-.16.08-.17.23-.22.34s-.11.22-.26.22h-2c-.07,0-.13-.08-.2-.13a1.71,1.71,0,0,0,0-.32c.06,0,.06-.11.06-.18a.38.38,0,0,0,.16-.31l.06-.09h0v.09a.35.35,0,0,0-.17.32s0,.06,0,.12Zm.13-37.95-.11-.22c0-.27-.16-.4-.48-.36a11.84,11.84,0,0,0-6.5,2.77.4.4,0,0,0-.13.54h0c.64,1.49,1.26,3,1.88,4.48l1.33,3.23a11.83,11.83,0,0,1,7.09-3L18.42,21l-.25-.62L18,20l-.44-1ZM43.28,48.5l.32-.2a.28.28,0,0,0-.37.1v0c-.06,0-.15.1-.07.17s.08-.08.12-.12ZM30,51.06c0-.08-.11-.18-.15-.14s.06.13.1.19a1.38,1.38,0,0,1,.13.75c-.13.23,0,.68-.41.65a1,1,0,0,1-1.11-.82l-1.83,5.8a.47.47,0,0,1,0-.51l2.1-6.74a2.94,2.94,0,0,0,.2-1.1c0-.84-.23-1.21-.85-1.12.35.07.64.22.69.61v.52c-.18.8-.18.8-1,.56s-.63-.16-.5-.8l-.05-.06a2.8,2.8,0,0,0-.34.84l-2.16,6.88c0,.1,0,.3-.18.24s0-.19,0-.27c.38-1.25.79-2.49,1.16-3.74a25.37,25.37,0,0,0,.89-3.09,1.71,1.71,0,0,0-.09-1c-.11-.24-.25-.43-.63-.31a.66.66,0,0,1,.58.66,3.32,3.32,0,0,1,0,.63c-.12.18,0,.53-.34.51s-.56-.14-.84-.23c-.45,0-.28-.4-.33-.68a1.73,1.73,0,0,0-.29.65c-.63,2-1.25,4-1.88,6,0,.12,0,.37-.22.3s0-.23,0-.34c.36-1.18.74-2.36,1.1-3.54A2.75,2.75,0,0,0,24,51.3V51c-.09-.66-.32-.86-.88-.75.51,0,.7.32.76.76v.4c-.1.72-.16.76-.84.55s-.66-.21-.61-.95a1.61,1.61,0,0,0-.31.66c-.34,1.06-.69,2.12-1,3.19a43.27,43.27,0,0,0-1.68,5.91,3,3,0,0,0,0,2,2.13,2.13,0,0,1,0,2.13.38.38,0,0,1,0,.15c-.14.25,0,.32.21.38,1.4.42,2.8.85,4.19,1.29.28.09.35,0,.41-.23s.23-.76.34-1.14a.42.42,0,0,1,.33-.34,3.89,3.89,0,0,0,1.73-1.11,7.42,7.42,0,0,0,1.2-1.78,12.38,12.38,0,0,1,2.78-3.68A1.1,1.1,0,0,0,31,57c-.14-.33,0-.48.3-.6a3,3,0,0,1,1.55-.2,1.64,1.64,0,0,0-2-.43,8.64,8.64,0,0,0-1.8,1.19c-.12.1-.21.26-.4.27h0c.18-.86.51-1.67.75-2.51a24.92,24.92,0,0,0,.71-2.44v-.37A1,1,0,0,0,30,51Zm-9.48,4.62-.37.89h.12a2.72,2.72,0,0,0,.31-.88v-.08ZM53.44,39.11s-.1.07-.11.11c-.12.42-.38.4-.74.3-1.83-.52-3.66-1-5.5-1.52a1.53,1.53,0,0,1-.93-1.68l2-7.31c.14-.5.12-1.12,1-1-.64-.22-.87-.11-1,.48-.79,2.88-1.59,5.75-2.38,8.62-.15.57,0,.81.56,1l6.23,1.71c.82.22.82.22,1-.63v-.08Zm-17.9,16.5h0a4.79,4.79,0,0,0,0,1.07c0,.28-.11.38-.39.37h-1.6a2,2,0,0,0-1,.37h3.21a.5.5,0,0,1,.55.36c.24.57.51,1.14.76,1.71s.16.78-.53.78H29.7a.85.85,0,0,0-.93.75H40.45c-.29-.48-.55-.91-.83-1.33a7.43,7.43,0,0,0-2.36-2.5,1,1,0,0,0-.4-.17c-.31,0-.7.17-.9-.12s-.09-.62-.1-.94h0c0-.29-.09-.38-.32-.36ZM48.3,27.77H22.94a9,9,0,0,0-4.45.92h-.07c-.26,0-.32.21-.32.46V44.86c0,.48.08.56.56.56h31.1c.48,0,.56-.08.56-.56V39.75c0-.28-.08-.39-.35-.46-1.27-.33-2.54-.69-3.81-1-.64-.18-.83-.51-.65-1.16.78-2.87,1.57-5.73,2.35-8.59a1.39,1.39,0,0,1,.44-.78Zm-32,1.87c-.4.18-.81.35-1.22.49s-.38.27-.38.58V45.54A3.07,3.07,0,0,0,15,47a2.07,2.07,0,0,0,1.89,1.24h8.2a1.31,1.31,0,0,0,.62-.06,1,1,0,0,1,.89,0,1.12,1.12,0,0,0,1.21-.2A.87.87,0,0,1,29,48l0,0a.56.56,0,0,0,.51.22h10.6c.14,0,.33.09.4-.14.29-.82,1.16-.71,1.6-.13a.68.68,0,0,0,.92.22l.08-.06a.86.86,0,0,1,1,0,1,1,0,0,0,.56.13h6.76A2.32,2.32,0,0,0,53.81,46V40.73a.38.38,0,0,0-.36-.45,5.77,5.77,0,0,1-.84-.23c-.3-.09-.41-.06-.41.3v5.16c0,1.05-.09,1.15-1.16,1.15H17.11c-.66,0-.85-.2-.85-.87V29.63Zm34.87-7,.16-.1,6.1-3.81a.37.37,0,0,0,.2-.48.36.36,0,0,0-.08-.12c-1.7-2.72-3.41-5.43-5.1-8.16A.38.38,0,0,0,52,9.76a.36.36,0,0,0-.12.08c-2,1.27-4.05,2.55-6.09,3.81-.19.12-.18.21-.07.37l.87,1.39,4.34,6.94c.08,0,.08.18.23.23ZM14.44,39.11a.73.73,0,0,0-.17-.55L9.43,30.84c-.26-.42-.33-.43-.75-.17q-3,1.86-5.92,3.71c-.22.14-.25.24-.11.46Q5.28,39,7.88,43.2c.14.22.23.22.43.09l5.86-3.67C14.37,39.5,14.5,39.36,14.44,39.11ZM45.33,51.05a.74.74,0,0,0,.08-.72c-.09-.23-.14-.48-.22-.72s0-.37.28-.37h1.36c.13,0,.26,0,.33.16a7.61,7.61,0,0,1,.43,1.12c0,.12.08.25-.06.33s-.14.28.06.3a.52.52,0,0,1,.4.38c.3.82.67,1.62,1,2.42s.69,1.63,1.09,2.43a1.71,1.71,0,0,1,.09.3c.09.26,0,.35-.26.35h-.72c-.21,0-.27.06-.21.25a19.29,19.29,0,0,1,.72,3.52c0,.18.1.25.28.24h7.84a.76.76,0,0,0,.75-.64,1.19,1.19,0,0,0-.18-.88q-2.93-5.3-5.82-10.61c-.2-.36-.38-.64-.85-.46a1.29,1.29,0,0,1-.48,0H45a1.09,1.09,0,0,0-.44,0,7,7,0,0,1,.79,2.6Zm16.74-9.3c-.44.65-.62.71-1.35.51s-1.49-.41-2.23-.63a.6.6,0,0,0-.65.14c-.87.76-1.76,1.5-2.64,2.26-.4.34-.4.34-.06.74,1.49,1.74,3,3.47,4.46,5.22.25.29.43.26.69,0l7.26-6.2c.25-.21.27-.38,0-.63-.72-.82-1.42-1.66-2.13-2.49l-2.4-2.8-.5,1.82c.38-.37.57-.09.78.16.69.81,1.37,1.63,2.07,2.43.2.22.16.35,0,.52s-.69.55-1,.86-.46.24-.7,0q-.84-.91-1.65-1.86ZM34.22,46.39H51.33c.58,0,.63-.06.63-.65v-4.8c0-.35.11-.79-.06-1s-.65-.21-1-.34-.41,0-.41.32v4.92c0,.71-.11.82-.8.82H18.77c-.75,0-.85-.1-.85-.85V29a6,6,0,0,0-1,.36.47.47,0,0,0-.39.55V45.74c0,.6.06.65.67.65ZM17.86,17v-.13c-.37-2.19-.74-4.39-1.1-6.58-.06-.35-.25-.39-.54-.34l-7,1.17c-.25,0-.28.11-.24.35.44,2.59.87,5.17,1.3,7.76.19,1.17.19,1.17,1.22.5a10.82,10.82,0,0,1,3.64-1.57,16.55,16.55,0,0,0,2.55-.93c.08,0,.2-.1.17-.23ZM19,75.33h2.8c.19,0,.31,0,.38-.24.62-2.07,1.26-4.13,1.9-6.19.06-.2,0-.28-.19-.33-1.71-.52-3.41-1-5.11-1.58-.24-.07-.33,0-.39.22C17.58,69.8,16.78,72.4,16,75c-.08.27-.05.35.25.35C17.16,75.32,18.08,75.33,19,75.33Zm30,0h2.68c.34,0,.37-.09.3-.39-.59-2.44-1.18-4.89-1.75-7.34-.06-.25-.14-.31-.4-.25l-5.16,1.23c-.24,0-.29.13-.23.37q.75,3,1.45,6.06c.06.26.15.32.4.32C47.14,75.32,48.05,75.33,49,75.33ZM27.2,25.11H51.6a.58.58,0,0,1,.59.59V28a.34.34,0,0,0,.28.39h0c.35.1.69.2,1,.32s.29,0,.29-.22v-2.6a2.36,2.36,0,0,0-1.87-2.31,9.77,9.77,0,0,0-1.71,0H29.4c-.23,0-.34.08-.34.32a.81.81,0,0,1-.51.7A13.16,13.16,0,0,0,27.2,25.11ZM61.49,40.8c.75-2.73,1.47-5.4,2.22-8.06a.38.38,0,0,0-.18-.51h0a11.75,11.75,0,0,0-7.05-1.92c-.21,0-.3.06-.35.27-.6,2.65-1.32,5.26-2.16,7.85-.08.24,0,.28.23.27a11.37,11.37,0,0,1,4.29.58,11.86,11.86,0,0,1,3,1.53ZM20.72,26a11.71,11.71,0,0,1,7-3c.36,0,.2-.21.13-.36-1-2.47-2.05-4.94-3.06-7.41a.37.37,0,0,0-.45-.27h0a11.81,11.81,0,0,0-6.77,2.84.3.3,0,0,0-.09.41v0c.35.74.68,1.5,1,2.25.8,1.82,1.54,3.64,2.23,5.53Zm35.05,4.88c.29-.64.29-.64-.26-1a11.74,11.74,0,0,0-6.64-1.67c-.25,0-.33.1-.39.33-.21.82-.45,1.64-.68,2.46-.51,1.86-1,3.72-1.52,5.58h.09a11.55,11.55,0,0,1,7.14,1.86c.21.13.23,0,.27-.14.35-1.27.7-2.54,1-3.81a8.68,8.68,0,0,0,.32-1.24c-.28.09-.28.1-.45,0a10.72,10.72,0,0,0-6.25-1.71c-.28,0-.36-.09-.29-.36.21-.71.41-1.41.58-2.12a.38.38,0,0,1,.39-.35h.05a10.24,10.24,0,0,1,1.36.06,10.62,10.62,0,0,1,4.91,1.64c.19.14.39.21.37.47ZM21.29,27.49v.08H50c.11,0,.24.06.31-.1a.76.76,0,0,0-.26-1,.77.77,0,0,0-.44-.1H24.44a.9.9,0,0,0-.4,0c-.92.4-1.83.77-2.75,1.16Zm3.33-1.35H50a.51.51,0,0,1,.55.47v1c0,.3,0,.51.4.49a2.85,2.85,0,0,1,.71.12c.25.05.35,0,.34-.28V26.09c0-.61,0-.73-.75-.73H27.61a6.49,6.49,0,0,0-3,.75Zm23.7,5.21h.24A10.91,10.91,0,0,1,54.67,33c.22.14.26.06.31-.14.16-.63.33-1.26.52-1.88a.31.31,0,0,0-.14-.4,11.06,11.06,0,0,0-6.16-1.67c-.15,0-.24,0-.28.2-.19.73-.39,1.45-.6,2.22ZM37,52.55h.12a3.7,3.7,0,0,0,0-.94c0-.29,0-.45.38-.43a7,7,0,0,0,1.12,0c.23,0,.56.18.64-.25,0-.25.32-.42.24-.73s-.2-.59,0-.82.54-.09.82-.12.18-.36.24-.55-.08-.23-.25-.23H29.49c-.22,0-.28.05-.25.27a2.88,2.88,0,0,1,.06,1.54c0,.1-.1.23,0,.34s.35-.1.37-.34.09-.5.12-.75a.26.26,0,0,1,.26-.28H31.5c.24,0,.33.1.3.34s-.06.63-.08.95-.13.36-.38.35h-1c0,.25.1.3.29.3h1.12c.37,0,.44.14.4.45s0,.45-.07.68,0,.27.18.27.23-.1.24-.27,0-.53,0-.79.09-.34.33-.34h1.48c.22,0,.32.09.31.31s0,.53,0,.8c0,.09-.07.26.08.26s.1-.18.1-.28v-.76c0-.26.09-.33.33-.33h1.44c.26,0,.35.1.35.35S37,52.21,37,52.55Zm-7.61,7.56h7.36c.34,0,.3-.18.2-.39-.25-.57-.52-1.13-.76-1.71a.46.46,0,0,0-.51-.34H32.27a1.16,1.16,0,0,0-.6.17A8.15,8.15,0,0,0,29.37,60.11Zm20.91-37a.84.84,0,0,0,.56-.31c.09-.12-.11-.27-.19-.4Q49.33,20.27,48,18.14l-2.48-4c-.06-.09-.07-.27-.27-.21a.66.66,0,0,0-.5.77.67.67,0,0,0,.1.23c1.61,2.6,3.24,5.19,4.86,7.79a.63.63,0,0,0,.58.32ZM7.21,43.93a.8.8,0,0,0,.59-.29c.1-.14-.1-.28-.17-.4Q5.1,39.19,2.57,35.15c-.25-.39-.58-.39-.81,0a.62.62,0,0,0,.05.68l.49.77,4.35,6.93a.61.61,0,0,0,.56.33ZM9.62,21.59c-.11-.58,0-.92.34-1.08s.25-.29.21-.51c-.1-.62-.2-1.24-.31-1.85-.36-2.2-.73-4.39-1.09-6.59,0-.27-.14-.32-.38-.27a.62.62,0,0,0-.6.64.77.77,0,0,0,0,.15l1.5,9a.59.59,0,0,0,.31.44ZM54.17,39a1.71,1.71,0,0,1,.1.5c0,.31.11.41.39.48,1.75.47,3.5.92,5.23,1.45a1.19,1.19,0,0,0,1.4-.41,11.44,11.44,0,0,0-7.12-2.09ZM13.64,29.11a1.2,1.2,0,0,0,1.52.2c1.5-.68,3-1.27,4.56-1.9.4-.17.88-.27.69-.9a.71.71,0,0,1,0-.29A11.53,11.53,0,0,0,13.64,29.11ZM21.05,26a2,2,0,0,1,.41.35c.16.26.31.24.55.14,1.68-.71,3.35-1.44,5-2.08a1.2,1.2,0,0,0,.85-1.19A11.58,11.58,0,0,0,21.05,26Zm32.5,12.77a10.43,10.43,0,0,0-1.66-.94,11.38,11.38,0,0,0-5.24-1c-.09,0-.23-.07-.26.1a1.3,1.3,0,0,0,.6.86l5.38,1.48c.36.1.7.26.89-.24,0-.1.18-.16.29-.26ZM63.49,32c.4.14.53.34.42.72-.68,2.42-1.36,4.84-2,7.27a2.2,2.2,0,0,1-1.09,1.51.55.55,0,0,1-.48.09l-6-1.64a.33.33,0,0,1-.3-.36.13.13,0,0,1,0-.06.6.6,0,0,0-.3-.66c-.09.28-.15.56-.25.81s0,.36.26.43l7.12,2c.55.15.78,0,.93-.54.38-1.38.76-2.75,1.13-4.12.42-1.53.85-3,1.26-4.58.2-.56-.07-.88-.71-.82ZM24.14,14.82c.66-.23.77.22.95.65.92,2.23,1.83,4.46,2.78,6.67A2,2,0,0,1,28,23.82a.91.91,0,0,1-.55.6c-1.72.7-3.42,1.41-5.13,2.12-.39.16-.78.43-1.05-.17,0,0,0-.05-.09-.07s-.22-.15-.32-.06,0,.19,0,.29A3.38,3.38,0,0,1,21,27c.08.33.24.33.52.21,2.25-.95,4.52-1.88,6.78-2.83.51-.21.62-.44.4-1-1.14-2.77-2.29-5.53-3.44-8.3-.22-.57-.55-.65-1.14-.23ZM34.5,62h6c.12,0,.35.09.34-.14s-.07-.41-.34-.41H28.58a.47.47,0,0,0-.35.44c0,.21.23.11.35.11ZM65.38,42.63a2.39,2.39,0,0,0-.13-.21l-2.18-2.55c-.08-.09-.13-.08-.23,0-.58.37-.56,1-.72,1.57a.45.45,0,0,0,.11.2c.54.64,1.09,1.27,1.63,1.92.12.14.2.16.34,0,.32-.29.65-.56,1-.83l.18-.1ZM14.24,61.44H9.72c-.1,0-.24-.06-.29.06s.08.23.17.3a1.07,1.07,0,0,0,.71.2h8.35c.19,0,.41.06.41-.27s-.2-.28-.4-.28ZM20.6,26.49v.23c.17.43-.06.57-.42.71-1.77.71-3.52,1.45-5.28,2.18A1.56,1.56,0,0,1,13.22,29c-1.08-2.57-2.14-5.14-3.21-7.71a.39.39,0,0,1,.1-.5c.09-.06.2-.12.23-.25-.54.14-.7.43-.49.94l3.48,8.37a.62.62,0,0,0,.73.48.85.85,0,0,0,.22-.09l6-2.49c.82-.34.82-.35.41-1.16Zm33.58,35h-4c-.37,0-.33.16-.28.4s.21.16.35.16h7.51a1.09,1.09,0,0,0,.52-.16c.12-.07.26-.14.23-.29s-.22-.11-.34-.11Zm3.7-20a7.1,7.1,0,0,1-.79-.22.62.62,0,0,0-.71.15c-.59.54-1.21,1-1.81,1.56a.65.65,0,0,0-.2.91.64.64,0,0,0,.2.2c.11.1.18.12.3,0ZM52.44,9.57,54,12.11C55.2,14,56.41,16,57.62,17.92c0,.08.08.24.2.2A.33.33,0,0,0,58,17.9a.64.64,0,0,0-.14-.27C56.25,15,54.6,12.38,53,9.75c-.13-.24-.27-.33-.53-.15Zm15.44,34.2-4.41,3.77c-1,.87-2,1.75-3.07,2.61-.2.17-.16.27,0,.37s.21-.07.29-.14l7.11-6.06c.24-.15.26-.29.08-.52ZM14.4,38.35a1.1,1.1,0,0,0-.08-.85Q12.13,34,10,30.5c-.15-.24-.29-.31-.53-.11Zm1.35,16.8h2c.84,0,.83,0,1.13-.78.07-.2,0-.23-.16-.23H16.48a.26.26,0,0,0-.26.15,5.15,5.15,0,0,1-.47.89Zm2.66-38.43V16.6c-.27-1.59-.53-3.17-.79-4.76-.09-.55-.2-1.1-.28-1.65,0-.21-.15-.23-.3-.22s-.09.18-.08.26c.36,2.18.72,4.35,1.09,6.53,0,.08,0,.25.14.2s.26,0,.22-.21Zm1.35,36H17.23a.24.24,0,0,0-.26.13c-.13.27-.28.53-.45.85h2.64a.23.23,0,0,0,.24-.16c.1-.19.22-.43.36-.76Zm18.5.33v.24c.06.57.06.58.65.61a.22.22,0,0,1,.26.23c0,.16.08.53.11.79s.27.19.42.19.14-.17.11-.28c-.1-.46-.22-.93-.34-1.39-.18-.72-.18-.71-.91-.73-.28.06-.41.12-.3.4Zm-4.2,2.07h.28c.79,0,.79,0,.7-.79,0-.18-.09-.22-.25-.22h-1.4c-.2,0-.24.08-.25.26,0,.75-.06.75.68.75Zm-2.82,0c1.05,0,1,0,1-.79,0-.18-.06-.22-.22-.22H30.59a.21.21,0,0,0-.23.16c-.21.7-.11.85.59.85Zm8-2.81c0-.34.05-.76-.12-.94s-.63,0-1-.06H38c-.7,0-.7,0-.61.69,0,.16,0,.32.25.31Zm-4.86,3.22a3.86,3.86,0,0,1-.68,0c-.29,0-.35.1-.33.34a1.53,1.53,0,0,1,0,.32.34.34,0,0,0,.36.34c.27,0,.67,0,1,0,.63,0,.61,0,.62-.62,0-.3-.07-.41-.37-.37a4,4,0,0,1-.6.05Zm-16.77,1h1.82c.11,0,.2,0,.24-.14s.22-.54.34-.84H18.21a.22.22,0,0,0-.27.16c-.11.3-.23.54-.38.86Zm-2.55,0h1.81a.27.27,0,0,0,.27-.18c.11-.26.25-.52.39-.81H15.71a.23.23,0,0,0-.24.1,7,7,0,0,1-.49.93Zm18.51-4.2c.94,0,.93,0,.9-.76,0-.19-.06-.25-.25-.25a11.22,11.22,0,0,1-1.16,0c-.28,0-.33.09-.34.34,0,.67,0,.67.65.67Zm2.36,0h.67c.12,0,.19,0,.21-.16.09-.71,0-.84-.73-.84h-.44c-.6,0-.59,0-.6.59,0,.32.07.46.41.41a3.88,3.88,0,0,1,.48,0Zm-16.38-1H18c-.11,0-.23,0-.3.11l-.46.89h1.6a.22.22,0,0,0,.23-.16Zm13,4.87h-.31c-.94.12-1,.22-.79,1.12v.08c0,.21.11.19.26.11A8,8,0,0,1,33,56.9a.29.29,0,0,0,.23-.34.16.16,0,0,0,0-.09c-.15-.36-.51-.15-.72-.23Zm5.28,1c.1-.32.19-.61.29-.89a.18.18,0,0,0-.09-.2,2.65,2.65,0,0,0-1.61-.32c-.2,0-.23.15-.26.3a.26.26,0,0,0,.13.33,13.65,13.65,0,0,1,1.51.81Zm-1.19-3.47h.28c.68,0,.67,0,.6-.67,0-.22-.08-.34-.33-.31a8.6,8.6,0,0,1-.88,0c-.62,0-.6,0-.61.62,0,.31.09.41.39.37a3,3,0,0,1,.52,0Zm-5.18,0h.23c.74,0,.73,0,.75-.73,0-.23-.08-.25-.27-.25H30.89c-.23,0-.28.08-.31.28-.1.71-.1.7.59.7Zm2.73,0h.24c.72,0,.71,0,.67-.71,0-.24-.11-.28-.31-.27H33.59c-.38,0-.36.08-.36.35,0,.63,0,.63.63.63ZM30.7,50.42c.87,0,.86,0,.9-.78,0-.19,0-.23-.21-.23H30.27c-.2,0-.27.06-.3.26-.12.75-.13.75.61.75Zm5.91,3.72h-.24c-.71,0-.7,0-.67.71,0,.25.09.28.32.31.56.08,1-.37,1.5-.35.06,0,.06-.09.07-.16,0-.44,0-.5-.46-.51ZM23.19,66.76c.08-.12,0-.17-.15-.21a1.66,1.66,0,0,1-.38-.11c-.39-.2-.58-.07-.63.33a.21.21,0,0,1,0,.11c-.24.93-.42.7.58,1h0c.15,0,.22,0,.27-.14Zm23.6.93c-.09-.36-.18-.72-.26-1.08,0-.15-.11-.15-.23-.13-.87.11-.89.14-.7,1a1.67,1.67,0,0,0,.1.43c0,.14.06.19.18.16l.85-.19c.05,0,.06-.09,0-.16ZM21.94,51.34H20.81a.3.3,0,0,0-.33.22c-.1.25-.21.5-.34.79h.64c1,0,1,0,1.18-.93,0,0,0,0-.05-.05Zm15.69,1.77c0,.51.09,1,.13,1.52,0,.11,0,.24.17.27a2.35,2.35,0,0,1,.94.42c.07,0,.22.11.22,0a2.93,2.93,0,0,0-.1-.78c-.05-.21-.25-.13-.37-.11-.35,0-.47-.12-.5-.44s-.08-.61-.09-.91,0-.28-.25-.26S37.64,53,37.63,53.11Zm-6.55-.72c.77,0,.77,0,.79-.74h0c0-.17,0-.23-.21-.23h-1c-.09,0-.2,0-.21.11a1.89,1.89,0,0,0,0,.82c.1.14.44,0,.63,0Zm16.14,14c.1.39.19.7.24,1s.13.31.39.24c.64-.17.64-.16.49-.8v-.08c-.18-.75-.22-.76-.94-.48-.13,0-.18,0-.18.09Zm-25.84-.13c0-.07,0-.14-.06-.16a2,2,0,0,0-.76-.2c-.21,0-.17.35-.26.53v.15c-.19.64-.07.81.59.87.09,0,.16,0,.19-.09.08-.4.19-.76.3-1.13ZM21.05,54.2h-1a.24.24,0,0,0-.24.15c-.09.23-.19.44-.28.66s-.06.18.11.21c.94.13,1.12,0,1.37-.88a.33.33,0,0,0,0-.17ZM19.71,65.77a.2.2,0,0,0-.07-.18.47.47,0,0,0-.65,0,.49.49,0,0,0-.15.27,2.81,2.81,0,0,1-.16.49c-.18.35-.07.54.31.57.12,0,.29.21.37,0s.23-.76.35-1.13Zm29.68,1.5c.53,0,.64-.16.53-.66a3.53,3.53,0,0,1-.13-.54c0-.33-.18-.31-.45-.27a.39.39,0,0,0-.34.57,6.17,6.17,0,0,1,.19.74c0,.07.06.18.2.13Zm-3.72-17c.43-.23.62-.28.89-.15a2.42,2.42,0,0,1,.42.29.27.27,0,0,0,.3,0c.11-.07,0-.17,0-.25-.27-.73-.27-.73-1.05-.73h0c-.93,0-.93,0-.56.82Zm-22,.89c0-.45-.18-.73-.46-.73a1.08,1.08,0,0,0-.69,1c.11.37.59.38.86.37s.21-.47.32-.69Zm2.79-1.93a.64.64,0,0,0-.28-.61.33.33,0,0,0-.4,0,1.66,1.66,0,0,0-.49.93c0,.06,0,.11.05.13.31.1.64.31.9.24s.2-.47.25-.71ZM41,48.65c0,.77.05.81.71.66l.31-.08c.12,0,.14-.09.11-.2a1.8,1.8,0,0,0-.32-.8.41.41,0,0,0-.56-.15.47.47,0,0,0-.19.25,1.59,1.59,0,0,0-.06.3Zm-12.27.29c0-.35-.06-.64-.43-.69s-.71.57-.73,1a1.3,1.3,0,0,0,.9.41c.33-.17.22-.55.29-.74Zm14.5.22c0,.72.06.77.71.62l.3-.08a.12.12,0,0,0,.13-.16,1.77,1.77,0,0,0-.4-.93c-.23-.21-.44-.13-.61.09a.86.86,0,0,0-.1.41ZM33,55.39V53.11c0-.14,0-.27-.18-.28s-.23.1-.24.27c0,.6-.08,1.19-.14,1.79C32.39,55.21,32.42,55.46,33,55.39ZM45.9,51.2c0,.73.05.77.71.6l.27-.06c.07,0,.15,0,.16-.15a1.78,1.78,0,0,0-.48-1,.4.4,0,0,0-.54.12l0,.07a.88.88,0,0,0-.08.42ZM23.05,50a.8.8,0,0,1,1,.32.26.26,0,0,0,.35.12.27.27,0,0,0,.14-.19c.09-.25.16-.5.25-.8H23.7c-.34,0-.62.12-.64.55ZM44.41,68.42c.44,0,.55-.14.46-.55a4.41,4.41,0,0,0-.16-.7c0-.24-.12-.25-.35-.22a.36.36,0,0,0-.32.52,7.19,7.19,0,0,1,.2.8c0,.09,0,.2.18.15ZM24.56,67.19c0-.23-.27-.18-.42-.25s-.22-.09-.27.1-.21.68-.31,1c0,.15,0,.23.16.24s.38.23.49,0a7,7,0,0,0,.36-1.09ZM30,51.67c0-.33-.08-.6-.44-.64s-.7.53-.62.86.53.35.78.36S29.82,51.84,30,51.67ZM18.77,55.34c.2,0,.42.16.55-.15.27-.69.58-1.37.86-2.06,0-.09.22-.23,0-.31s-.2.09-.26.22a3,3,0,0,1-.51,1.07c-.43.35-.43.82-.68,1.23Zm1.38-1.58H21c.27,0,.61-.75.5-.93s-.09,0-.14,0c-.64-.12-.81,0-1.06.58a.83.83,0,0,0-.2.35ZM39.68,51.4c.1.16-.08.56.23.54s.71.06.81-.32a.87.87,0,0,0-.58-.89c-.31,0-.5.26-.5.67ZM50,56.57c-.14-.31-.25-.59-.38-.86a1.42,1.42,0,0,0-.93-.09.2.2,0,0,0,0,.15c0,.71.14.8.86.8Zm-9.89-7.13c-.51,0-.52,0-.41.47,0,.13-.08.4.22.38a.94.94,0,0,1,.57.12c.08,0,.23.08.22,0a3.08,3.08,0,0,0-.19-.85c-.09-.16-.31,0-.43-.07Zm-9.7,3.41a5.82,5.82,0,0,0-.67,2.38c0,.1,0,.14.13.14s.23,0,.25-.13c.08-.79.17-1.59.27-2.39Zm19,2.31c-.13-.3-.24-.57-.36-.83s-.37-.12-.56-.15-.13,0-.13.14c0,.65.22.87.87.86ZM18.63,16.74h.11L17.61,10h-.1Zm12,38.89c-1.12-.14-1.31,0-1.37.94a12.88,12.88,0,0,1,1.26-.94Zm4.85-2.81h-.15v2.36c0,.11,0,.2.14.21s.09-.13.09-.2v-.64a14.3,14.3,0,0,0-.19-1.73ZM48.58,66s-.11.08-.06.26.17.67.24,1c0,.11,0,.21.2.16s.18-.07.14-.22c-.09-.35-.17-.72-.26-1.08-.13-.08-.15-.15-.37-.12ZM47.41,67.6c-.09-.38-.18-.76-.28-1.15a.13.13,0,0,0-.13-.11l0,0c-.08,0-.18,0-.15.18.1.38.19.77.28,1.15,0,.1.08.13.18.1s.07-.06,0-.19Zm-1.8.46-.28-1.12a.14.14,0,0,0-.18-.15A.17.17,0,0,0,45,67c.08.36.17.72.25,1.08,0,.12.1.15.2.12s.07-.11,0-.11Zm-22.28.1a.1.1,0,0,0,.12-.08h0l.36-1.18c0-.11-.07-.14-.14-.16a.15.15,0,0,0-.2.13l-.33,1.06c-.16.18,0,.18.08.23ZM22,66.43c.06-.19-.05-.21-.13-.24s-.16,0-.19.13l-.33,1.05c0,.1,0,.18.1.22a.16.16,0,0,0,.22-.09,3.57,3.57,0,0,1,.22-1.07Zm-1.66-.54a.15.15,0,0,0-.06-.19h0c-.1,0-.18,0-.22.09l-.36,1.14c0,.11.06.13.14.16A.15.15,0,0,0,20,67ZM48.8,53.76a3.45,3.45,0,0,0-.35-.87c-.09-.18-.38-.13-.38,0a2.12,2.12,0,0,0,.2.85c0,.13.22,0,.42,0Zm-8.52,2.57c-.17-.84-.19-.86-.8-.68l.36.31Zm7.4-4.94c.07.27.15.55.21.83s.12.16.23.14.09-.08.05-.15a2,2,0,0,0-.6-.82Zm1.77-23.63v.07l.79.21c.11,0,.21,0,.22-.13s-.1-.15-.21-.15ZM27,49.11l.31-.61h-.48ZM55.64,31.39a2.5,2.5,0,0,0-.28,1.07,2.93,2.93,0,0,0,.28-1.08ZM42.52,48.51l.17.44C42.9,48.47,42.9,48.47,42.52,48.51ZM20.27,55.59a.34.34,0,0,0-.14.43.46.46,0,0,0,.14-.43Zm-.3.84c.1-.12.18-.21.1-.39-.09.13-.18.21-.09.39Zm9.82-5.58a.21.21,0,0,0-.24,0,.32.32,0,0,0,.24,0Zm14.65-1.74.12.1v-.06c0-.06,0-.1-.1-.09S44.46,49.11,44.44,49.11Zm-2.15-.53h-.08l.07.11c.06.05.07,0,.06,0a.11.11,0,0,0-.05-.12Z" transform="translate(-1.53 -4.48)"/><path class="cls-1" d="M31.37,4.48a2,2,0,0,1,.35.09l9.44,3.05c.56.18.66.39.48,1Q40,13.78,38.3,18.94c-.18.57-.38.67-.95.49l-9.44-3a.88.88,0,0,1-.75-1,1,1,0,0,1,.1-.29l3.18-9.82a.88.88,0,0,1,.92-.84Zm9.94,3.43a.07.07,0,0,0-.08,0h.09l.11.09v0ZM38.66,17c.1-.05.08-.15.08-.24s.08-.15.08-.24.08-.15.08-.24.1-.11,0-.24v.24c-.12.05-.08.16-.08.25s-.08.15-.08.24-.08.15-.08.23-.08.16-.08.24A7.22,7.22,0,0,0,38,19c-.1,0-.11.1-.16.16a1.47,1.47,0,0,0-.59,0c.23,0,.39.24.59,0a.14.14,0,0,0,.16-.12v0a10,10,0,0,0,.56-1.76c.11-.05.07-.17.08-.24ZM41,9.85c-.1.05-.08.15-.08.24s-.12.11,0,.21v-.19c.12,0,.08-.16.08-.25s.08-.15.08-.24a4.5,4.5,0,0,0,.46-1.47,9.74,9.74,0,0,0-.46,1.48c-.08,0-.08.13-.08.22Zm-1.28,4c.08-.06.11-.12,0-.23v.23c-.12,0-.08.16-.08.25a2.43,2.43,0,0,0-.32,1,.7.7,0,0,0-.16.48A.67.67,0,0,0,39,16a.77.77,0,0,0,.13-.49.6.6,0,0,0,.16-.48,2.35,2.35,0,0,0,.32-1c.1,0,.08-.12.08-.21Zm.88-2.72a.64.64,0,0,0,.13-.48.77.77,0,0,0-.13.49c-.12,0-.08.15-.08.24A5.2,5.2,0,0,0,40,12.82c-.07,0-.12.11,0,.2v-.21a5.2,5.2,0,0,0,.48-1.44c.1-.06.08-.16.08-.26ZM36.77,19c.33,0,.39-.21.46-.43Q38.9,13.4,40.57,8.24c.15-.46.11-.55-.35-.7L32.51,5c-.3-.11-.38,0-.46.25Q30.34,10.63,28.59,16c-.1.31,0,.4.26.49,2.55.81,5.09,1.64,7.64,2.46Zm-9.41-3.55v.17a.86.86,0,0,0,.81.6c.27,0,.22-.29.27-.46C29,14.14,29.5,12.5,30,10.87,30.64,9,31.24,7.1,31.86,5.22c.1-.3,0-.4-.25-.47-.54-.15-.82,0-1,.57l-3.16,9.76c0,.12-.06.27-.09.36ZM40.87,8c-.06.17-.11.33-.16.5q-1.65,5.09-3.29,10.17c0,.1-.15.22,0,.32a.42.42,0,0,0,.31,0c.17,0,.15-.2.19-.32C39,15.26,40.09,11.89,41.2,8.53c.08-.33,0-.48-.33-.59Zm-.06,2.53h0v.07h0Zm-1,3v0Zm.12-.19v-.07h0Z" transform="translate(-1.53 -4.48)"/><path class="cls-2" d="M54,43.76V40.58c0-.21.1-.15.22-.12l2.22.61a5.58,5.58,0,0,1-.76.7l-1.3,1.11a.77.77,0,0,0-.28.88Z" transform="translate(-1.53 -4.48)"/><path class="cls-3" d="M48.3,27.76a1.41,1.41,0,0,0-.42.74c-.78,2.86-1.57,5.72-2.35,8.59-.18.65,0,1,.65,1.16,1.27.35,2.54.71,3.81,1,.27.07.35.18.35.46v5.11c0,.48-.08.56-.56.56H18.68c-.48,0-.56-.08-.56-.56V29.11c0-.25.06-.41.32-.46h.07A9,9,0,0,1,23,27.73c8.31.05,16.61,0,24.91,0ZM33.81,44.43h1.48a.6.6,0,0,0,.65-.54.61.61,0,0,0-.06-.33.38.38,0,0,1,0-.33.56.56,0,0,0-.2-.77h0c-.11-.08-.17-.13-.1-.28a4.05,4.05,0,0,1,1.18-1.57,5,5,0,1,0-6-.08,3,3,0,0,1,1.1,1.52c.07.2.12.35-.08.53a.57.57,0,0,0-.08.6.48.48,0,0,1,0,.37.6.6,0,0,0,.27.8.66.66,0,0,0,.34.06Zm-3.9-11.82a.65.65,0,0,0-.11-.22c-.59-.57-1.18-1.15-1.78-1.71a.36.36,0,0,0-.51.51c.59.59,1.19,1.17,1.8,1.75a.32.32,0,0,0,.41,0,.44.44,0,0,0,.19-.33Zm12.11,7a.35.35,0,0,0-.24-.27c-.75-.28-1.51-.57-2.27-.84a.34.34,0,0,0-.47.16s0,0,0,.05a.37.37,0,0,0,.2.47h0c.76.29,1.51.57,2.28.84.26.08.49-.1.44-.42Zm-5.68-7.84a.3.3,0,0,0,.29-.17c.37-.76.73-1.53,1.08-2.3.09-.19,0-.36-.22-.45a.32.32,0,0,0-.43.15h0c-.37.76-.73,1.51-1.07,2.27a.34.34,0,0,0,.18.46.32.32,0,0,0,.17,0Zm-8.18,3.3c.22,0,.37,0,.43-.25a.36.36,0,0,0-.22-.46h0l-2.19-.81c-.23-.08-.44-.06-.53.2s0,.4.27.49l1.48.55ZM31,28.53a.35.35,0,0,0-.35.37.32.32,0,0,0,0,.14c.26.75.54,1.49.81,2.24a.34.34,0,0,0,.39.28l.11,0a.36.36,0,0,0,.21-.45s0,0,0,0l-.8-2.21a.38.38,0,0,0-.35-.29ZM26.21,40.64h.08c.77-.35,1.55-.69,2.31-1.06a.37.37,0,0,0,.09-.52.38.38,0,0,0-.4-.14c-.21.08-.41.19-.61.28l-1.59.73a.37.37,0,0,0-.25.46v0a.34.34,0,0,0,.36.23Zm13-6a.88.88,0,0,0,.29-.11l2-.91a.38.38,0,0,0,.24-.47v0a.32.32,0,0,0-.39-.23l-.06,0c-.77.34-1.54.69-2.31,1.06a.33.33,0,0,0-.16.41.38.38,0,0,0,.44.27ZM38,32.88s.11,0,.15-.07c.6-.62,1.21-1.23,1.8-1.86a.32.32,0,0,0,0-.45h0a.33.33,0,0,0-.47,0h0l-1.78,1.83a.32.32,0,0,0,0,.41A.4.4,0,0,0,38,32.88Zm2.21,9.72a.35.35,0,0,0-.1-.26l-1.77-1.71a.35.35,0,0,0-.49,0h0a.33.33,0,0,0,0,.47l0,0,1.8,1.75a.35.35,0,0,0,.41,0A.33.33,0,0,0,40.19,42.6ZM30,41.11a.33.33,0,0,0-.22-.36.38.38,0,0,0-.46.14c-.52.54-1.05,1.08-1.57,1.63-.18.18-.27.38-.06.59s.41.12.59-.07l1.57-1.63A.38.38,0,0,0,30,41.11Zm-3.42-4h1.2c.25,0,.42-.12.42-.37s-.18-.37-.43-.37H25.5c-.24,0-.42.1-.43.36s.17.38.44.38Zm14.36,0h1.11c.27,0,.46-.1.46-.38s-.18-.36-.44-.36h-2.3c-.25,0-.43.11-.44.36s.19.38.45.38Zm-6.55-7.62V28.33c0-.26-.1-.45-.38-.44s-.36.19-.36.43V30.6c0,.27.11.46.39.45s.35-.19.35-.44Z" transform="translate(-1.53 -4.48)"/><path class="cls-4" d="M45.75,50.84a2,2,0,0,0,0,1c0,.22.14.35.39.25a2.09,2.09,0,0,1,.43-.11c.72-.17.75-.22.47-.92.19.11.25.21.35.62.21.84.43,1.67.62,2.52.43,1.95,1,3.85,1.35,5.82.09.53.12,1.06.2,1.59a2.61,2.61,0,0,1-.52,2,.68.68,0,0,0-.11.63c.1.36.17.73.27,1.09.06.19,0,.28-.18.33-1.47.34-3,.69-4.42,1-.18.05-.23,0-.26-.17-.1-.43-.2-.86-.31-1.28,0-.13,0-.25-.21-.31a4.79,4.79,0,0,1-2.72-2.87,16.62,16.62,0,0,0-1.5-2.67,8.46,8.46,0,0,0-1.58-1.85.27.27,0,0,1-.1-.34c.08-.24.13-.49.23-.72a.47.47,0,0,0-.24-.61,3.2,3.2,0,0,0-1.52-.32,1.57,1.57,0,0,1,2-.26A10.38,10.38,0,0,1,40.54,57c-.12-.5-.21-.9-.31-1.3-.27-1.12-.55-2.23-.82-3.34a1,1,0,0,0,0-.39h0v-.06a1.14,1.14,0,0,1,0-.58h.09c0,1,0,1,1,.75.33-.07.58-.15.42-.59a4.75,4.75,0,0,1,.45,1.38c.13.5.25,1,.37,1.51l.36,1.48c.12.48.24,1,.38,1.51.18-.21.06-.36,0-.49-.56-2.33-1.13-4.66-1.69-7a2.44,2.44,0,0,1,0-1.51,5.57,5.57,0,0,0,.11,1c.06.23.16.33.4.26a2.52,2.52,0,0,1,.54-.14c.41,0,.62-.2.46-.69a.81.81,0,0,1,.29.56q.87,3.57,1.73,7.14v.16c0,.05,0,.18.13.16s.07-.12.05-.19,0-.16-.05-.23c-.49-2-1-4-1.48-6.06a2.38,2.38,0,0,1,0-1.58A3.63,3.63,0,0,0,43,49.85c0,.23.17.31.4.25l.5-.14c.36-.06.73-.12.44-.75a.9.9,0,0,1,.34.6q.75,3.11,1.51,6.21a2.68,2.68,0,0,0,.07.27c0,.06,0,.13.14.09a.12.12,0,0,0,.07-.13L46.42,56c-.3-1.21-.6-2.43-.89-3.65a2.5,2.5,0,0,1,0-1.53Z" transform="translate(-1.53 -4.48)"/><path class="cls-4" d="M24,51v.25h0v0a2.75,2.75,0,0,1-.18,1.06c-.36,1.18-.74,2.36-1.1,3.54,0,.11-.19.28,0,.34s.18-.18.22-.3c.63-2,1.25-4,1.88-6a1.73,1.73,0,0,1,.29-.65c.05.28-.12.63.33.68.28.09.56.17.84.23s.22-.33.34-.5h.16a25.37,25.37,0,0,1-.89,3.09c-.37,1.25-.78,2.49-1.16,3.74,0,.08-.15.22,0,.27s.15-.14.18-.24l2.16-6.88a2.8,2.8,0,0,1,.34-.84l.05.06c-.13.64-.25.56.5.8s.78.24,1-.56h.14a3.15,3.15,0,0,1-.2,1.1l-2.1,6.74a.47.47,0,0,0,0,.51l1.83-5.8c.08.49.42.78,1.11.82.45,0,.28-.42.41-.65h.12v.33c-.15.84-.48,1.62-.71,2.44s-.57,1.65-.75,2.51h-.05v0c.19,0,.28-.17.4-.27a8.64,8.64,0,0,1,1.8-1.19,1.64,1.64,0,0,1,2,.43,3,3,0,0,0-1.55.2c-.29.12-.44.27-.3.6a1.1,1.1,0,0,1-.41,1.47A12.5,12.5,0,0,0,27.9,62a7.42,7.42,0,0,1-1.2,1.78A3.89,3.89,0,0,1,25,64.92a.42.42,0,0,0-.33.34c-.11.38-.24.76-.34,1.14-.06.23-.13.32-.41.23-1.39-.44-2.79-.87-4.19-1.29-.21-.06-.35-.13-.21-.38a.38.38,0,0,0,0-.15,2.13,2.13,0,0,0,0-2.13c-.38-.6-.13-1.3,0-2a43.27,43.27,0,0,1,1.68-5.91c.31-1.07.66-2.13,1-3.19a1.61,1.61,0,0,1,.31-.66c-.05.74-.05.74.61.95s.74.17.84-.55v-.4Z" transform="translate(-1.53 -4.48)"/><path class="cls-5" d="M16.26,29.63V45.77c0,.67.19.87.85.87H51c1.07,0,1.16-.1,1.16-1.15V40.33c0-.36.11-.39.41-.3a5.77,5.77,0,0,0,.84.23c.26.06.37.16.36.45v5.2a2.32,2.32,0,0,1-2.3,2.34H44.63a1,1,0,0,1-.56-.13.86.86,0,0,0-1,0,.67.67,0,0,1-.94-.08L42.12,48c-.44-.58-1.31-.69-1.6.13-.07.23-.26.14-.4.14H29.54A.56.56,0,0,1,29,48a.85.85,0,0,0-1.21-.08l0,0a1.12,1.12,0,0,1-1.21.2,1,1,0,0,0-.89,0,1.31,1.31,0,0,1-.62.06h-8.2A2.07,2.07,0,0,1,15,47a3,3,0,0,1-.31-1.46V30.69c0-.31.05-.49.38-.58S15.86,29.81,16.26,29.63Z" transform="translate(-1.53 -4.48)"/><path class="cls-6" d="M17.27,56.89c.07,0,.13.13.2.13h2c.15,0,.2-.1.26-.22s.06-.26.22-.34c.06.21-.14.51.2.61a.74.74,0,0,1,0,.21,19.08,19.08,0,0,0-.88,3.48c0,.22-.12.29-.34.29H10.18a.86.86,0,0,1-.88-.84.85.85,0,0,1,.15-.51c.68-1.3,1.38-2.59,2.06-3.88,1.23-2.31,2.45-4.62,3.68-6.92.34-.66.45-.71,1.15-.51a2.9,2.9,0,0,0,.83.09h8.2a5,5,0,0,0-.35.58.36.36,0,0,1-.36.19h-1.2c-.23,0-.39.06-.44.3-.11.6-.61,1-.86,1.52-.07.14-.18.12-.3.12H20.78a.38.38,0,0,0-.43.27c-.11.23-.21.46-.3.7-.1.42-.33.53-.74.41a6.09,6.09,0,0,1,.39-1c.1-.33,0-.41-.31-.41a3.42,3.42,0,0,1-.64,0c-.79-.16-1.2.21-1.54.92-.68,1.42-1.48,2.78-2.22,4.18-.34.65-.39.8.45.77H16.8c.19,0,.34,0,.41-.23Zm1.73-6h.76a.29.29,0,0,0,.32-.18l.49-1.09c.11-.26,0-.38-.26-.38H18.92c-.13,0-.25,0-.31.15a10,10,0,0,0-.56,1.14c-.1.28,0,.36.28.36Z" transform="translate(-1.53 -4.48)"/><path class="cls-7" d="M51.13,22.58c-.16,0-.2-.19-.27-.29l-4.34-6.94L45.65,14c-.11-.16-.12-.25.07-.37l6.09-3.81a.37.37,0,0,1,.52,0,.42.42,0,0,1,.08.12c1.69,2.73,3.4,5.44,5.1,8.16a.37.37,0,0,1,0,.52.42.42,0,0,1-.12.08l-6.1,3.81Zm.86-9.2a.13.13,0,0,0-.05-.1L51,11.82c-.11-.16-.23-.14-.38,0l-3,1.86a.27.27,0,0,0-.15.35.22.22,0,0,0,.05.08c.29.44.57.89.85,1.35a.25.25,0,0,0,.33.13.18.18,0,0,0,.07-.05l3-1.86a.32.32,0,0,0,.17-.3Z" transform="translate(-1.53 -4.48)"/><path class="cls-8" d="M14.44,39.11c.06.25-.07.39-.27.51L8.31,43.29c-.2.13-.29.13-.43-.09Q5.29,39,2.65,34.84c-.14-.22-.11-.32.11-.46,2-1.23,4-2.46,5.92-3.71.42-.26.49-.25.75.17l4.84,7.72A.73.73,0,0,1,14.44,39.11ZM9,34.22a.69.69,0,0,0-.05-.13L8,32.66c-.11-.18-.27-.13-.42,0L4.68,34.51c-.18.11-.2.25-.08.43.28.44.55.88.82,1.32a.27.27,0,0,0,.36.14l.07,0,2.94-1.84A.3.3,0,0,0,9,34.22Z" transform="translate(-1.53 -4.48)"/><path class="cls-6" d="M45.33,51.05a7,7,0,0,0-.83-2.54,1.09,1.09,0,0,1,.44,0h6.32a1.29,1.29,0,0,0,.48,0c.47-.18.65.1.85.46q2.89,5.31,5.82,10.61a1.19,1.19,0,0,1,.18.88.75.75,0,0,1-.75.64H50c-.18,0-.26-.06-.28-.24A19.29,19.29,0,0,0,49,57.34c-.06-.19,0-.26.21-.25H50c.23,0,.35-.09.26-.35a1.71,1.71,0,0,0-.09-.3c-.4-.8-.74-1.62-1.09-2.43s-.72-1.6-1-2.42c-.07-.19-.14-.35-.4-.38s-.35-.14-.06-.3.09-.21.06-.33a7.61,7.61,0,0,0-.43-1.12c-.07-.15-.2-.16-.33-.16H45.54c-.26,0-.37.11-.28.37s.13.49.22.72A.75.75,0,0,1,45.33,51.05Zm6.63,6h.72c.55,0,.62-.1.37-.61s-.45-.75-.63-1.15c-.59-1.29-1.34-2.5-1.92-3.8a.47.47,0,0,0-.49-.31H48.77c-.47,0-.55.11-.37.55s.48,1.09.73,1.63c.42.92.9,1.81,1.25,2.76.28.75.7,1.1,1.5.93ZM49,50.91h.76c.24,0,.33-.1.25-.35a3.14,3.14,0,0,0-.59-1.2c-.23-.26-.66-.07-1-.1a1.55,1.55,0,0,0-.43,0c-.52,0-.58.09-.4.59l.06.14c.39.89.39.89,1.35.9Z" transform="translate(-1.53 -4.48)"/><path class="cls-9" d="M62.07,41.75c.54.63,1.09,1.25,1.61,1.89.24.29.42.33.7,0s.66-.58,1-.86.24-.3,0-.52c-.7-.8-1.38-1.62-2.07-2.43-.21-.25-.4-.53-.78-.16L63,37.9l2.4,2.8c.71.83,1.41,1.67,2.13,2.49.22.25.2.42,0,.63L60.25,50c-.26.23-.44.26-.69,0-1.48-1.75-3-3.48-4.46-5.22-.34-.4-.34-.4.06-.74.88-.76,1.77-1.5,2.64-2.26a.6.6,0,0,1,.65-.14c.74.22,1.49.42,2.23.63S61.63,42.4,62.07,41.75Z" transform="translate(-1.53 -4.48)"/><path class="cls-2" d="M34.22,46.39H17.14c-.61,0-.66,0-.67-.65V29.9a.49.49,0,0,1,.37-.57h0a6,6,0,0,1,1-.36V44.76c0,.75.1.85.85.85H49.66c.69,0,.8-.11.8-.82V39.87c0-.34,0-.47.41-.32s.81.07,1,.34.06.7.06,1v4.8c0,.59,0,.65-.63.65Z" transform="translate(-1.53 -4.48)"/><path class="cls-10" d="M17.86,17c0,.15-.09.19-.2.23a16.55,16.55,0,0,1-2.55.93,10.82,10.82,0,0,0-3.64,1.57c-1,.67-1,.67-1.22-.5C9.82,16.62,9.39,14,9,11.45c0-.24,0-.31.24-.35l7-1.17c.29,0,.48,0,.54.34.36,2.19.73,4.39,1.1,6.58Zm-7.15-4.76c.09.52.18,1.07.27,1.62a.24.24,0,0,0,.25.23h.06l3.5-.59c.2,0,.26-.14.22-.34-.09-.52-.18-1-.26-1.57,0-.2-.13-.27-.33-.23L11,11.9C10.83,11.93,10.68,12,10.71,12.22Z" transform="translate(-1.53 -4.48)"/><path class="cls-10" d="M19,75.33H16.23c-.3,0-.33-.08-.25-.35.8-2.59,1.6-5.19,2.39-7.78.06-.23.15-.29.39-.22,1.7.54,3.4,1.06,5.11,1.58.19,0,.25.13.19.33-.64,2.06-1.28,4.12-1.9,6.19-.07.22-.19.24-.38.24Z" transform="translate(-1.53 -4.48)"/><path class="cls-10" d="M49,75.33H46.27c-.25,0-.34-.06-.4-.32-.47-2-1-4-1.45-6.06-.06-.24,0-.32.23-.37l5.16-1.23c.26-.06.34,0,.4.25.57,2.45,1.16,4.9,1.75,7.34.07.3,0,.4-.3.39C50.74,75.32,49.85,75.33,49,75.33Z" transform="translate(-1.53 -4.48)"/><path class="cls-5" d="M27.2,25.11a13.38,13.38,0,0,1,1.35-.58.81.81,0,0,0,.51-.7c0-.24.11-.33.34-.32H50.19a9.77,9.77,0,0,1,1.71,0,2.36,2.36,0,0,1,1.87,2.31v2.6c0,.23-.05.3-.29.22l-1-.32a.34.34,0,0,1-.29-.38h0v-2.2a.6.6,0,0,0-.53-.65H27.2Z" transform="translate(-1.53 -4.48)"/><path class="cls-2" d="M61.49,40.81a11.61,11.61,0,0,0-3-1.52,11.37,11.37,0,0,0-4.29-.58c-.24,0-.31,0-.23-.27.84-2.59,1.56-5.2,2.16-7.85,0-.21.14-.26.35-.27a11.75,11.75,0,0,1,7.05,1.92.37.37,0,0,1,.19.5h0C63,35.41,62.24,38.11,61.49,40.81ZM63.25,33c.07-.23-.06-.31-.19-.38a11,11,0,0,0-6.4-1.78.4.4,0,0,0-.41.34c-.18.69-.36,1.39-.57,2.08-.09.3,0,.42.31.39a8.49,8.49,0,0,1,1.95.11,11.32,11.32,0,0,1,4.23,1.59c.18.12.36.23.45-.08.22-.77.43-1.54.63-2.27Zm-7.76,4.79h-.68c-.08,0-.22,0-.2.11s.11.07.19.07a10.86,10.86,0,0,1,6.25,1.7c.08,0,.2.19.27.07s-.1-.18-.19-.23a11,11,0,0,0-5.64-1.72Zm-.71-.86c.1.19.18.17.26.16a10.84,10.84,0,0,1,6.24,1.71l.13.08a.11.11,0,0,0,.15,0v-.13a1.33,1.33,0,0,0-.19-.14,11.57,11.57,0,0,0-4.93-1.67,8.37,8.37,0,0,0-1.66,0Zm.7-2.52h.22A10.91,10.91,0,0,1,62,36.11c.08,0,.18.2.26,0s-.1-.17-.18-.22a10.92,10.92,0,0,0-6.24-1.72c-.11,0-.25,0-.34.16Zm-.27.75a.36.36,0,0,0,.4.16,10.38,10.38,0,0,1,4.4.82,11.09,11.09,0,0,1,1.81.94c.06,0,.13.12.19,0s0-.12-.08-.16l-.17-.11A11.36,11.36,0,0,0,57,35.11a8.73,8.73,0,0,0-1.77,0ZM61.77,38c-.68-1.12-5.71-2.5-6.83-1.81A11.6,11.6,0,0,1,61.77,38Z" transform="translate(-1.53 -4.48)"/><path class="cls-2" d="M20.72,26c-.69-1.89-1.43-3.71-2.21-5.51-.33-.75-.66-1.51-1-2.25a.3.3,0,0,1,.06-.42h0A11.81,11.81,0,0,1,24.36,15a.37.37,0,0,1,.45.27h0c1,2.47,2,4.94,3.06,7.41.07.15.23.34-.13.36A11.75,11.75,0,0,0,20.72,26Zm4.8-8a.21.21,0,0,0-.07-.19c-.28-.68-.57-1.35-.84-2a.37.37,0,0,0-.45-.27h0a14.58,14.58,0,0,0-1.73.31,10.64,10.64,0,0,0-4.34,2.2c-.12.11-.29.2-.2.42.31.74.61,1.48.92,2.21.08.2.22.22.38.09s.32-.28.49-.41a11,11,0,0,1,5.44-2.1c.17,0,.36,0,.4-.24Zm-5.14,6h.07a.56.56,0,0,0,.17-.09,10.74,10.74,0,0,1,6-2.49c.09,0,.24,0,.23-.13s-.16-.08-.24-.07a11,11,0,0,0-6,2.48c-.12.16-.26.21-.23.41Zm5.74-4.34c0-.12-.13-.11-.22-.09a5.05,5.05,0,0,0-.95.13,10.9,10.9,0,0,0-5.12,2.36c-.08.07-.26.14-.15.26s.2,0,.28-.12A10.15,10.15,0,0,1,21.78,21a11.6,11.6,0,0,1,4.07-1.2c.13,0,.22.07.27-.06Zm-.36-.85a3,3,0,0,0-1.32.09,10.6,10.6,0,0,0-5,2.31c-.08.07-.26.15-.18.27s.21,0,.28-.1a10.71,10.71,0,0,1,5.08-2.33,3.67,3.67,0,0,0,1.14-.18Zm.4,1.59c-.45.08-.95.15-1.44.27a10.43,10.43,0,0,0-4.55,2.25c-.08.07-.22.13-.13.25s.16,0,.22-.07a10.9,10.9,0,0,1,6-2.5c.09,0,.26,0,.25-.11s-.2,0-.35,0Zm.74,1.68c-.38.06-.82.12-1.25.22a11.25,11.25,0,0,0-2.26.73,9.59,9.59,0,0,0-2.52,1.59c-.06.06-.19.11-.11.22s.16,0,.22-.06a11,11,0,0,1,6-2.5c.08,0,.23,0,.22-.1s-.16,0-.3-.07Z" transform="translate(-1.53 -4.48)"/><path class="cls-2" d="M55.77,30.88c0-.26-.18-.33-.33-.43a10.62,10.62,0,0,0-4.91-1.64c-.45,0-.9,0-1.36-.06a.36.36,0,0,0-.43.29.09.09,0,0,0,0,.05c-.17.71-.37,1.41-.58,2.12-.07.27,0,.36.29.36a10.72,10.72,0,0,1,6.25,1.71c.17.11.17.1.45,0a8.68,8.68,0,0,1-.32,1.24c-.34,1.27-.69,2.54-1,3.81,0,.16-.06.27-.27.14a11.55,11.55,0,0,0-7.14-1.86h-.09c.51-1.86,1-3.72,1.52-5.58.23-.82.47-1.64.68-2.46.06-.23.14-.32.39-.33a11.74,11.74,0,0,1,6.64,1.67C56.06,30.24,56.06,30.24,55.77,30.88Zm-8.06,2.3h.16a11,11,0,0,1,6.39,1.75c.06,0,.14.12.2,0s0-.14-.08-.19l-.17-.11A11,11,0,0,0,48,33c-.09.07-.2,0-.25.22Zm-.24.84v.06h.44a11.06,11.06,0,0,1,5.9,1.64c.1.07.25.29.35.12s-.15-.21-.26-.28a10.88,10.88,0,0,0-6.21-1.67s-.18,0-.22.13Zm1.36-1.87h-.56c-.09,0-.26-.06-.26.09s.16.08.24.09h.16a11.12,11.12,0,0,1,6,1.65c.1.07.24.28.35.11s-.15-.21-.27-.28a11,11,0,0,0-5.66-1.7ZM47,35.78a.06.06,0,0,0,.06.06h.36a10.79,10.79,0,0,1,6,1.68c.08,0,.19.23.29.09s-.12-.17-.19-.25h-.07a11,11,0,0,0-6.25-1.66C47.1,35.67,47,35.65,47,35.78Zm.24-.87c.14.12.3.06.43.06a11,11,0,0,1,6,1.68c.08,0,.19.23.29.09s-.12-.17-.19-.25a1,1,0,0,0-.17-.1,11,11,0,0,0-6.12-1.6c-.08,0-.19,0-.26.12Z" transform="translate(-1.53 -4.48)"/><path class="cls-2" d="M18.41,21,20.51,26a11.83,11.83,0,0,0-7.09,3l-1.33-3.23c-.62-1.49-1.24-3-1.88-4.48a.39.39,0,0,1,.13-.54h0A11.84,11.84,0,0,1,16.84,18c.32,0,.44.09.48.36v.19a1.22,1.22,0,0,0-.27,0,10.93,10.93,0,0,0-6.2,2.57.32.32,0,0,0-.11.44h0c.29.69.58,1.38.86,2.07.11.28.24.29.47.1a10.63,10.63,0,0,1,6-2.48c.17,0,.28-.06.28-.25Zm.36,2.53a9.62,9.62,0,0,0-3.2.86A11.32,11.32,0,0,0,12.9,26c-.07.06-.23.11-.11.24s.16,0,.23-.09l.12-.1a11,11,0,0,1,5.62-2.37c.16,0,.45.09.44-.12s-.29,0-.43-.07Zm.5.83a11,11,0,0,0-6,2.54c-.07.05-.2.13-.12.21s.2,0,.29-.1a10.74,10.74,0,0,1,5.88-2.44c.1,0,.28,0,.27-.14s-.18,0-.27-.07Zm-.7-2.46c-.11-.18-.27-.09-.4-.08a10.94,10.94,0,0,0-5.81,2.42c-.11.08-.37.16-.23.33s.23-.1.34-.18A10.73,10.73,0,0,1,18.26,22c.11,0,.24,0,.31-.12Zm1.33,3.39c-.08-.13-.21-.08-.32-.07a11,11,0,0,0-6,2.51l-.09.08s-.08.12,0,.17.1,0,.13,0a.9.9,0,0,0,.19-.15A12,12,0,0,1,17,26a10,10,0,0,1,2.64-.59c.07,0,.2,0,.24-.13ZM19,22.74a.6.6,0,0,0-.49-.09,11,11,0,0,0-5.9,2.5l-.12.11a.1.1,0,0,0,0,.14c.05.06.1,0,.14,0l.22-.18a11.11,11.11,0,0,1,5-2.29A6.64,6.64,0,0,0,19,22.74Z" transform="translate(-1.53 -4.48)"/><path class="cls-6" d="M21.29,27.5c.92-.38,1.83-.76,2.75-1.12a.9.9,0,0,1,.4,0H49.62a.75.75,0,0,1,.8.69.74.74,0,0,1-.1.44c-.07.16-.2.1-.31.1H21.31Zm27.83-.37a2.39,2.39,0,0,0,.22.23.47.47,0,0,0,.65-.12l0,0a.44.44,0,0,0-.12-.61l-.07,0c-.32-.19-.52.06-.73.23-.18-.26-.41-.4-.71-.21-.14.09-.2.13-.35,0a.41.41,0,0,0-.59.05l0,0a.44.44,0,0,0,0,.62.46.46,0,0,0,.63.1h0c.08,0,.11-.18.26-.06.29.29.55.16.79-.17Z" transform="translate(-1.53 -4.48)"/><path class="cls-2" d="M24.62,26.11a6.54,6.54,0,0,1,3-.79H51.24c.72,0,.75,0,.75.73v1.84c0,.29-.09.33-.34.28a2.85,2.85,0,0,0-.71-.12c-.39,0-.43-.18-.4-.49s0-.61,0-.91a.51.51,0,0,0-.47-.55H24.62Z" transform="translate(-1.53 -4.48)"/><path class="cls-6" d="M35.54,55.6c.23,0,.36.07.32.32h0a1.72,1.72,0,0,0,.1.94c.17.25.59.09.9.12a1,1,0,0,1,.4.17,7.43,7.43,0,0,1,2.36,2.5c.28.42.54.85.83,1.33H28.77a.85.85,0,0,1,.93-.75h6.84c.69,0,.81-.16.53-.78s-.52-1.14-.76-1.71a.5.5,0,0,0-.55-.36H32.55a2,2,0,0,1,1-.37h1.6c.28,0,.38-.09.39-.37a4.79,4.79,0,0,1,0-1.07Z" transform="translate(-1.53 -4.48)"/><path class="cls-11" d="M48.32,31.36c.21-.77.41-1.49.6-2.21,0-.16.13-.2.28-.2a11.06,11.06,0,0,1,6.16,1.67.31.31,0,0,1,.14.4c-.19.62-.36,1.25-.52,1.88,0,.2-.09.28-.31.14a10.91,10.91,0,0,0-6.11-1.68Z" transform="translate(-1.53 -4.48)"/><path class="cls-6" d="M37,52.55c0-.34-.08-.68-.1-1s-.09-.35-.35-.35H35.09c-.24,0-.34.09-.33.33s0,.51,0,.76.08.29-.1.28-.08-.17-.08-.26v-.8c0-.27-.09-.31-.31-.31H32.79c-.24,0-.33.1-.33.34a4.3,4.3,0,0,1-.05.79c0,.26,0,.28-.24.27s-.19-.14-.18-.27a3.12,3.12,0,0,1,.07-.68c.07-.23-.05-.47-.4-.45s-.75,0-1.12,0c-.19,0-.31-.05-.29-.3h1c.31,0,.36-.1.38-.35a5.61,5.61,0,0,1,.08-.95c.08-.32-.06-.34-.3-.34H30a.28.28,0,0,0-.31.23v0c0,.25-.1.49-.12.75s-.12.36-.37.34c-.08-.11,0-.24,0-.34a2.88,2.88,0,0,0-.06-1.54c0-.22,0-.27.25-.27H40.14c.17,0,.32,0,.25.23s.19.51-.24.55-.64-.15-.82.12,0,.55.05.82-.19.48-.24.73c-.08.43-.41.23-.64.25a7,7,0,0,1-1.12,0c-.34,0-.42.14-.38.43a3.7,3.7,0,0,1,0,.94Zm-1.2-1.67h.64a.34.34,0,0,0,.38-.4c0-.29,0-.63-.06-.95s-.12-.3-.33-.29H35.26c-.54,0-.54,0-.54.56,0,1.08,0,1.08,1.09,1.08Zm2.31,0h.76c.2,0,.3-.09.28-.29s-.08-.66-.11-1-.13-.38-.4-.36-.69,0-1,0c-.64,0-.64,0-.57.65.08,1,.08,1,1.07,1Zm-4.55,0h.68c.23,0,.36-.09.36-.35v-1c0-.31-.11-.35-.36-.34h-1c-.61,0-.61,0-.64.61,0,1,0,1,1,1Z" transform="translate(-1.53 -4.48)"/><path class="cls-11" d="M29.37,60.11a8.12,8.12,0,0,1,2.3-2.26,1.16,1.16,0,0,1,.6-.17h3.39a.46.46,0,0,1,.51.34c.24.58.51,1.14.76,1.71.1.21.14.39-.2.39Z" transform="translate(-1.53 -4.48)"/><path class="cls-7" d="M50.28,23a.63.63,0,0,1-.58-.32c-1.62-2.6-3.25-5.19-4.86-7.79A.65.65,0,0,1,45,14a.67.67,0,0,1,.23-.1c.2-.06.21.12.27.21l2.48,4,2.66,4.26c.08.13.28.28.19.4A.84.84,0,0,1,50.28,23Z" transform="translate(-1.53 -4.48)"/><path class="cls-9" d="M7.21,43.86a.6.6,0,0,1-.56-.38L2.3,36.55l-.49-.77a.62.62,0,0,1-.05-.68c.23-.41.56-.41.81,0q2.52,4,5.06,8.09c.07.12.27.26.17.4A.78.78,0,0,1,7.21,43.86Z" transform="translate(-1.53 -4.48)"/><path class="cls-10" d="M9.62,21.52A.59.59,0,0,1,9.31,21l-1.5-9a.63.63,0,0,1,.43-.77l.15,0c.24-.05.34,0,.38.27.36,2.2.73,4.39,1.09,6.59.11.61.21,1.23.31,1.85,0,.22.06.38-.21.51S9.51,20.94,9.62,21.52Z" transform="translate(-1.53 -4.48)"/><path class="cls-11" d="M54.17,38.89a11.42,11.42,0,0,1,7.12,2,1.19,1.19,0,0,1-1.4.41c-1.73-.53-3.48-1-5.23-1.45-.28-.07-.43-.17-.39-.48A1.58,1.58,0,0,0,54.17,38.89Z" transform="translate(-1.53 -4.48)"/><path class="cls-11" d="M13.64,29.11a11.55,11.55,0,0,1,6.81-2.89.71.71,0,0,0,0,.29c.19.63-.29.73-.69.9-1.52.63-3.06,1.22-4.56,1.9A1.2,1.2,0,0,1,13.64,29.11Z" transform="translate(-1.53 -4.48)"/><path class="cls-11" d="M21.05,26a11.58,11.58,0,0,1,6.86-2.78,1.2,1.2,0,0,1-.85,1.19c-1.7.64-3.37,1.37-5,2.08-.24.1-.39.12-.55-.14A2,2,0,0,0,21.05,26Z" transform="translate(-1.53 -4.48)"/><path class="cls-11" d="M53.55,38.74c-.11.1-.25.16-.29.26-.19.5-.53.34-.89.24L47,37.76a1.3,1.3,0,0,1-.6-.86c0-.17.17-.1.26-.1a11.38,11.38,0,0,1,5.24,1A10.19,10.19,0,0,1,53.55,38.74Z" transform="translate(-1.53 -4.48)"/><path class="cls-12" d="M63.49,32c.64-.06.91.26.75.82-.41,1.53-.84,3-1.26,4.58-.37,1.37-.75,2.74-1.13,4.12-.15.55-.38.69-.93.54l-7.12-2c-.26-.07-.35-.16-.26-.43s.16-.53.25-.81a.6.6,0,0,1,.3.66.33.33,0,0,0,.23.41h.06l6,1.64a.55.55,0,0,0,.48-.09A2.2,2.2,0,0,0,62,40c.63-2.43,1.31-4.85,2-7.27A.57.57,0,0,0,63.49,32Z" transform="translate(-1.53 -4.48)"/><path class="cls-8" d="M24.14,14.82c.59-.42.92-.34,1.18.26,1.15,2.77,2.3,5.53,3.44,8.3.22.53.11.76-.4,1-2.26.95-4.53,1.88-6.78,2.83-.28.12-.44.12-.52-.21a3.38,3.38,0,0,0-.18-.44c0-.1-.14-.21,0-.29s.22,0,.32.06.08,0,.09.07c.27.6.66.33,1.05.17,1.71-.71,3.41-1.42,5.13-2.12a.91.91,0,0,0,.55-.6,2,2,0,0,0-.11-1.68C27,20,26.05,17.73,25.13,15.5,24.91,15,24.8,14.59,24.14,14.82Z" transform="translate(-1.53 -4.48)"/><path class="cls-5" d="M34.5,62H28.58c-.12,0-.35.1-.35-.11a.47.47,0,0,1,.35-.44H40.45c.27,0,.33.23.34.41s-.22.14-.34.14Z" transform="translate(-1.53 -4.48)"/><path class="cls-6" d="M65.38,42.63l-.21.11-1,.83c-.14.13-.22.11-.34,0-.54-.65-1.09-1.28-1.63-1.92-.05-.06-.13-.15-.11-.2.16-.55.14-1.2.72-1.57.1-.06.15-.07.23,0l2.18,2.55A1.56,1.56,0,0,1,65.38,42.63Z" transform="translate(-1.53 -4.48)"/><path class="cls-12" d="M53.5,39.16c-.18.85-.18.85-1,.63l-6.23-1.68c-.57-.16-.71-.4-.56-1,.8-2.87,1.59-5.75,2.38-8.62.16-.59.39-.7,1-.48-.83-.13-.81.49-1,1l-2,7.31A1.53,1.53,0,0,0,47.07,38c1.84.5,3.67,1,5.5,1.52.36.1.62.12.74-.3l.11-.11Z" transform="translate(-1.53 -4.48)"/><path class="cls-5" d="M14.24,61.44h4.43c.2,0,.4,0,.4.28s-.22.27-.41.27H10.31a1.07,1.07,0,0,1-.71-.2c-.09-.07-.21-.17-.17-.3s.19-.06.29-.06h4.52Z" transform="translate(-1.53 -4.48)"/><path class="cls-8" d="M20.6,26.49l.08.07c.41.81.41.82-.41,1.16l-6,2.49a.62.62,0,0,1-.86-.17.85.85,0,0,1-.09-.22L9.84,21.45c-.21-.51-.05-.8.49-.94,0,.13-.14.19-.23.25a.39.39,0,0,0-.1.5c1.07,2.57,2.13,5.14,3.21,7.71a1.56,1.56,0,0,0,1.68.64c1.76-.73,3.51-1.47,5.28-2.18.36-.14.59-.28.42-.71C20.56,26.67,20.59,26.6,20.6,26.49Z" transform="translate(-1.53 -4.48)"/><path class="cls-5" d="M54.18,61.44h4c.12,0,.3-.08.34.11s-.11.22-.23.29a1.09,1.09,0,0,1-.52.16H50.21c-.14,0-.31.07-.35-.16s-.09-.41.28-.4C51.49,61.45,52.83,61.44,54.18,61.44Z" transform="translate(-1.53 -4.48)"/><path class="cls-9" d="M57.88,41.47l-3,2.62c-.12.1-.19.08-.3,0a.65.65,0,0,1-.2-.91.64.64,0,0,1,.2-.2c.6-.52,1.22-1,1.81-1.56a.62.62,0,0,1,.71-.15A7.44,7.44,0,0,0,57.88,41.47Z" transform="translate(-1.53 -4.48)"/><path class="cls-2" d="M52.44,9.6c.26-.18.4-.09.55.14,1.63,2.63,3.28,5.25,4.92,7.88.06.09.15.19.14.27a.33.33,0,0,1-.21.22c-.12,0-.15-.12-.2-.2L54,12.1Z" transform="translate(-1.53 -4.48)"/><path class="cls-2" d="M67.88,43.8c.18.23.16.37,0,.55l-7.11,6.06c-.08.07-.15.22-.29.14s-.23-.2,0-.37l3.07-2.61Z" transform="translate(-1.53 -4.48)"/><path class="cls-2" d="M14.4,38.38l-5-7.93c.24-.2.38-.13.53.11l4.37,7A1.07,1.07,0,0,1,14.4,38.38Z" transform="translate(-1.53 -4.48)"/><path class="cls-11" d="M15.75,55.18c.18-.33.33-.59.46-.86a.26.26,0,0,1,.26-.15h2.24c.18,0,.23,0,.16.23-.3.78-.29.78-1.13.78Z" transform="translate(-1.53 -4.48)"/><path class="cls-2" d="M18.41,16.75c0,.19-.12.22-.24.24s-.13-.12-.14-.2c-.37-2.18-.73-4.35-1.09-6.53,0-.08-.16-.25.08-.26s.27,0,.3.22c.08.55.19,1.1.28,1.65.26,1.59.52,3.17.79,4.76A.5.5,0,0,0,18.41,16.75Z" transform="translate(-1.53 -4.48)"/><path class="cls-11" d="M19.76,52.78c-.14.32-.26.57-.36.83a.23.23,0,0,1-.24.16H16.52c.17-.32.32-.58.45-.85a.24.24,0,0,1,.26-.13Z" transform="translate(-1.53 -4.48)"/><path class="cls-11" d="M38.26,53.11c-.11-.28,0-.34.32-.34.73,0,.73,0,.91.73.12.46.24.93.34,1.39,0,.11.14.3-.11.28s-.39.13-.42-.19-.08-.53-.11-.79S39.1,54,38.93,54c-.59,0-.59,0-.65-.61C38.27,53.28,38.27,53.21,38.26,53.11Z" transform="translate(-1.53 -4.48)"/><path class="cls-11" d="M34.06,55.18h-.24c-.74,0-.73,0-.68-.75,0-.18,0-.27.25-.26h1.4c.16,0,.23,0,.25.22.09.79.09.79-.7.79Z" transform="translate(-1.53 -4.48)"/><path class="cls-11" d="M31.24,55.18H31c-.7,0-.8-.15-.59-.85a.21.21,0,0,1,.23-.16h1.43c.16,0,.22,0,.22.22C32.28,55.18,32.29,55.18,31.24,55.18Z" transform="translate(-1.53 -4.48)"/><path class="cls-11" d="M39.19,52.37H37.6c-.26,0-.23-.15-.25-.31-.09-.69-.09-.69.61-.69h.16c.32,0,.75-.15,1,.06S39.16,52,39.19,52.37Z" transform="translate(-1.53 -4.48)"/><path class="cls-11" d="M34.33,55.59a3,3,0,0,0,.6,0c.3,0,.38.07.37.37,0,.62,0,.62-.62.62h-1c-.33,0-.36-.1-.36-.34v-.32c0-.11,0-.37.33-.34A5.15,5.15,0,0,0,34.33,55.59Z" transform="translate(-1.53 -4.48)"/><path class="cls-11" d="M17.56,56.57c.15-.32.27-.56.38-.82a.22.22,0,0,1,.27-.16H20c-.12.3-.24.57-.34.84s-.13.14-.24.14Z" transform="translate(-1.53 -4.48)"/><path class="cls-11" d="M15,56.57c.17-.33.32-.6.46-.88a.23.23,0,0,1,.24-.1h1.77c-.14.29-.28.55-.39.81a.27.27,0,0,1-.27.18Z" transform="translate(-1.53 -4.48)"/><path class="cls-11" d="M33.52,52.37h-.2c-.68,0-.67,0-.65-.67,0-.25.06-.36.34-.34a11.22,11.22,0,0,0,1.16,0c.19,0,.24.06.25.25C34.45,52.37,34.46,52.37,33.52,52.37Z" transform="translate(-1.53 -4.48)"/><path class="cls-11" d="M35.88,52.37H35.4c-.34.05-.42-.09-.41-.41,0-.59,0-.59.6-.59H36c.7,0,.82.13.73.84,0,.15-.09.16-.21.16Z" transform="translate(-1.53 -4.48)"/><path class="cls-11" d="M19.5,51.37l-.4.84a.22.22,0,0,1-.23.16h-1.6l.46-.89c.07-.14.19-.11.3-.11Z" transform="translate(-1.53 -4.48)"/><path class="cls-4" d="M32.47,56.24c.21.08.57-.11.7.29a.29.29,0,0,1-.11.4L33,57a8,8,0,0,0-1.33.61c-.15.08-.25.1-.26-.11v-.08c-.22-.9-.15-1,.79-1.12Z" transform="translate(-1.53 -4.48)"/><path class="cls-4" d="M37.75,57.23a12.74,12.74,0,0,0-1.54-.84c-.16-.06-.16-.19-.13-.33s.06-.28.26-.3a2.68,2.68,0,0,1,1.64.35.18.18,0,0,1,.1.23,0,0,0,0,1,0,0C38,56.62,37.85,56.91,37.75,57.23Z" transform="translate(-1.53 -4.48)"/><path class="cls-11" d="M36.56,53.76a2.53,2.53,0,0,0-.55,0c-.3,0-.39-.06-.39-.37,0-.62,0-.62.61-.62h.88c.29,0,.3.09.33.31.07.67.08.67-.6.67Z" transform="translate(-1.53 -4.48)"/><path class="cls-11" d="M31.38,53.76h-.24c-.69,0-.69,0-.59-.7,0-.2.08-.29.31-.28h1.23c.19,0,.28,0,.27.25,0,.73,0,.73-.75.73Z" transform="translate(-1.53 -4.48)"/><path class="cls-11" d="M34.11,53.76h-.28c-.64,0-.63,0-.63-.63,0-.27.07-.37.36-.35s.76,0,1.15,0c.2,0,.3,0,.31.27,0,.72,0,.71-.67.71Z" transform="translate(-1.53 -4.48)"/><path class="cls-11" d="M30.67,50.45h-.12c-.74,0-.73,0-.61-.75,0-.2.1-.27.3-.26h1.12c.17,0,.22,0,.21.23C31.53,50.45,31.54,50.45,30.67,50.45Z" transform="translate(-1.53 -4.48)"/><path class="cls-11" d="M36.58,54.17h.52c.43,0,.49.07.46.51,0,.07,0,.17-.07.16-.53,0-.94.43-1.5.35-.23,0-.31-.06-.32-.31,0-.71,0-.71.67-.71Z" transform="translate(-1.53 -4.48)"/><path class="cls-7" d="M23.16,66.79l-.31,1c-.05.14-.12.19-.27.14h0c-1-.33-.82-.1-.58-1a.21.21,0,0,0,0-.11c.05-.4.24-.53.63-.33a1.66,1.66,0,0,0,.38.11C23.14,66.62,23.24,66.67,23.16,66.79Z" transform="translate(-1.53 -4.48)"/><path class="cls-7" d="M46.76,67.72c0,.07,0,.14-.06.16l-.85.19c-.12,0-.15-.08-.18-.16s-.07-.29-.1-.43c-.19-.83-.17-.86.7-1,.12,0,.2,0,.23.13C46.58,67,46.67,67.36,46.76,67.72Z" transform="translate(-1.53 -4.48)"/><path class="cls-11" d="M21.91,51.37v.07c-.22.93-.22.93-1.18.93h-.64c.13-.29.24-.54.34-.79a.3.3,0,0,1,.33-.22C21.15,51.38,21.52,51.37,21.91,51.37Z" transform="translate(-1.53 -4.48)"/><path class="cls-6" d="M37.63,53.11c0-.11-.08-.26.15-.28s.24.08.25.26.07.6.09.91.15.48.5.44c.12,0,.32-.1.37.11a2.93,2.93,0,0,1,.1.78c0,.1-.15,0-.22,0a2.35,2.35,0,0,0-.94-.42c-.17,0-.15-.16-.17-.27C37.72,54.11,37.68,53.6,37.63,53.11Z" transform="translate(-1.53 -4.48)"/><path class="cls-11" d="M31.08,52.37c-.19,0-.53.12-.63-.07a1.89,1.89,0,0,1,0-.82c0-.14.12-.11.21-.11h1c.17,0,.25.06.21.23h0C31.85,52.37,31.85,52.37,31.08,52.37Z" transform="translate(-1.53 -4.48)"/><path class="cls-7" d="M47.22,66.36a.35.35,0,0,1,.16-.11c.72-.28.76-.27.94.48v.08c.15.64.15.63-.49.8-.26.07-.36,0-.39-.24A9.64,9.64,0,0,0,47.22,66.36Z" transform="translate(-1.53 -4.48)"/><path class="cls-7" d="M21.38,66.23c-.11.37-.22.73-.34,1.1,0,.1-.1.09-.19.09-.66-.06-.78-.23-.59-.87V66.4c.09-.18,0-.51.26-.53a2,2,0,0,1,.76.2C21.39,66.11,21.4,66.16,21.38,66.23Z" transform="translate(-1.53 -4.48)"/><path class="cls-11" d="M21.05,54.17a.33.33,0,0,1,0,.14c-.25.91-.43,1-1.37.88-.17,0-.16-.1-.11-.21s.19-.43.28-.66a.24.24,0,0,1,.24-.15Z" transform="translate(-1.53 -4.48)"/><path class="cls-7" d="M19.71,65.74c-.12.36-.21.74-.35,1.09s-.25,0-.37,0c-.38,0-.49-.22-.31-.57a2.81,2.81,0,0,0,.16-.49.46.46,0,0,1,.8-.22A.2.2,0,0,1,19.71,65.74Z" transform="translate(-1.53 -4.48)"/><path class="cls-7" d="M49.39,67.24c-.14.05-.18-.06-.2-.16a6.17,6.17,0,0,0-.19-.74c-.12-.34,0-.51.34-.57s.43-.06.45.27a3.53,3.53,0,0,0,.13.54C50,67.11,49.92,67.22,49.39,67.24Z" transform="translate(-1.53 -4.48)"/><path class="cls-11" d="M45.67,50.25c-.37-.81-.37-.81.51-.81h0c.78,0,.78,0,1,.73,0,.08.12.18,0,.25a.27.27,0,0,1-.3,0,2.42,2.42,0,0,0-.42-.29C46.29,50,46.1,50,45.67,50.25Z" transform="translate(-1.53 -4.48)"/><path class="cls-4" d="M23.7,51.11c-.11.19.06.65-.29.65s-.75,0-.86-.37a1.08,1.08,0,0,1,.69-1C23.52,50.41,23.71,50.69,23.7,51.11Z" transform="translate(-1.53 -4.48)"/><path class="cls-4" d="M26.49,49.21c0,.24,0,.67-.22.72a2.37,2.37,0,0,1-.9-.24c-.06,0-.07-.07-.05-.13a1.66,1.66,0,0,1,.49-.93.33.33,0,0,1,.4,0A.64.64,0,0,1,26.49,49.21Z" transform="translate(-1.53 -4.48)"/><path class="cls-4" d="M41,48.63a1.65,1.65,0,0,1,.06-.32.41.41,0,0,1,.75-.1,1.8,1.8,0,0,1,.32.8c0,.11,0,.18-.11.2l-.31.08C41.06,49.44,41,49.4,41,48.63Z" transform="translate(-1.53 -4.48)"/><path class="cls-4" d="M28.74,48.92c-.07.22,0,.57-.26.71a1.3,1.3,0,0,1-.9-.41c0-.42.45-1,.73-1S28.74,48.57,28.74,48.92Z" transform="translate(-1.53 -4.48)"/><path class="cls-4" d="M43.24,49.11a.84.84,0,0,1,.13-.46c.17-.22.38-.3.61-.09a1.77,1.77,0,0,1,.4.93c0,.11,0,.14-.13.16l-.3.08C43.3,49.91,43.23,49.86,43.24,49.11Z" transform="translate(-1.53 -4.48)"/><path class="cls-6" d="M33,55.39c-.57.07-.6-.18-.56-.53.06-.6.1-1.19.14-1.79,0-.17,0-.27.24-.27s.18.14.18.28Z" transform="translate(-1.53 -4.48)"/><path class="cls-4" d="M45.91,51.2a.8.8,0,0,1,.09-.43.38.38,0,0,1,.5-.22l.07,0a1.78,1.78,0,0,1,.48,1c0,.11-.09.13-.16.15l-.27.06C46,52,45.91,51.93,45.91,51.2Z" transform="translate(-1.53 -4.48)"/><path class="cls-11" d="M23.06,50c0-.43.2-.6.61-.55a7.93,7.93,0,0,0,1.09,0c-.09.3-.16.55-.25.8a.25.25,0,0,1-.3.21.25.25,0,0,1-.19-.14A.8.8,0,0,0,23.06,50Z" transform="translate(-1.53 -4.48)"/><path class="cls-7" d="M44.42,68.42c-.14,0-.14-.06-.17-.15a7.19,7.19,0,0,0-.2-.8c-.12-.33,0-.46.32-.52s.31,0,.35.22.11.46.16.7C45,68.28,44.86,68.4,44.42,68.42Z" transform="translate(-1.53 -4.48)"/><path class="cls-7" d="M24.57,67.19a7.15,7.15,0,0,1-.35,1.11c-.11.23-.32,0-.49,0s-.21-.09-.16-.24c.1-.34.22-.68.31-1s.15-.14.27-.1S24.53,67,24.57,67.19Z" transform="translate(-1.53 -4.48)"/><path class="cls-11" d="M30,51.67c-.12.17.07.6-.28.58s-.69,0-.78-.36a.84.84,0,0,1,.62-.86C29.79,51.05,29.92,51.34,30,51.67Z" transform="translate(-1.53 -4.48)"/><path class="cls-6" d="M18.73,55.34c.24-.41.25-.88.65-1.23A3,3,0,0,0,19.89,53c.06-.13.09-.29.26-.22s0,.22,0,.31c-.28.69-.59,1.37-.86,2.06C19.15,55.5,19,55.31,18.73,55.34Z" transform="translate(-1.53 -4.48)"/><path class="cls-11" d="M20.11,53.76c.06-.15.11-.28.16-.39.25-.61.42-.7,1.06-.58h.14s-.29.93-.5.93S20.42,53.76,20.11,53.76Z" transform="translate(-1.53 -4.48)"/><path class="cls-4" d="M39.64,51.4c0-.41.19-.68.46-.67a.87.87,0,0,1,.58.89c-.1.38-.54.31-.81.32S39.74,51.56,39.64,51.4Z" transform="translate(-1.53 -4.48)"/><path class="cls-11" d="M50,56.57h-.45c-.72,0-.81-.09-.86-.8a.19.19,0,0,1,0-.15,1.42,1.42,0,0,1,.93.09C49.71,56,49.82,56.26,50,56.57Z" transform="translate(-1.53 -4.48)"/><path class="cls-11" d="M40.07,49.44c.12,0,.34-.09.41.07a3.08,3.08,0,0,1,.19.85c0,.13-.14.08-.22,0a.94.94,0,0,0-.57-.12c-.3,0-.19-.25-.22-.38C39.55,49.45,39.56,49.44,40.07,49.44Z" transform="translate(-1.53 -4.48)"/><path class="cls-6" d="M30.37,52.85c-.1.8-.19,1.6-.29,2.39,0,.15-.14.13-.25.13s-.14,0-.13-.14A5.82,5.82,0,0,1,30.37,52.85Z" transform="translate(-1.53 -4.48)"/><path class="cls-11" d="M49.33,55.16h-.18c-.65,0-.86-.21-.87-.86,0-.11,0-.16.13-.14s.44-.13.56.15Z" transform="translate(-1.53 -4.48)"/><path class="cls-5" d="M18.57,16.74,17.45,10h.1l1.13,6.74Z" transform="translate(-1.53 -4.48)"/><path class="cls-11" d="M30.52,55.63a12.78,12.78,0,0,0-1.37.94C29.21,55.63,29.4,55.49,30.52,55.63Z" transform="translate(-1.53 -4.48)"/><path class="cls-6" d="M35.37,52.82a14.22,14.22,0,0,1,.08,1.73v.64c0,.21.08.21-.09.2s-.14-.1-.14-.21V52.83Z" transform="translate(-1.53 -4.48)"/><path class="cls-10" d="M48.47,66c.22,0,.24,0,.26.12.09.36.17.73.26,1.08,0,.15,0,.19-.14.22s-.17,0-.2-.16c-.07-.33-.15-.67-.24-1S48.42,66,48.47,66Z" transform="translate(-1.53 -4.48)"/><path class="cls-10" d="M47.3,67.6c0,.13-.06.16-.15.19s-.15,0-.18-.1c-.09-.38-.18-.77-.28-1.15,0-.14.07-.15.15-.18a.12.12,0,0,1,.16,0s0,0,0,0C47.12,66.84,47.21,67.22,47.3,67.6Z" transform="translate(-1.53 -4.48)"/><path class="cls-10" d="M45.5,68.11c0,.09,0,.13-.15.16s-.17,0-.2-.12c-.08-.36-.17-.72-.25-1.08,0-.12,0-.21.14-.23s.16,0,.18.15Z" transform="translate(-1.53 -4.48)"/><path class="cls-10" d="M23.22,68.16c-.12,0-.25,0-.19-.23l.33-1.06a.13.13,0,0,1,.2-.13c.12.05.17.05.14.16l-.36,1.18a.1.1,0,0,1-.12.08Z" transform="translate(-1.53 -4.48)"/><path class="cls-10" d="M21.9,66.43c-.1.32-.22.69-.33,1.07,0,.12-.13.11-.22.09a.16.16,0,0,1-.1-.22l.33-1.05a.13.13,0,0,1,.19-.13C21.9,66.24,22,66.24,21.9,66.43Z" transform="translate(-1.53 -4.48)"/><path class="cls-10" d="M20.24,65.89,19.89,67c0,.11-.11.1-.19.07s-.17,0-.14-.16l.36-1.14c0-.13.12-.12.22-.09a.13.13,0,0,1,.11.16S20.25,65.88,20.24,65.89Z" transform="translate(-1.53 -4.48)"/><path class="cls-11" d="M48.69,53.76c-.2,0-.44.11-.53-.07a2.12,2.12,0,0,1-.2-.85c0-.08.29-.13.38,0A3.43,3.43,0,0,1,48.69,53.76Z" transform="translate(-1.53 -4.48)"/><path class="cls-11" d="M40.17,56.33,39.73,56l-.36-.31C40,55.47,40,55.49,40.17,56.33Z" transform="translate(-1.53 -4.48)"/><path class="cls-11" d="M47.57,51.39a2,2,0,0,1,.49.82c0,.07,0,.14-.05.15s-.2,0-.23-.14S47.64,51.66,47.57,51.39Z" transform="translate(-1.53 -4.48)"/><path class="cls-13" d="M29.06,49.11h-.14v-.52c-.05-.39-.34-.54-.69-.61C28.83,47.9,29.1,48.27,29.06,49.11Z" transform="translate(-1.53 -4.48)"/><path class="cls-13" d="M26.79,49.68h-.16c0-.21,0-.43,0-.64a.66.66,0,0,0-.58-.66c.38-.12.52.07.63.31A1.77,1.77,0,0,1,26.79,49.68Z" transform="translate(-1.53 -4.48)"/><path class="cls-11" d="M49.34,27.76h.79c.11,0,.22,0,.21.15s-.11.16-.22.13l-.79-.21Z" transform="translate(-1.53 -4.48)"/><path class="cls-13" d="M24,51h-.12c-.06-.44-.25-.75-.76-.76C23.69,50.11,23.92,50.29,24,51Z" transform="translate(-1.53 -4.48)"/><path class="cls-6" d="M27,49.11l-.17-.61h.48Z" transform="translate(-1.53 -4.48)"/><path class="cls-11" d="M55.64,31.38a3.08,3.08,0,0,1-.28,1.07A2.5,2.5,0,0,1,55.64,31.38Z" transform="translate(-1.53 -4.48)"/><path class="cls-11" d="M17.56,19,18,20l-.08.05-.43-1Z" transform="translate(-1.53 -4.48)"/><path class="cls-6" d="M20.61,55.7a2.72,2.72,0,0,1-.31.88h-.12l.37-.89Z" transform="translate(-1.53 -4.48)"/><path class="cls-13" d="M30.23,51.84h-.12a1.42,1.42,0,0,0-.13-.73l.05,0A1,1,0,0,1,30.23,51.84Z" transform="translate(-1.53 -4.48)"/><path class="cls-6" d="M42.52,48.51c.38,0,.38,0,.17.44Z" transform="translate(-1.53 -4.48)"/><path class="cls-11" d="M18.41,21h-.09a1.62,1.62,0,0,1-.23-.56l.07-.06Z" transform="translate(-1.53 -4.48)"/><path class="cls-5" d="M55.62,13.52a1,1,0,0,1,.32.56h0A1,1,0,0,1,55.62,13.52Z" transform="translate(-1.53 -4.48)"/><path class="cls-13" d="M39.45,51.27h-.09a.68.68,0,0,1,.16-.49v0Z" transform="translate(-1.53 -4.48)"/><path class="cls-6" d="M20.27,55.59a.46.46,0,0,1-.14.43A.34.34,0,0,1,20.27,55.59Z" transform="translate(-1.53 -4.48)"/><path class="cls-11" d="M18,20l.16.38-.07.06A.91.91,0,0,1,17.9,20Z" transform="translate(-1.53 -4.48)"/><path class="cls-4" d="M43.21,48.39a.27.27,0,0,1,.36-.13h0l-.32.2Z" transform="translate(-1.53 -4.48)"/><path class="cls-11" d="M17.43,18.6l.13.35-.07.06-.13-.35Z" transform="translate(-1.53 -4.48)"/><path class="cls-6" d="M20,56.43c-.08-.18,0-.26.1-.39C20.15,56.22,20.07,56.31,20,56.43Z" transform="translate(-1.53 -4.48)"/><path class="cls-4" d="M41.11,47.81a.35.35,0,0,1,.41,0l-.34.11Z" transform="translate(-1.53 -4.48)"/><path class="cls-13" d="M39.77,50.55c.09-.12.21,0,.32,0l-.27.09S39.79,50.56,39.77,50.55Z" transform="translate(-1.53 -4.48)"/><path class="cls-9" d="M17.38,56.4a.35.35,0,0,1,.17-.32h0a.38.38,0,0,1-.16.31Z" transform="translate(-1.53 -4.48)"/><path class="cls-9" d="M17.27,56.89l-.11-.09a.44.44,0,0,1,.14-.25h0Z" transform="translate(-1.53 -4.48)"/><path class="cls-5" d="M54.75,12.16a.28.28,0,0,1,.15.24h0a.31.31,0,0,1-.16-.25Z" transform="translate(-1.53 -4.48)"/><path class="cls-13" d="M29.79,50.85h-.24A.21.21,0,0,1,29.79,50.85Z" transform="translate(-1.53 -4.48)"/><path class="cls-5" d="M13,35c-.06,0-.12,0-.12-.11h0c.08,0,.09.06.1.12Z" transform="translate(-1.53 -4.48)"/><path class="cls-5" d="M55.61,13.53a.28.28,0,0,1-.16-.24h0A.28.28,0,0,1,55.61,13.53Z" transform="translate(-1.53 -4.48)"/><path class="cls-5" d="M11.62,32.81a.26.26,0,0,1-.16-.24h0a.31.31,0,0,1,.16.25Z" transform="translate(-1.53 -4.48)"/><path class="cls-4" d="M44.44,49.11v0s.1,0,.1.09v.06Z" transform="translate(-1.53 -4.48)"/><path class="cls-11" d="M17.3,18.57v-.19l.11.22-.07.06Z" transform="translate(-1.53 -4.48)"/><path class="cls-4" d="M45.92,50.38a.27.27,0,0,1,.22-.12l.06.08-.23.12Z" transform="translate(-1.53 -4.48)"/><path class="cls-4" d="M42.29,48.57a.11.11,0,0,1,.05.09s0,.09-.06,0l-.07-.11Z" transform="translate(-1.53 -4.48)"/><path class="cls-13" d="M30,51.11c0-.06-.2-.09-.1-.19s.13.06.15.14Z" transform="translate(-1.53 -4.48)"/><path class="cls-4" d="M46.14,50.26a.3.3,0,0,1,.26,0c-.06.07-.14.05-.2.06Z" transform="translate(-1.53 -4.48)"/><path class="cls-13" d="M39.59,50.69a.19.19,0,0,1,.18-.14v.06l-.18.12Z" transform="translate(-1.53 -4.48)"/><path class="cls-4" d="M43.27,48.47s-.07.14-.13.09,0-.13.07-.17Z" transform="translate(-1.53 -4.48)"/><path class="cls-5" d="M13.23,35.36l.06.09h0v-.1Z" transform="translate(-1.53 -4.48)"/><path class="cls-4" d="M41,48.11s0,.16-.11.12,0-.13,0-.19Z" transform="translate(-1.53 -4.48)"/><path class="cls-5" d="M11.87,33.2a.15.15,0,0,1,.08.16h0A.21.21,0,0,1,11.87,33.2Z" transform="translate(-1.53 -4.48)"/><path class="cls-9" d="M17.55,56.11V56h0l-.06.09Z" transform="translate(-1.53 -4.48)"/><path class="cls-5" d="M11.78,33.11A.21.21,0,0,1,11.7,33h0A.15.15,0,0,1,11.78,33.11Z" transform="translate(-1.53 -4.48)"/><path class="cls-5" d="M11.63,32.8l.08.16h0Z" transform="translate(-1.53 -4.48)"/><path class="cls-5" d="M56,14.16l.06.09h0v-.11Z" transform="translate(-1.53 -4.48)"/><path class="cls-9" d="M17.38,56.39c0,.07,0,.14-.06.18h0c0-.06,0-.13.08-.15Z" transform="translate(-1.53 -4.48)"/><path class="cls-5" d="M12,33.44l.06.09h0v-.1Z" transform="translate(-1.53 -4.48)"/><path class="cls-4" d="M45.74,50.6l.1-.14h.08l-.11.16Z" transform="translate(-1.53 -4.48)"/><path class="cls-4" d="M45.67,50.77l.07-.17.07.07-.06.17Z" transform="translate(-1.53 -4.48)"/><path class="cls-5" d="M12.67,34.48a.15.15,0,0,1,.08.16h0A.21.21,0,0,1,12.67,34.48Z" transform="translate(-1.53 -4.48)"/><path class="cls-5" d="M13.14,35.29a.21.21,0,0,1-.08-.16h0l.08.17Z" transform="translate(-1.53 -4.48)"/><path class="cls-5" d="M13.06,35.11,13,35h0l.08.15Z" transform="translate(-1.53 -4.48)"/><path class="cls-5" d="M55.38,13.11l.08.16h0Z" transform="translate(-1.53 -4.48)"/><path class="cls-5" d="M55.06,12.64l.06.09h0v-.1Z" transform="translate(-1.53 -4.48)"/><path class="cls-5" d="M55,12.57l-.08-.15h0l.08.16Z" transform="translate(-1.53 -4.48)"/><path class="cls-5" d="M54.73,12.17l-.06-.09h0v.11Z" transform="translate(-1.53 -4.48)"/><path class="cls-5" d="M12.58,34.41l-.06-.1h0v.11Z" transform="translate(-1.53 -4.48)"/><path class="cls-9" d="M17.71,55.69l-.05.13h0a.09.09,0,0,1,.05-.12h0Z" transform="translate(-1.53 -4.48)"/><path class="cls-9" d="M17.7,55.67h0v0Z" transform="translate(-1.53 -4.48)"/><path class="cls-5" d="M12.75,34.64Z" transform="translate(-1.53 -4.48)"/><path class="cls-6" d="M20.55,55.65h.08v.08Z" transform="translate(-1.53 -4.48)"/><path class="cls-5" d="M13.22,35.37l-.08-.08h0Z" transform="translate(-1.53 -4.48)"/><path class="cls-5" d="M12.59,34.4l.08.08h0Z" transform="translate(-1.53 -4.48)"/><path class="cls-5" d="M56,14.17v-.06h0l.08.08Z" transform="translate(-1.53 -4.48)"/><path class="cls-5" d="M11.86,33.21l-.08-.08h0Z" transform="translate(-1.53 -4.48)"/><path class="cls-5" d="M11.46,32.57Z" transform="translate(-1.53 -4.48)"/><path class="cls-13" d="M30.2,52.17Z" transform="translate(-1.53 -4.48)"/><path class="cls-13" d="M39.34,51.85v.06h0Z" transform="translate(-1.53 -4.48)"/><path class="cls-5" d="M55.37,13.11Z" transform="translate(-1.53 -4.48)"/><path class="cls-4" d="M41,47.88l.11-.07.07.08-.1,0Z" transform="translate(-1.53 -4.48)"/><path class="cls-5" d="M12,33.36l.08.08h0Z" transform="translate(-1.53 -4.48)"/><path class="cls-13" d="M39.64,50.73l-.07.1v0l.07-.09Z" transform="translate(-1.53 -4.48)"/><path class="cls-5" d="M55,12.56l.08.08h0Z" transform="translate(-1.53 -4.48)"/><path class="cls-13" d="M24,51.27v-.05h0S24,51.25,24,51.27Z" transform="translate(-1.53 -4.48)"/><path class="cls-4" d="M41.08,47.94,41,48,40.92,48l.08-.08Z" transform="translate(-1.53 -4.48)"/><path class="cls-4" d="M40.87,48.05l.05-.09L41,48l-.06.1Z" transform="translate(-1.53 -4.48)"/><path class="cls-6" d="M35.54,55.59Z" transform="translate(-1.53 -4.48)"/><path class="cls-12" d="M53.44,39.11h.07v.1Z" transform="translate(-1.53 -4.48)"/><path class="cls-4" d="M45.84,50.46l.08-.08,0,.08h-.13Z" transform="translate(-1.53 -4.48)"/><path class="cls-14" d="M36.77,19l-.28-.09c-2.55-.82-5.09-1.65-7.64-2.46-.29-.09-.36-.18-.26-.49q1.76-5.32,3.46-10.67c.08-.26.16-.36.46-.25l7.71,2.5c.46.15.5.24.35.7q-1.66,5.16-3.34,10.33C37.16,18.78,37.1,19,36.77,19Zm-3-12.23c-.17,0-.22.12-.26.25-.18.56-.35,1.12-.54,1.67a.31.31,0,0,0,.22.45L37,10.34c.23.08.34,0,.41-.21.17-.53.33-1.07.53-1.59.11-.31,0-.45-.28-.55-1.21-.37-2.4-.77-3.61-1.16Z" transform="translate(-1.53 -4.48)"/><path class="cls-12" d="M27.36,15.44a1.73,1.73,0,0,1,.1-.37Q29,10.18,30.62,5.31c.19-.58.47-.72,1-.57.28.07.35.17.25.47C31.25,7.09,30.65,9,30,10.86c-.53,1.63-1.05,3.27-1.59,4.89-.05.17,0,.45-.27.46a.86.86,0,0,1-.81-.6A1,1,0,0,1,27.36,15.44Z" transform="translate(-1.53 -4.48)"/><path class="cls-2" d="M40.87,7.94c.32.11.41.26.3.62-1.11,3.36-2.19,6.73-3.28,10.09,0,.12,0,.29-.19.32a.42.42,0,0,1-.31,0c-.12-.1,0-.22,0-.32Q39,13.57,40.68,8.48C40.76,8.27,40.81,8.11,40.87,7.94Z" transform="translate(-1.53 -4.48)"/><path class="cls-7" d="M38,19a7.22,7.22,0,0,1,.56-1.76h0A10,10,0,0,1,38,19Z" transform="translate(-1.53 -4.48)"/><path class="cls-7" d="M41.06,9.61a9.74,9.74,0,0,1,.46-1.48,4.5,4.5,0,0,1-.46,1.47Z" transform="translate(-1.53 -4.48)"/><path class="cls-7" d="M40.5,11.36A5.2,5.2,0,0,1,40,12.8h0A5.2,5.2,0,0,1,40.5,11.36Z" transform="translate(-1.53 -4.48)"/><path class="cls-7" d="M39.62,14.11a2.35,2.35,0,0,1-.32,1h0a2.43,2.43,0,0,1,.32-.95Z" transform="translate(-1.53 -4.48)"/><path class="cls-7" d="M37.86,19.2c-.2.21-.36,0-.59,0A1.47,1.47,0,0,1,37.86,19.2Z" transform="translate(-1.53 -4.48)"/><path class="cls-7" d="M39.3,15a.6.6,0,0,1-.16.48h0A.7.7,0,0,1,39.3,15Z" transform="translate(-1.53 -4.48)"/><path class="cls-7" d="M39.14,15.52A.77.77,0,0,1,39,16,.67.67,0,0,1,39.14,15.52Z" transform="translate(-1.53 -4.48)"/><path class="cls-7" d="M40.58,11.11a.77.77,0,0,1,.13-.49.64.64,0,0,1-.13.48Z" transform="translate(-1.53 -4.48)"/><path class="cls-7" d="M40.5,11.37c0-.09,0-.2.08-.24h0C40.58,11.22,40.58,11.32,40.5,11.37Z" transform="translate(-1.53 -4.48)"/><path class="cls-7" d="M39.7,13.84v-.23C39.79,13.72,39.76,13.78,39.7,13.84Z" transform="translate(-1.53 -4.48)"/><path class="cls-7" d="M38.74,16.81c0-.09,0-.19.08-.24h0C38.82,16.66,38.82,16.76,38.74,16.81Z" transform="translate(-1.53 -4.48)"/><path class="cls-7" d="M40.9,10.11v.21C40.78,10.22,40.83,10.16,40.9,10.11Z" transform="translate(-1.53 -4.48)"/><path class="cls-7" d="M38.9,16.32v-.24C39,16.21,39,16.27,38.9,16.32Z" transform="translate(-1.53 -4.48)"/><path class="cls-7" d="M39.7,13.84c0,.09,0,.19-.08.24h0c0-.09,0-.2.08-.25Z" transform="translate(-1.53 -4.48)"/><path class="cls-7" d="M41,9.84c0,.09,0,.2-.08.25h0c0-.09,0-.19.08-.24Z" transform="translate(-1.53 -4.48)"/><path class="cls-7" d="M38.9,16.32c0,.09,0,.19-.08.24h0c0-.09,0-.2.08-.25Z" transform="translate(-1.53 -4.48)"/><path class="cls-7" d="M38,19a.14.14,0,0,1-.12.16h0C37.87,19.14,37.88,19.05,38,19Z" transform="translate(-1.53 -4.48)"/><path class="cls-7" d="M38.66,17c0-.08,0-.19.08-.23h0c0,.09,0,.19-.08.24Z" transform="translate(-1.53 -4.48)"/><path class="cls-7" d="M40,12.8V13c-.12-.09-.07-.15,0-.2Z" transform="translate(-1.53 -4.48)"/><path class="cls-7" d="M38.58,17.28a.27.27,0,0,1,.08-.24h0C38.66,17.13,38.66,17.23,38.58,17.28Z" transform="translate(-1.53 -4.48)"/><path class="cls-7" d="M41.06,9.6c0,.09,0,.19-.08.24h0C41,9.75,41,9.65,41.06,9.6Z" transform="translate(-1.53 -4.48)"/><path class="cls-7" d="M40.81,10.47v.07h0Z" transform="translate(-1.53 -4.48)"/><path class="cls-7" d="M41.31,7.91l.12.06V8l-.11-.09Z" transform="translate(-1.53 -4.48)"/><path class="cls-7" d="M41.29,7.93h-.1a.08.08,0,0,1,.09,0h0Z" transform="translate(-1.53 -4.48)"/><path class="cls-7" d="M39.79,13.45v0Z" transform="translate(-1.53 -4.48)"/><path class="cls-7" d="M39.91,13.26h0v-.07h0Z" transform="translate(-1.53 -4.48)"/><path class="cls-1" d="M33.81,44.43H32.33a.61.61,0,0,1-.67-.52.65.65,0,0,1,.06-.34.48.48,0,0,0,0-.37.57.57,0,0,1,.08-.6c.2-.18.15-.33.08-.53a3,3,0,0,0-1.1-1.52,5,5,0,1,1,6,.08,4.05,4.05,0,0,0-1.18,1.57c-.07.15,0,.2.1.28a.56.56,0,0,1,.2.77h0a.38.38,0,0,0,0,.33.61.61,0,0,1-.26.81.63.63,0,0,1-.33.06Zm4-10.53-.05-.1-.11-.13-.07-.1-.14-.18a4.6,4.6,0,0,0-4.81-1.49,4.81,4.81,0,0,0-1.78,8.44,3.38,3.38,0,0,1,1.23,1.72.33.33,0,0,0,.36.29h0a.35.35,0,0,0,.39-.28,11.31,11.31,0,0,0,.46-2.83.45.45,0,0,0-.19-.4,2,2,0,0,1-.74-1.41c0-.37.16-.67.46-.69s.5.25.54.56.08.82.11,1.24c0,.2,0,.36.3.36s.21-.21.21-.36a5.1,5.1,0,0,1,.1-1.35c0-.2.12-.41.37-.41s.34.18.42.37a1.55,1.55,0,0,1-.46,1.74c-.1.08-.24.12-.22.29A22.18,22.18,0,0,0,34.58,42a.31.31,0,0,0,.34.35c.27,0,.41,0,.52-.3a4.13,4.13,0,0,1,1.36-1.73A4.75,4.75,0,0,0,37.91,34Zm-4,10.34h1.44c.29,0,.48-.13.49-.41s-.19-.43-.47-.43H32.36c-.27,0-.49.11-.49.41s.21.43.51.43ZM33,42.35h.86c.61,0,.6,0,.48-.58A20.17,20.17,0,0,1,34,39.32c0-.3-.22-.2-.36-.24s-.18.11-.18.21A11.34,11.34,0,0,1,33,42.35Zm.83.19H32.24a.39.39,0,0,0-.39.39s0,0,0,.07c0,.31.22.21.4.21h3.18c.31,0,.32-.12.3-.31a.46.46,0,0,0-.47-.38Zm.4-3.77a1.29,1.29,0,0,0,.52-1.54c0-.11-.1-.25-.23-.25s-.19.17-.22.29a5.38,5.38,0,0,0-.07,1.5Zm-.91,0a6.4,6.4,0,0,0-.11-1.45c0-.18-.08-.37-.31-.35s-.3.2-.29.41a1.77,1.77,0,0,0,.71,1.36Z" transform="translate(-1.53 -4.48)"/><path class="cls-1" d="M29.91,32.61a.42.42,0,0,1-.19.36.32.32,0,0,1-.41,0c-.61-.58-1.21-1.16-1.8-1.75a.36.36,0,0,1,.51-.51h0c.6.56,1.19,1.14,1.78,1.71A.72.72,0,0,1,29.91,32.61Zm-.21.06a.3.3,0,0,0-.14-.24l-.71-.69L28,30.88c-.09-.08-.18-.13-.28,0a.15.15,0,0,0,0,.21l0,0,1.75,1.69C29.53,32.87,29.65,32.83,29.7,32.67Z" transform="translate(-1.53 -4.48)"/><path class="cls-1" d="M42,39.61c0,.32-.22.51-.48.42-.77-.27-1.52-.55-2.28-.84a.36.36,0,0,1-.25-.44v0a.35.35,0,0,1,.44-.23l0,0c.76.27,1.52.56,2.27.84A.35.35,0,0,1,42,39.61Zm-.19.09a.18.18,0,0,0-.13-.18l-2.24-.84a.18.18,0,0,0-.24.08.19.19,0,0,0,.1.25h0l2.21.81a.19.19,0,0,0,.27,0,.17.17,0,0,0,0-.12Z" transform="translate(-1.53 -4.48)"/><path class="cls-1" d="M36.34,31.77a.36.36,0,0,1-.38-.32.47.47,0,0,1,0-.17c.34-.76.7-1.51,1.07-2.27a.31.31,0,0,1,.42-.16h0c.21.09.31.26.22.45-.35.77-.71,1.54-1.08,2.3A.3.3,0,0,1,36.34,31.77Zm1.2-2.52c0-.11,0-.18-.11-.21s-.22.07-.27.18c-.31.65-.61,1.3-.91,2-.06.13-.18.29,0,.38s.25-.1.3-.22c.31-.64.6-1.28.9-1.91Z" transform="translate(-1.53 -4.48)"/><path class="cls-1" d="M28.16,35.11l-.8-.29-1.48-.55c-.23-.09-.36-.25-.27-.49s.3-.28.53-.2l2.19.81a.36.36,0,0,1,.27.43v0A.42.42,0,0,1,28.16,35.11ZM26,33.7c-.12,0-.2,0-.23.12s.07.2.17.23l2.13.8c.12,0,.25.07.31-.08s-.07-.22-.19-.26l-1.64-.61Z" transform="translate(-1.53 -4.48)"/><path class="cls-1" d="M31,28.53a.38.38,0,0,1,.38.29l.8,2.21a.35.35,0,0,1-.15.47l0,0a.34.34,0,0,1-.46-.13.49.49,0,0,1,0-.11c-.27-.75-.55-1.49-.81-2.24a.37.37,0,0,1,.18-.48A.32.32,0,0,1,31,28.53Zm1,2.58c-.27-.73-.55-1.51-.84-2.28a.15.15,0,0,0-.19-.1h0a.16.16,0,0,0-.13.18s0,0,0,0l.84,2.32a.15.15,0,0,0,.2.08h0C32,31.32,32,31.24,32,31.11Z" transform="translate(-1.53 -4.48)"/><path class="cls-1" d="M26.21,40.64a.34.34,0,0,1-.36-.25.37.37,0,0,1,.22-.47h0l1.59-.73c.2-.09.4-.2.61-.28a.36.36,0,0,1,.45.26.35.35,0,0,1-.14.4c-.76.37-1.54.71-2.31,1.06C26.27,40.64,26.24,40.63,26.21,40.64Zm0-.2h0l2.24-1a.14.14,0,0,0,.09-.18s0,0,0,0a.18.18,0,0,0-.25-.05h0l-.69.31-1.41.65c-.11.05-.2.1-.17.24S26.12,40.43,26.21,40.44Z" transform="translate(-1.53 -4.48)"/><path class="cls-1" d="M39.25,34.66a.37.37,0,0,1-.41-.25A.33.33,0,0,1,39,34c.77-.37,1.54-.72,2.31-1.06a.32.32,0,0,1,.43.15s0,0,0,.06a.37.37,0,0,1-.21.48h0l-2,.91C39.43,34.6,39.33,34.67,39.25,34.66Zm0-.19h.08l2.17-1a.15.15,0,0,0,.11-.22.18.18,0,0,0-.26-.09c-.27.11-.53.24-.8.36l-1.31.6a.19.19,0,0,0-.16.24.16.16,0,0,0,.13.11Z" transform="translate(-1.53 -4.48)"/><path class="cls-1" d="M38,32.88a.41.41,0,0,1-.37-.18.32.32,0,0,1,0-.41l1.78-1.83a.33.33,0,0,1,.47,0h0a.32.32,0,0,1,.06.45h0c-.59.63-1.2,1.24-1.8,1.86C38.09,32.85,38,32.86,38,32.88Zm0-.2.12-.07,1.67-1.72a.18.18,0,0,0,0-.25h0c-.1-.1-.2,0-.27,0l-.84.86-.77.81a.22.22,0,0,0-.08.25.17.17,0,0,0,.17.13Z" transform="translate(-1.53 -4.48)"/><path class="cls-1" d="M40.19,42.59a.38.38,0,0,1-.37.37.4.4,0,0,1-.23-.08l-1.8-1.75a.33.33,0,0,1,0-.47l0,0a.35.35,0,0,1,.49,0h0l1.77,1.71A.34.34,0,0,1,40.19,42.59Zm-.18,0c0-.05,0-.09-.06-.11l-1.77-1.71a.16.16,0,0,0-.22,0l0,0a.18.18,0,0,0,0,.25l1.72,1.65c.05.06.13.11.21,0l.12-.08Z" transform="translate(-1.53 -4.48)"/><path class="cls-1" d="M30,41.11a.38.38,0,0,1-.15.3L28.32,43c-.18.19-.39.27-.59.07s-.12-.41.06-.59c.52-.55,1.05-1.09,1.57-1.63a.38.38,0,0,1,.46-.14A.33.33,0,0,1,30,41.11Zm-.19,0a.17.17,0,0,0-.1-.18c-.13,0-.2,0-.28.11-.51.53-1,1.05-1.52,1.58-.09.1-.23.2-.08.34s.24,0,.33-.1l1.53-1.58A.66.66,0,0,0,29.85,41.11Z" transform="translate(-1.53 -4.48)"/><path class="cls-1" d="M26.62,37.11H25.51c-.27,0-.45-.1-.44-.38s.19-.36.43-.36h2.31c.25,0,.42.12.43.37s-.17.37-.42.37Zm0-.19h1.16c.11,0,.22,0,.23-.16s-.11-.2-.24-.2H25.5c-.13,0-.26,0-.26.19s.13.17.26.17Z" transform="translate(-1.53 -4.48)"/><path class="cls-1" d="M41,37.11H39.82c-.26,0-.45-.09-.45-.38s.19-.36.44-.36h2.3c.26,0,.43.12.44.36s-.19.39-.46.38Zm0-.19H42.1c.12,0,.26,0,.27-.16s-.11-.2-.24-.2H39.85c-.12,0-.26,0-.25.19s.13.18.26.17Z" transform="translate(-1.53 -4.48)"/><path class="cls-1" d="M34.43,29.52v1.12c0,.25-.1.43-.35.44s-.39-.18-.39-.45V28.35c0-.24.09-.43.36-.43s.38.18.38.44Zm-.18,0V28.41c0-.13,0-.29-.18-.3s-.19.14-.19.28v2.23c0,.12,0,.26.17.26s.2-.14.2-.28Z" transform="translate(-1.53 -4.48)"/><path class="cls-1" d="M28.74,57.11v.06h.05Z" transform="translate(-1.53 -4.48)"/><path class="cls-1" d="M19,50.88h-.67c-.27,0-.38-.08-.28-.36a10,10,0,0,1,.56-1.14c.06-.13.18-.15.31-.15h1.39c.26,0,.37.12.26.38l-.49,1.09a.29.29,0,0,1-.32.18Zm.6-1.44a2.16,2.16,0,0,1-.36,0,.53.53,0,0,0-.64.38v0a2.31,2.31,0,0,1-.18.35c-.11.18-.1.26.14.25s.77,0,1.15,0a.34.34,0,0,0,.36-.24c.4-.77.41-.77-.44-.77Z" transform="translate(-1.53 -4.48)"/><path class="cls-1" d="M52,13.38a.31.31,0,0,1-.18.25l-3,1.86a.25.25,0,0,1-.35,0,.18.18,0,0,1-.05-.07c-.28-.46-.56-.91-.85-1.35a.27.27,0,0,1,0-.38l.08,0,3-1.86c.15-.09.27-.11.38,0l.9,1.46A.86.86,0,0,1,52,13.38Zm-.24,0a.09.09,0,0,0,0-.07L51,12.05c-.1-.17-.2-.05-.29,0l-2.74,1.72c-.15.09-.19.15-.09.3.25.38.49.76.72,1.15.09.15.17.16.31.07l2.77-1.75c0-.06.13-.08.11-.19Z" transform="translate(-1.53 -4.48)"/><path class="cls-1" d="M9,34.22a.29.29,0,0,1-.19.25L5.85,36.31a.27.27,0,0,1-.38,0,.18.18,0,0,1,0-.07c-.27-.44-.54-.88-.82-1.32-.12-.18-.1-.32.08-.43l2.94-1.85c.15-.09.31-.14.42,0l.89,1.43A.84.84,0,0,1,9,34.22Zm-.23,0v-.08L8,32.89c-.1-.16-.2-.06-.29,0L5,34.58c-.18.11-.22.2-.1.37.24.36.46.72.68,1.09.09.14.16.21.34.09.9-.58,1.82-1.15,2.73-1.72,0-.09.12-.11.11-.23Z" transform="translate(-1.53 -4.48)"/><path class="cls-1" d="M52,57H51.9c-.8.17-1.22-.18-1.5-.93-.35-1-.83-1.84-1.25-2.76-.25-.54-.51-1.08-.73-1.63s-.1-.54.37-.55H50a.47.47,0,0,1,.49.31c.58,1.3,1.33,2.51,1.92,3.8.18.4.44.76.63,1.15s.18.61-.37.61Zm-.77-1.85h.68c.2,0,.31,0,.18-.25-.35-.64-.68-1.3-1-2-.06-.12-.13-.21-.29-.2H49.42c-.21,0-.22.07-.14.24a8.94,8.94,0,0,1,.59,1.3c.2.68.54,1.09,1.32.86Zm1.69,1.39c-.42-1-.42-1-1.4-1h-.32c-.72,0-.72,0-.41.66.08.16.12.34.38.33H52.9Zm-3.07-4.2H50c.71,0,.72,0,.4-.63-.09-.16-.1-.39-.39-.38H48.77c-.16,0-.21,0-.16.21.22.71.33.8,1.06.8Z" transform="translate(-1.53 -4.48)"/><path class="cls-1" d="M49,50.89c-1,0-1,0-1.35-.92l-.06-.14c-.18-.5-.12-.59.4-.59a1.55,1.55,0,0,1,.43,0c.34,0,.77-.16,1,.1a3.14,3.14,0,0,1,.59,1.2c.08.25,0,.35-.25.35ZM49,50.45h0c.83,0,.83,0,.44-.76-.06-.12-.1-.26-.3-.25H47.92c-.15,0-.21,0-.16.2.22.73.31.81,1.05.81Z" transform="translate(-1.53 -4.48)"/><path class="cls-1" d="M10.71,12.22c0-.25.12-.29.29-.32l3.42-.57c.2,0,.3,0,.33.23.08.53.17,1,.26,1.57,0,.2,0,.31-.22.34l-3.5.59a.24.24,0,0,1-.3-.16.13.13,0,0,1,0-.06C10.89,13.29,10.8,12.74,10.71,12.22Zm.61,1.63,3.36-.56c.15,0,.15-.11.13-.23-.08-.44-.16-.89-.22-1.34,0-.18-.1-.21-.27-.18-1.07.18-2.15.37-3.23.54-.16,0-.2.08-.17.23.08.46.16.92.23,1.38C11.17,13.84,11.24,13.87,11.32,13.85Z" transform="translate(-1.53 -4.48)"/><path class="cls-1" d="M63.25,33c-.2.73-.41,1.5-.63,2.27-.09.31-.27.2-.45.08a11.32,11.32,0,0,0-4.23-1.59A8.49,8.49,0,0,0,56,33.62c-.33,0-.4-.09-.31-.39.21-.69.39-1.39.57-2.08a.4.4,0,0,1,.41-.34,11,11,0,0,1,6.4,1.78C63.19,32.66,63.32,32.74,63.25,33Zm-7.4.42h.25a10.71,10.71,0,0,1,5.48,1.32c.28.14.59.5.8.39s.23-.56.3-.87c.1-.49.53-1,.28-1.46s-.84-.55-1.32-.77a10.38,10.38,0,0,0-4.78-1c-.16,0-.36,0-.42.2C56.25,31.94,56.05,32.67,55.85,33.39Z" transform="translate(-1.53 -4.48)"/><path class="cls-1" d="M55.49,37.76a11,11,0,0,1,5.64,1.73c.09,0,.28.09.19.23s-.19,0-.27-.07A10.86,10.86,0,0,0,54.8,38c-.08,0-.18,0-.19-.07s.12-.11.2-.11Z" transform="translate(-1.53 -4.48)"/><path class="cls-1" d="M54.78,36.9a8.77,8.77,0,0,1,1.62,0,11.57,11.57,0,0,1,4.93,1.67,1.33,1.33,0,0,1,.19.14s.08.08,0,.13a.11.11,0,0,1-.15,0l-.13-.08A10.84,10.84,0,0,0,55,37.05C55,37.11,54.88,37.11,54.78,36.9Z" transform="translate(-1.53 -4.48)"/><path class="cls-1" d="M55.48,34.38c.09-.21.23-.15.34-.15A10.92,10.92,0,0,1,62.06,36c.08,0,.24.09.18.22s-.18,0-.26-.05a10.89,10.89,0,0,0-6.28-1.71Z" transform="translate(-1.53 -4.48)"/><path class="cls-1" d="M55.21,35.11a8.72,8.72,0,0,1,1.77,0,11.33,11.33,0,0,1,4.78,1.65l.17.11A.12.12,0,0,1,62,37c0,.07-.13,0-.19,0A11.29,11.29,0,0,0,60,36.11a10.38,10.38,0,0,0-4.4-.82A.36.36,0,0,1,55.21,35.11Z" transform="translate(-1.53 -4.48)"/><path class="cls-1" d="M61.77,38a11.6,11.6,0,0,0-6.83-1.81C56.06,35.49,61.09,36.87,61.77,38Z" transform="translate(-1.53 -4.48)"/><path class="cls-1" d="M25.52,18c0,.24-.23.21-.4.23a11,11,0,0,0-5.44,2.1c-.17.13-.33.27-.49.41s-.3.11-.38-.09c-.31-.73-.61-1.47-.92-2.21-.09-.22.08-.31.2-.42a10.64,10.64,0,0,1,4.34-2.2,14.58,14.58,0,0,1,1.73-.31.37.37,0,0,1,.45.27h0c.27.68.56,1.35.84,2C25.48,17.89,25.49,18,25.52,18ZM19,20.63a9.69,9.69,0,0,1,1-.72,11.12,11.12,0,0,1,5-1.84c.2,0,.42,0,.25-.33s-.32-.76-.48-1.14c-.38-.92-.39-.93-1.39-.75a10.8,10.8,0,0,0-5,2.26c-.17.15-.25.26-.14.5C18.46,19.26,18.72,19.93,19,20.63Z" transform="translate(-1.53 -4.48)"/><path class="cls-5" d="M20.38,24.11c0-.15.11-.2.19-.27a11,11,0,0,1,6-2.48c.08,0,.22-.06.24.07s-.14.12-.23.13a10.74,10.74,0,0,0-6,2.49.56.56,0,0,1-.17.09A0,0,0,0,0,20.38,24.11Z" transform="translate(-1.53 -4.48)"/><path class="cls-5" d="M26.12,19.72c-.05.13-.17.11-.27.12A11.6,11.6,0,0,0,21.78,21,10.15,10.15,0,0,0,20,22.26c-.08.07-.17.25-.28.12s.07-.19.15-.26A10.9,10.9,0,0,1,25,19.76c.31-.06.63-.09.95-.13C26,19.61,26.09,19.6,26.12,19.72Z" transform="translate(-1.53 -4.48)"/><path class="cls-5" d="M25.76,18.87a3.44,3.44,0,0,1-1.1.24,10.71,10.71,0,0,0-5.08,2.33c-.07.06-.16.26-.28.1s.1-.2.18-.27a10.6,10.6,0,0,1,5-2.31A3.07,3.07,0,0,1,25.76,18.87Z" transform="translate(-1.53 -4.48)"/><path class="cls-5" d="M26.16,20.46c.15,0,.31-.06.32.09s-.16.1-.25.11a10.9,10.9,0,0,0-6,2.5c-.06.06-.14.19-.22.07s0-.18.13-.25a10.43,10.43,0,0,1,4.55-2.25C25.21,20.61,25.71,20.54,26.16,20.46Z" transform="translate(-1.53 -4.48)"/><path class="cls-5" d="M26.9,22.11c.14,0,.29-.07.31.1s-.14.09-.22.1a11,11,0,0,0-6,2.5c-.06.06-.13.18-.22.06s.05-.16.11-.22a9.59,9.59,0,0,1,2.52-1.59,11.25,11.25,0,0,1,2.26-.73C26.08,22.26,26.52,22.2,26.9,22.11Z" transform="translate(-1.53 -4.48)"/><path class="cls-5" d="M47.71,33.18c0-.17.16-.15.25-.15a11,11,0,0,1,6.25,1.67l.17.11c.06,0,.15.1.08.19s-.14,0-.2,0a11,11,0,0,0-6.39-1.75A.46.46,0,0,1,47.71,33.18Z" transform="translate(-1.53 -4.48)"/><path class="cls-5" d="M47.47,34c0-.15.17-.11.26-.11a10.88,10.88,0,0,1,6.21,1.67c.11.07.35.13.26.28s-.25,0-.35-.12A11,11,0,0,0,48,34.11h-.44Z" transform="translate(-1.53 -4.48)"/><path class="cls-5" d="M48.83,32.11a11.07,11.07,0,0,1,5.62,1.67c.12.07.36.14.27.28s-.25,0-.35-.11a11.12,11.12,0,0,0-6-1.65h-.16c-.08,0-.25.08-.24-.09s.17-.09.26-.09Z" transform="translate(-1.53 -4.48)"/><path class="cls-1" d="M47,35.78c0-.13.14-.11.21-.11a11,11,0,0,1,6.25,1.66h.07c.07.08.28.12.19.25s-.21,0-.29-.09a10.79,10.79,0,0,0-6-1.68H47Z" transform="translate(-1.53 -4.48)"/><path class="cls-1" d="M47.2,34.91c.07-.15.18-.12.26-.12a11,11,0,0,1,6.12,1.6,1,1,0,0,1,.17.1c.07.08.28.11.19.25s-.21,0-.29-.09a11,11,0,0,0-6-1.68C47.5,35,47.34,35,47.2,34.91Z" transform="translate(-1.53 -4.48)"/><path class="cls-1" d="M17.3,18.57l.06.09.13.35.43,1a.91.91,0,0,0,.17.39,1.62,1.62,0,0,0,.23.56c0,.19-.11.24-.28.25a10.63,10.63,0,0,0-6,2.48c-.23.19-.36.18-.47-.1-.28-.69-.57-1.38-.86-2.07a.32.32,0,0,1,.11-.44h0A10.93,10.93,0,0,1,17,18.51.67.67,0,0,1,17.3,18.57ZM18.11,21c-.29-.69-.58-1.36-.84-2a.32.32,0,0,0-.39-.25h0A10.94,10.94,0,0,0,11,21.22c-.1.08-.17.16-.11.3.3.71.59,1.42.9,2.15A11.21,11.21,0,0,1,18.11,21Z" transform="translate(-1.53 -4.48)"/><path class="cls-5" d="M18.77,23.5c.14,0,.41-.14.43.07s-.28.1-.44.12a11,11,0,0,0-5.62,2.37l-.12.1c-.07.05-.14.18-.23.09s0-.18.11-.24a11.32,11.32,0,0,1,2.67-1.65A9.62,9.62,0,0,1,18.77,23.5Z" transform="translate(-1.53 -4.48)"/><path class="cls-5" d="M19.27,24.33c.09,0,.26-.07.27.07s-.17.13-.27.14A10.74,10.74,0,0,0,13.39,27c-.09.07-.17.24-.29.1s.05-.16.12-.21A11,11,0,0,1,19.27,24.33Z" transform="translate(-1.53 -4.48)"/><path class="cls-5" d="M18.57,21.87c-.07.14-.2.11-.31.12a10.73,10.73,0,0,0-5.79,2.37c-.11.08-.25.3-.34.18s.12-.25.23-.33a10.94,10.94,0,0,1,5.81-2.42C18.3,21.78,18.46,21.69,18.57,21.87Z" transform="translate(-1.53 -4.48)"/><path class="cls-5" d="M19.9,25.26c0,.16-.17.11-.26.11A10,10,0,0,0,17,26a12,12,0,0,0-3.21,1.82.9.9,0,0,1-.19.15h-.13s0-.12,0-.17l.09-.08a11,11,0,0,1,6-2.51C19.69,25.18,19.82,25.11,19.9,25.26Z" transform="translate(-1.53 -4.48)"/><path class="cls-1" d="M19,22.74a7.31,7.31,0,0,1-1.14.18,11.11,11.11,0,0,0-5,2.29l-.22.18s-.09.07-.14,0a.1.1,0,0,1,0-.14l.12-.11a11,11,0,0,1,5.9-2.5A.59.59,0,0,1,19,22.74Z" transform="translate(-1.53 -4.48)"/><path class="cls-1" d="M49.12,27.11c-.24.31-.5.44-.81.16-.15-.12-.18,0-.26.06a.45.45,0,0,1-.63-.08h0a.44.44,0,0,1,0-.62.42.42,0,0,1,.59-.09l0,0c.15.12.21.08.35,0,.3-.19.53-.05.71.21.21-.17.41-.42.73-.23a.44.44,0,0,1,.23.58.25.25,0,0,1,0,.07.47.47,0,0,1-.63.2l0,0A1.59,1.59,0,0,1,49.12,27.11Zm.77-.16a.29.29,0,0,0-.27-.29h0a.27.27,0,0,0-.28.26h0a.25.25,0,0,0,.22.28h.05a.26.26,0,0,0,.29-.23h0Zm-2.12.25A.25.25,0,0,0,48,27v0a.26.26,0,1,0-.52,0h0a.25.25,0,0,0,.22.28h0Zm1.15-.27a.26.26,0,0,0-.25-.27h0a.27.27,0,0,0-.29.23v0a.27.27,0,0,0,.24.3h0c.17,0,.26-.11.27-.27Z" transform="translate(-1.53 -4.48)"/><path class="cls-1" d="M35.81,50.88c-1.06,0-1.06,0-1.06-1.07,0-.56,0-.56.54-.56h1.15c.21,0,.32.07.33.29a6.89,6.89,0,0,0,.06,1c.06.32-.08.42-.38.4S36,50.88,35.81,50.88Zm0-.43a5.23,5.23,0,0,1,.56,0c.21,0,.27-.06.25-.28,0-.73,0-.73-.76-.73a3.23,3.23,0,0,1-.44,0c-.4-.07-.49.1-.46.47,0,.53,0,.54.53.54Z" transform="translate(-1.53 -4.48)"/><path class="cls-1" d="M38.12,50.88c-1,0-1,0-1.08-1-.07-.65-.07-.65.57-.65h1c.31,0,.38.1.4.36s.07.66.11,1-.08.29-.28.29Zm0-.43a3.09,3.09,0,0,1,.43,0c.35.06.42-.08.36-.41-.11-.59-.09-.6-.68-.6h-.79c-.18,0-.22.05-.22.23,0,.78,0,.78.78.78Z" transform="translate(-1.53 -4.48)"/><path class="cls-1" d="M33.57,50.88c-1,0-1,0-1-1,0-.61,0-.61.64-.61h1c.25,0,.38.06.36.34s0,.63,0,1-.11.36-.36.35S33.79,50.88,33.57,50.88Zm0-.43a5.23,5.23,0,0,1,.56,0c.22,0,.3,0,.3-.28,0-.73,0-.73-.69-.73h-.68c-.23,0-.24.07-.25.25-.09.76-.1.76.64.76Z" transform="translate(-1.53 -4.48)"/><path class="cls-1" d="M33.73,6.76l.23.07c1.21.39,2.4.79,3.61,1.16.32.1.39.24.28.55-.2.52-.36,1.06-.53,1.59-.07.23-.18.29-.41.21L33.15,9.11c-.25-.08-.3-.21-.22-.45.19-.55.36-1.11.54-1.67C33.51,6.88,33.56,6.75,33.73,6.76Zm.05.22c-.12,0-.12.1-.15.18-.16.5-.32,1-.5,1.52-.07.19,0,.24.18.29,1.18.38,2.36.75,3.53,1.15.25.08.3,0,.35-.21.15-.45.28-.92.45-1.36.08-.24,0-.32-.2-.39C36.29,7.8,35.14,7.42,34,7Z" transform="translate(-1.53 -4.48)"/><path class="cls-15" d="M37.9,34a4.75,4.75,0,0,1-1.11,6.28,4.13,4.13,0,0,0-1.36,1.73c-.11.27-.27.3-.52.3s-.3-.17-.34-.35a22.18,22.18,0,0,1-.36-2.82c0-.17.12-.21.22-.29a1.55,1.55,0,0,0,.46-1.74c-.08-.19-.18-.37-.42-.37s-.32.21-.37.41a5.1,5.1,0,0,0-.1,1.35c0,.15.1.36-.21.36s-.29-.16-.3-.36a10.2,10.2,0,0,0-.11-1.24c-.05-.41-.16-.58-.54-.56s-.49.32-.46.69a2,2,0,0,0,.74,1.41.45.45,0,0,1,.19.4,11.31,11.31,0,0,1-.46,2.83.42.42,0,0,1-.78,0v0a3.38,3.38,0,0,0-1.23-1.72,4.81,4.81,0,0,1,1.78-8.44,4.6,4.6,0,0,1,4.81,1.49l-.07.07a5.32,5.32,0,0,0-.47-.36.76.76,0,0,0-.79-.1.69.69,0,0,0-.33.72A2.79,2.79,0,0,0,37,35.89a.71.71,0,0,0,.86.1.83.83,0,0,0,.31-.82,3.22,3.22,0,0,0-.33-1.05Z" transform="translate(-1.53 -4.48)"/><path class="cls-6" d="M33.81,44.24H32.38c-.3,0-.51-.11-.51-.43s.22-.41.49-.41h2.91c.28,0,.48.14.47.43s-.2.41-.49.41Z" transform="translate(-1.53 -4.48)"/><path class="cls-15" d="M33,42.35a11,11,0,0,0,.53-3.06c0-.1,0-.26.18-.21s.33-.06.36.24a20.17,20.17,0,0,0,.27,2.45c.12.58.13.58-.48.58Z" transform="translate(-1.53 -4.48)"/><path class="cls-6" d="M33.8,42.54h1.47c.26,0,.45.11.47.38s0,.33-.3.31H32.26c-.18,0-.39.1-.4-.21a.38.38,0,0,1,.31-.45h1.31Z" transform="translate(-1.53 -4.48)"/><path class="cls-15" d="M34.2,38.77a5.38,5.38,0,0,1,.07-1.5c0-.12,0-.29.22-.29s.18.14.23.25A1.29,1.29,0,0,1,34.2,38.77Z" transform="translate(-1.53 -4.48)"/><path class="cls-15" d="M33.29,38.74a1.77,1.77,0,0,1-.71-1.39c0-.21.06-.39.29-.41s.28.17.31.35A6.4,6.4,0,0,1,33.29,38.74Z" transform="translate(-1.53 -4.48)"/><path class="cls-15" d="M37.43,33.39l.14.18-.06.06-.15-.17Z" transform="translate(-1.53 -4.48)"/><path class="cls-15" d="M37.64,33.67l.11.13-.07.06-.11-.14Z" transform="translate(-1.53 -4.48)"/><path class="cls-15" d="M37.8,33.9l.1.14-.08.08L37.73,34Z" transform="translate(-1.53 -4.48)"/><path class="cls-15" d="M37.57,33.57l.07.1-.07,0-.06-.09Z" transform="translate(-1.53 -4.48)"/><path class="cls-15" d="M37.75,33.8l0,.1-.07.06,0-.1Z" transform="translate(-1.53 -4.48)"/><path class="cls-12" d="M29.7,32.67c-.05.16-.17.2-.29.09l-1.75-1.65a.15.15,0,0,1,0-.21l0,0c.1-.08.19,0,.28,0l.89.86.71.69C29.63,32.49,29.71,32.55,29.7,32.67Z" transform="translate(-1.53 -4.48)"/><path class="cls-12" d="M41.83,39.7a.19.19,0,0,1-.22.15l-.06,0L39.34,39a.2.2,0,0,1-.13-.24v0a.18.18,0,0,1,.24-.08l2.24.84A.18.18,0,0,1,41.83,39.7Z" transform="translate(-1.53 -4.48)"/><path class="cls-12" d="M37.54,29.25l-.08.17c-.3.63-.59,1.27-.9,1.91-.05.12-.1.32-.3.22s-.07-.25,0-.38c.3-.65.6-1.3.91-2,0-.11.11-.22.27-.18S37.54,29.11,37.54,29.25Z" transform="translate(-1.53 -4.48)"/><path class="cls-12" d="M26,33.7l.55.2,1.64.61a.2.2,0,0,1,.19.26c-.05.15-.19.12-.31.08l-2.13-.8a.18.18,0,0,1-.17-.23A.17.17,0,0,1,26,33.7Z" transform="translate(-1.53 -4.48)"/><path class="cls-12" d="M32,31.11c0,.13,0,.21-.11.24a.15.15,0,0,1-.2-.08h0L30.83,29a.16.16,0,0,1,.09-.21h0a.15.15,0,0,1,.19.1h0C31.41,29.6,31.69,30.38,32,31.11Z" transform="translate(-1.53 -4.48)"/><path class="cls-12" d="M26.21,40.44c-.09,0-.16,0-.18-.13s.06-.19.17-.24l1.41-.65.69-.31a.18.18,0,0,1,.25,0h0a.14.14,0,0,1,0,.2l-.05,0-2.24,1Z" transform="translate(-1.53 -4.48)"/><path class="cls-12" d="M39.21,34.47a.16.16,0,0,1-.17-.13.23.23,0,0,1,.16-.24l1.31-.6c.27-.12.53-.25.8-.36.11,0,.21,0,.26.09s0,.18-.11.22l-2.17,1Z" transform="translate(-1.53 -4.48)"/><path class="cls-12" d="M38,32.68a.16.16,0,0,1-.17-.1.22.22,0,0,1,.08-.25l.77-.81.84-.86c.07-.08.17-.13.27,0a.18.18,0,0,1,0,.25h0L38.1,32.64Z" transform="translate(-1.53 -4.48)"/><path class="cls-12" d="M40,42.59a.42.42,0,0,1-.11.15c-.08.07-.16,0-.21,0L38,41.05a.18.18,0,0,1,0-.25.16.16,0,0,1,.22,0l0,0L40,42.51A.15.15,0,0,0,40,42.59Z" transform="translate(-1.53 -4.48)"/><path class="cls-12" d="M29.85,41.11a.66.66,0,0,1-.12.17L28.2,42.86c-.09.1-.19.22-.33.1s0-.24.08-.34c.5-.53,1-1,1.52-1.58.08-.08.15-.16.28-.11A.17.17,0,0,1,29.85,41.11Z" transform="translate(-1.53 -4.48)"/><path class="cls-12" d="M26.64,37H25.52c-.13,0-.26,0-.26-.17s.13-.19.26-.19h2.27c.13,0,.25,0,.24.2s-.12.16-.23.16Z" transform="translate(-1.53 -4.48)"/><path class="cls-12" d="M41,37H39.86c-.13,0-.26,0-.26-.17s.13-.19.25-.19h2.28c.13,0,.25,0,.24.2s-.15.16-.27.16Z" transform="translate(-1.53 -4.48)"/><path class="cls-12" d="M34.25,29.53V30.6c0,.14,0,.29-.2.28s-.17-.14-.17-.26V28.39c0-.14,0-.29.19-.28s.18.17.18.3Z" transform="translate(-1.53 -4.48)"/><path class="cls-11" d="M19.6,49.44c.85,0,.84,0,.46.77a.34.34,0,0,1-.36.24H18.55c-.38,0-.25-.07-.14-.25a2.31,2.31,0,0,0,.18-.35.54.54,0,0,1,.62-.42h0A2.16,2.16,0,0,0,19.6,49.44Z" transform="translate(-1.53 -4.48)"/><path class="cls-12" d="M51.75,13.35c0,.11-.08.13-.14.16l-2.77,1.75c-.14.09-.22.08-.31-.07-.23-.39-.47-.77-.72-1.15-.1-.15-.06-.21.09-.3L50.64,12c.09,0,.19-.17.29,0l.78,1.26A.16.16,0,0,1,51.75,13.35Z" transform="translate(-1.53 -4.48)"/><path class="cls-8" d="M8.73,34.18c0,.12-.09.14-.17.19-.91.57-1.83,1.14-2.73,1.72-.18.12-.25,0-.34-.09-.22-.37-.44-.73-.68-1.09-.12-.17-.08-.26.1-.37l2.71-1.69c.09-.06.19-.16.29,0l.78,1.25A.2.2,0,0,1,8.73,34.18Z" transform="translate(-1.53 -4.48)"/><path class="cls-11" d="M51.19,55.18c-.78.23-1.12-.18-1.35-.86a8.94,8.94,0,0,0-.59-1.3c-.08-.17-.07-.24.14-.24h1.36A.29.29,0,0,1,51,53c.33.65.66,1.31,1,2,.13.24,0,.26-.18.25Z" transform="translate(-1.53 -4.48)"/><path class="cls-11" d="M52.88,56.57H51.13c-.26,0-.3-.17-.38-.33-.31-.66-.31-.66.41-.66h.32C52.46,55.59,52.46,55.59,52.88,56.57Z" transform="translate(-1.53 -4.48)"/><path class="cls-11" d="M49.81,52.37h-.16c-.73,0-.84-.09-1.06-.8-.05-.17,0-.21.16-.21H50c.42,0,.3.22.39.38.32.63.31.63-.4.63Z" transform="translate(-1.53 -4.48)"/><path class="cls-11" d="M49,50.45h-.12c-.74,0-.83-.08-1-.81-.05-.18,0-.2.16-.2h1.19c.2,0,.24.13.3.25.39.75.39.76-.44.76Z" transform="translate(-1.53 -4.48)"/><path class="cls-13" d="M11.32,13.85c-.08,0-.15,0-.17-.16-.07-.46-.15-.92-.23-1.38,0-.15,0-.21.17-.23,1.08-.17,2.16-.36,3.23-.54.17,0,.24,0,.27.18.06.45.14.9.22,1.34,0,.12,0,.21-.13.23Z" transform="translate(-1.53 -4.48)"/><path class="cls-11" d="M55.85,33.39c.2-.72.4-1.45.59-2.18.06-.25.26-.2.42-.2a10.38,10.38,0,0,1,4.78,1c.48.22,1.09.37,1.32.77s-.18,1-.28,1.46c-.07.31-.1.77-.3.87s-.52-.25-.8-.39A10.71,10.71,0,0,0,56.1,33.4h-.25Z" transform="translate(-1.53 -4.48)"/><path class="cls-11" d="M19,20.63c-.28-.7-.54-1.37-.84-2-.11-.24,0-.35.14-.5a10.8,10.8,0,0,1,5-2.26c1-.18,1-.17,1.39.75.16.38.29.77.48,1.14s0,.3-.25.33a11.12,11.12,0,0,0-5,1.84C19.64,20.11,19.34,20.37,19,20.63Z" transform="translate(-1.53 -4.48)"/><path class="cls-11" d="M18.11,21a11.22,11.22,0,0,0-6.3,2.62c-.31-.73-.6-1.44-.9-2.15-.06-.14,0-.22.11-.3a10.94,10.94,0,0,1,5.84-2.46.34.34,0,0,1,.41.23v0C17.53,19.65,17.82,20.32,18.11,21Z" transform="translate(-1.53 -4.48)"/><path class="cls-7" d="M49.89,27a.26.26,0,0,1-.26.26h0a.25.25,0,0,1-.27-.23V27a.27.27,0,0,1,.27-.27h0a.29.29,0,0,1,.28.28Z" transform="translate(-1.53 -4.48)"/><path class="cls-6" d="M47.77,27.22a.25.25,0,0,1-.25-.25h0A.26.26,0,1,1,48,27h0a.25.25,0,0,1-.24.26Z" transform="translate(-1.53 -4.48)"/><path class="cls-14" d="M48.92,27a.26.26,0,0,1-.27.29.27.27,0,0,1-.29-.25v0a.26.26,0,0,1,.26-.26h0a.26.26,0,0,1,.27.25Z" transform="translate(-1.53 -4.48)"/><path class="cls-11" d="M35.81,50.45h-.32c-.51,0-.49,0-.53-.54,0-.37.06-.54.46-.47a3.23,3.23,0,0,0,.44,0c.72,0,.71,0,.76.73,0,.22,0,.29-.25.28A5.23,5.23,0,0,0,35.81,50.45Z" transform="translate(-1.53 -4.48)"/><path class="cls-11" d="M38.12,50.45H38c-.78,0-.77,0-.78-.78,0-.18,0-.24.22-.23h.79c.59,0,.57,0,.68.6.06.33,0,.47-.36.41A2.81,2.81,0,0,0,38.12,50.45Z" transform="translate(-1.53 -4.48)"/><path class="cls-11" d="M33.56,50.45h-.12c-.74,0-.73,0-.64-.76,0-.18.06-.26.25-.25s.45,0,.68,0c.72,0,.71,0,.69.73,0,.23-.08.3-.3.28A5.23,5.23,0,0,0,33.56,50.45Z" transform="translate(-1.53 -4.48)"/><path class="cls-15" d="M33.78,7,34,7c1.15.38,2.3.76,3.45,1.12.24.07.28.15.2.39-.17.44-.3.91-.45,1.36,0,.18-.1.29-.35.21-1.17-.4-2.35-.77-3.53-1.15-.16-.05-.25-.1-.18-.29.18-.51.34-1,.5-1.52C33.66,7.11,33.66,7,33.78,7Z" transform="translate(-1.53 -4.48)"/><path class="cls-1" d="M37.68,33.86l0,.1.09.16a3.22,3.22,0,0,1,.33,1.05.83.83,0,0,1-.31.82.71.71,0,0,1-.86-.1,2.79,2.79,0,0,1-1.21-2.17A.69.69,0,0,1,36.1,33a.76.76,0,0,1,.79.1,5.32,5.32,0,0,1,.47.36l.15.17.06.09ZM38,35.24a2.75,2.75,0,0,0-1.15-2,.52.52,0,0,0-.62-.1.58.58,0,0,0-.23.6,2.68,2.68,0,0,0,1.11,1.94.58.58,0,0,0,.64.12c.27-.09.27-.32.27-.56Z" transform="translate(-1.53 -4.48)"/><path class="cls-2" d="M38,35.24c0,.24,0,.47-.25.6a.58.58,0,0,1-.64-.12A2.68,2.68,0,0,1,36,33.78a.58.58,0,0,1,.23-.6.52.52,0,0,1,.62.1A2.77,2.77,0,0,1,38,35.24Z" transform="translate(-1.53 -4.48)"/></svg>