<svg id="Layer_1" data-name="Layer 1" xmlns="http://www.w3.org/2000/svg" viewBox="0 0 511.08 456.11"><defs><style>.cls-1{fill:#02051d;}.cls-2{fill:#030c2c;}.cls-3{fill:#f2fdfd;}.cls-4{fill:#099bf8;}.cls-5{fill:#d90442;}.cls-6{fill:#fd1b58;}.cls-7{fill:#fbc011;}.cls-8{fill:#f94b04;}.cls-9{fill:#0652d4;}.cls-10{fill:#085787;}.cls-11{fill:#16e4c8;}.cls-12{fill:#e4f9fd;}.cls-13{fill:#e8fafd;}.cls-14{fill:#ddf7fc;}.cls-15{fill:#eafbfd;}.cls-16{fill:#edfcfd;}.cls-17{fill:#effcfb;}.cls-18{fill:#f14e19;}.cls-19{fill:#f98907;}.cls-20{fill:#f57f15;}.cls-21{fill:#f1b233;}.cls-22{fill:#f02865;}.cls-23{fill:#ee3672;}.cls-24{fill:#f7b1c7;}.cls-25{fill:#f2f4f5;}.cls-26{fill:#fb6004;}.cls-27{fill:#fa9e05;}</style></defs><path class="cls-1" d="M150.61,607.38c-2.58-1.43-5.57-1.61-8.26-2.72a51.65,51.65,0,0,1-20.68-13.48,72.82,72.82,0,0,1-11-16.47.31.31,0,0,0-.16-.44A1.25,1.25,0,0,0,110,573l-2.89-10.87-.35-1.81-.26-3.16-.19-1.28a1.88,1.88,0,0,0,.06-.31q0-90.3,0-180.58a3.61,3.61,0,0,0-1.34-3c-2.62-2.28-4.35-5.25-6.15-8.15-6.89-11-8.34-23.18-7.22-35.86.21-2.42.14-4.83,1.41-7a8.79,8.79,0,0,1,0,5.3,4.38,4.38,0,0,0,.07,3.7,11.72,11.72,0,0,1,1.61,6.62c0,.87-.49,2.13.7,2.5s1-1.05,1.42-1.62a1.84,1.84,0,0,1,.73-.53c4.88-2.07,12.52,1.92,13.55,7.07.26,1.34.57,2.68.7,4s.91,1.5,2,1.47a7.41,7.41,0,0,1,1.37,3.1c-1.1,1-.36,1.21.58,1.31l.28,0,.28,0,0,0,0,1.14.57.78,2.93,3.7a35.59,35.59,0,0,0,46.89,8.57c5.88-3.52,10.12-8.51,13.73-14.17l.53-.77.57-1.19c.91.05,1.16-.56,1.51-1.27,1.46-3,4.48-4.7,6.85-6.45s6.4-1,9.47-.19c2.08.54,2.38,3.46,3.3,5.43a38.44,38.44,0,0,1-3.84,10h24.8c-3.55,5.62-7.91,10.64-11.89,16-2.76,3.66-5.53,7.31-8.58,11.34,1.39.1,2.2.21,3,.21,14.89,0,29.79-.06,44.69.08a7,7,0,0,0,6.32-3.19c2.26-3,5-5.7,7.47-8.52.31,2-.35,4.45,2.59,5a64.73,64.73,0,0,0,15.27,1.39,2.48,2.48,0,0,0,2.4-1.24c1.7-3.9,5-6.58,7.34-10,2.5-3.73,6.14-6.58,8.14-10.69l.67-.41,25.8-.21c1.28.7,2.69.15,4,.39l-18.5,24.46c-.55.73-1.74,1.36-1.24,2.35s1.7.45,2.59.45c14.91.06,29.83,0,44.74.17a6.35,6.35,0,0,0,5.61-2.72c3.59-4.55,7.37-8.93,11.08-13.38-.91,3.4.87,4.35,3.88,4.57s5.8.91,8.71,1.14,6.6.53,8.51-1.91c1.61-2.06,3.48-3.88,5-6,2.28-3.11,5.2-5.73,7-9.17l30.72-.25a9.6,9.6,0,0,1-.74,1.38q-9,11.45-18,22.87c-.75,1-1.83,1.75-1.91,3.29h21.88c3.65.75,7.35.32,11,.31,11,0,19.3-4.88,25-14.14,3.71-6,5.76-12.55,4.46-19.76.51-5.67-2.39-10.33-4.55-15.2.67-.07,1.43,0,1.65.67,1.82,5.3,6.11,9.92,4.77,16.09-.63,2.91,2,4.52,2.33,6.78.41,2.93,2.23,3.86,4.35,4.15,3.67.51,6.74,1.79,9.08,4.68-1.38,6.23-4.52,11.56-8.48,16.45a7.74,7.74,0,0,0-2,5.13q.09,64.57.06,129.14c0,.94.13,1.88.2,2.83-.06,9.5-.14,19-.18,28.5a56.13,56.13,0,0,1-1.23,12.53c-3.4,14.62-11.75,25.8-23.83,34.4-1.67,1.14-3.9,1.4-5.12,3.25-2-.2-3.4,1.16-5,2-1.52-.46-2.6.62-3.85,1.1a6.73,6.73,0,0,0-3.14.78,4.14,4.14,0,0,0-2.55.56l-1.26.15-1.38.2c-2.21.1-4.42.29-6.64.29l-241.17,0c-10.68,0-21.36.07-32,.11l-7.49-.16m15.79-42.42c-.08,0-.22.08-.22.12a2.14,2.14,0,0,0,.07.43l-.38,1.25c-2.14,6.34-2.52,12.91-2.54,19.53,0,1.45.68,2.09,2.13,2.06,3.25-.07,6.5-.1,9.75-.14,12.15,0,24.31,0,36.47,0,1.31,0,1.82-.54,2.19-1.73,6.69-21.37,21.05-36.08,40.66-45.9,16.26-8.14,33.54-14,50.19-21.31,14.12-6.19,28.76-11.3,41.52-20.28a126.54,126.54,0,0,1,13-8,13.1,13.1,0,0,0,1.78-.54q37.16-17.81,74.31-35.6c9.52-4.53,19-9.22,28.78-13.15l.59-.31,1.46-.92c1.71-1,1.57-2.06.2-3.22a13.67,13.67,0,0,1,0-5.18,4.1,4.1,0,0,0,0-3.6v-1.46a26.38,26.38,0,0,0,0-10l-.41-.72c0-3.59.09-7.18.13-10.77l-.48-.65-.11-.14a1.25,1.25,0,0,0-1.31-1.11,24.37,24.37,0,0,1-6.53-.62,1.28,1.28,0,0,0-1.72.94,180.71,180.71,0,0,1-20.29-.07c-1.27-1.42-2.55-1.39-3.83,0l-14,.47-1.31-.32a52.83,52.83,0,0,0-15.12,0,112.43,112.43,0,0,1-14.1,0,1.78,1.78,0,0,0-2.4,0,12.48,12.48,0,0,1-4.6,0,6.19,6.19,0,0,0-4.92,0l-4.48.24H347.42l-17.83-.22c-.34-.27-.48-.1-.56.24l-.27.65-.29.88c.34,3.52-.88,6.89-1,10.37-.19.59-.43,1.18-.58,1.79-6.7,27.31-21.66,49.05-44.3,65.59-3.31,2.41-6.75,4.65-10.13,7-6.33,2.36-12.66,4.68-19,7.08C240,503.28,225.86,506.9,213,513.59c-20.21,10.54-35.44,25.81-42.7,48a1.72,1.72,0,0,0-.62,1.9l-.25,1-.36.89Zm99-1.39c-.52-.12-.66.24-.79.62l.15.06-.58.19-.53.61h0a68.08,68.08,0,0,0-13.57,21.37c-1,1.21-.69,2,.86,2,6.29-.07,12.58.38,18.85-.27l8.87,0c6.53.56,13.09-.05,19.62.25,2.65.13,3.5-.9,3.73-3.32a72.15,72.15,0,0,1,4.77-20.6c2.14-5.29,5-10.2,7.47-15.32,3.71-5.1,7.67-10,10.81-15.53,2.29-1.82,3.25-4.68,5.28-6.7l-.11-.07.08.18c-.77-.49-1.39,0-2.06.27-11.43,4.56-22.79,9.3-34,14.39-9.67,4.39-18.54,10-25.66,18-1.07,1-2.43,1.72-2.69,3.34l.08-.05c-.66-.17-.73.22-.69.71Zm35.59-128.15h0a4.51,4.51,0,0,0,1.45-3l0-.12c.69-1,1.54-2,1.56-3.31A34.11,34.11,0,0,0,310,420a.87.87,0,0,0,.31-1.2l.2-1.95a78.86,78.86,0,0,0,1.63-9.66c.23-1.69-.19-2.36-1.89-2.35q-16.32.06-32.62.07l-20.21-.16a2.3,2.3,0,0,0-2.22.93c-2.27,3.71-5.64,6.51-8.16,10-1,.06-1.45.81-2.05,1.38a54.33,54.33,0,0,1-20,11.92q-48.53,16.14-94.44-6.62c-1.48-.73-2.75-1.94-4.56-2.19v5.45l0,28a8.93,8.93,0,0,0-.17,1.25l.09,70a244.53,244.53,0,0,0-.08,26.25c.54,16,8.1,27.57,22,35.28,2.26,1.25,3.05,1.23,2.92-1.68-.84-19,5.09-36,15.66-51.5,9.68-14.24,21.61-26,37.49-33.16,10.29-4.66,20.89-8.6,31.54-12.35,17.41-6.12,34.57-12.6,48.1-25.94,7.54-7.43,14.69-15.12,19.54-24.66a.31.31,0,0,0,.16-.37Zm164.76,32c.43-4.89.38-4.93-3.91-2.94-.86.4-1.7.84-2.57,1.22-37.32,16.39-66.68,41.68-86.55,77.55a121.31,121.31,0,0,0-12.12,28,31.35,31.35,0,0,0-3.27,12.6c-1.74,3.88-1.31,4.58,2.95,4.57q36.94-.09,73.88-.21a22.17,22.17,0,0,0,3.16-.22c15.25-2.32,28.14-17.94,28.37-34.34.5-8.77.4-17.54.2-26.32q.07-27.57.15-55.15C468.72,471,468.53,469.46,468.43,467.88ZM109.3,345c0-.77-.26-1.49-1.12-1.58s-1.29.6-1.27,1.38a1.35,1.35,0,0,0,1.34,1.4C109.07,346.28,109.27,345.71,109.3,345Zm-16-2.57c-.28-.55.73-1.29-.3-1.71A1.39,1.39,0,0,0,93.31,342.46Z" transform="translate(-34.48 -152.26)"/><path class="cls-2" d="M101.21,205.73a2,2,0,0,0,1.88-.64c2.31-.26,4.53-1.11,6.89-1a1.13,1.13,0,0,0,1.27,0c3.68,1.91,7,4.13,8.25,8.45,1.89,6.27-1,11.89-7,14.39-3.12,1.31-6.47,2.17-9.6,3.39-5.21,2-10.71,3.22-15.78,5.61a1.25,1.25,0,0,0-1.3.47l-3.14.92c-3.78,1.26-7.53,2.6-11.35,3.75a11.8,11.8,0,0,1-14.81-7.27c-1.83-5.44,1.44-12.07,7.18-14.37,3.11-1.25,6.29-2.32,9.45-3.48l22.23-8.09A25.85,25.85,0,0,0,101.21,205.73Z" transform="translate(-34.48 -152.26)"/><path class="cls-3" d="M107.12,562.12,110,573c-5.52.4-6.09-.35-4.5-6a4,4,0,0,0,.21-2.74C105.27,563.1,105.73,562.26,107.12,562.12Z" transform="translate(-34.48 -152.26)"/><path class="cls-3" d="M106.51,557.15l.26,3.16c-1,0-1.83-.14-1.86-1.45C104.89,557.73,105.35,557.13,106.51,557.15Z" transform="translate(-34.48 -152.26)"/><path class="cls-3" d="M110.55,574.27a.31.31,0,0,1,.16.44,5.2,5.2,0,0,1-.69.55s-.37-.23-.36-.34C109.69,574.37,110.15,574.34,110.55,574.27Z" transform="translate(-34.48 -152.26)"/><path class="cls-2" d="M489,209.24c-1.4,5.36-2.33,10.87-5.17,15.76-.95,1.63-1.66,3.41-3.05,4.77a.9.9,0,0,0-1.49-.36c-1.69,1.12-2,2.76-1.78,4.6h0c-2.92-.36-3.85-1.82-2.78-4.41.31-.73,1.26-1.39.41-2.21s-1.58-.18-2.38,0c-1.14.31-3,.64-3.27-.2-1-3.12-3-7-1.91-9.49,2.56-6.09,4.17-12.1,3.52-18.62-.47-4.66-1.37-9.28-4.95-12.8-.07-.87-.14-1.75-1.27-1.92-.05-1.29-.41-2.34-1.93-2.5a2.64,2.64,0,0,0-2.7-2.43c-8.88-7.94-19.07-9.36-30.31-6.44-7.47,1.93-14.66,4.63-21.94,7.08q-48.42,16.31-96.77,32.82c-30.36,10.37-60.66,20.88-91,31.3q-41.17,14.16-82.38,28.24a24.72,24.72,0,0,0-13.5,10.92c0,.16-.06.32-.1.48l.23-.11-.23-.43,12-4c2.51-.28,5-.65,7.53-.81,17.67-1.06,32.8,4.63,45.29,17.22,5.71,6.29,10.83,13,13.37,21.21.6,1.94,1.79.78,2.73,1a2.39,2.39,0,0,0,2.06,3c.78.19,2.24.64,1.91,1.2-1.34,2.25.78,1.85,1.76,2.42-1.48.2-2.81.14-4.13.22-1,.06-2.45-.49-2.68.89s-1.09,3.14.85,4.18l.33,1.15c-.22,6.27-.26,12.56-2.59,18.54-.92-2-1.22-4.89-3.3-5.43-3.07-.81-7.19-1.49-9.47.19s-5.39,3.48-6.85,6.45c-.35.71-.6,1.32-1.51,1.27,2.38-6.53,4-13.19,3.29-20.23a25.62,25.62,0,0,0-2.32-11.68,36.55,36.55,0,0,0-35.75-22.58c-19.9.88-33.69,14.43-35.31,34.22-.85,6.13.86,11.94,2.32,17.77-1,0-1.84-.15-2-1.47s-.44-2.7-.7-4c-1-5.15-8.67-9.14-13.55-7.07a1.84,1.84,0,0,0-.73.53c-.46.57-.13,2-1.42,1.62s-.69-1.63-.7-2.5A11.72,11.72,0,0,0,93.16,330a4.38,4.38,0,0,1-.07-3.7,8.79,8.79,0,0,0,0-5.3v0l.54-.25-.45-.35c.75-5.34,3.4-9.89,6.14-14.35a3.93,3.93,0,0,0,.69-3.53c-.87-3.59-.08-7.31.63-10.83A49.88,49.88,0,0,1,108.08,273a54.31,54.31,0,0,1,30.5-21.9c9.79-2.87,19.36-6.45,29-9.86,5.68-2,11.57-3.7,17.31-5.58,6.36-2.07,12.66-4.47,19-6.64q41-14,82-28c27.84-9.49,55.71-18.88,83.52-28.46,18-6.18,36-12.26,54.08-18a50.35,50.35,0,0,1,24.92-1.33,13,13,0,0,0,1.88.09c13.51,3.44,23.87,11.27,31.63,22.72,3.76,5.55,5.55,11.7,6.6,18.3C489.29,199.34,488.93,204.27,489,209.24Z" transform="translate(-34.48 -152.26)"/><path class="cls-4" d="M361.87,491.51a126.54,126.54,0,0,0-13,8c-12.76,9-27.4,14.09-41.52,20.28-16.65,7.29-33.93,13.17-50.19,21.31-19.61,9.82-34,24.53-40.66,45.9-.37,1.19-.88,1.73-2.19,1.73-12.16,0-24.32,0-36.47,0a1.52,1.52,0,0,0,.16-.42l28.23,0c1.23,0,2.47.27,2.84-1.62,1.17-6,4.2-11.26,7.39-16.35,4.81-7.65,9.51-15.41,16.79-21.13,6.72-5.28,13.53-10.44,21.45-13.83,10.46-4.46,21-8.8,31.48-13.19q17.35-7.26,34.7-14.51a108.45,108.45,0,0,0,16.92-8.51,170.2,170.2,0,0,0,24.62-19.23c9.68-9.14,18.9-18.62,26.56-29.54,7.07-10.08,13.81-20.39,21.33-30.16.65-.85,2-1.82,1.34-2.93s-2.15-.46-3.26-.46c-9.73,0-19.46-.11-29.18,0-1.74,0-3.46-1.15-5.19-.09l-5-.07a89.21,89.21,0,0,0,4.41-11.85l4.48-.24a12.54,12.54,0,0,0,4.92,0,12.48,12.48,0,0,0,4.6,0,3.37,3.37,0,0,0,2.4,0,112.43,112.43,0,0,0,14.1,0,119.19,119.19,0,0,0,15.12,0l1.31.32c-1,1.48-2,3-3,4.44s-2.07,2.9-3.05,4.38c-1.34,2-1.32,3.32,1.66,3.11,1.58-.11,3.16,0,4.74,0l40.76.19a14.31,14.31,0,0,1-.22,1.86c-2.16,8.51-7.68,14.36-15.05,18.65q-24.58,14.32-48.84,29.21-17.7,10.89-34.61,22.95C362.17,490.12,361.16,490.35,361.87,491.51Z" transform="translate(-34.48 -152.26)"/><path class="cls-2" d="M460.47,307.62a1.81,1.81,0,0,1,.57.06c.52.7,1.27.58,2,.54l-.06-.05a13,13,0,0,0,7.1,1.9L470,310c.44,1.45,1.47,1.54,2.7,1.19l0,0c.52,2,2.1,2.12,3.77,2.07l-.05,0c.18,1.74,1.22,2.08,2.72,1.64l.07,0c-.07.9.55.91,1.17.92,12.5,8.78,18.62,21.14,20,36.05a44.06,44.06,0,0,1-1.95,18.72c-2.34-2.89-5.41-4.17-9.08-4.68-2.12-.29-3.94-1.22-4.35-4.15-.32-2.26-3-3.87-2.33-6.78,1.34-6.17-3-10.79-4.77-16.09-.22-.63-1-.74-1.65-.67l0,0c.13-1.46-.16-2.59-2-2.52l.1,0-1-.69a29.13,29.13,0,0,0-14.93-8.7,2.61,2.61,0,0,0-2.57-1.5c-3.74-.24-7.49-.63-11.24-.61-5.25,0-10.51.33-15.76.6-5.71.28-11.36-.63-17-.6-8.38.05-16.75.54-25.12.56-33.17.07-66.34,0-99.51.05-1.31,0-2.77-.53-3.92.64H282a12.52,12.52,0,0,0-8.92,0,15.56,15.56,0,0,1-5.05,0c-.4-.92-.08-1.16.89-1.42,4-1.06,8-.55,12-.46,2.95.07,4-.84,3.65-3.74-.34-2.72.54-4.54,3.55-5.39a4.24,4.24,0,0,0,3.16-5.12c-.64-2.59.61-2.22,2.27-2.25,2.93,0,5.81.51,8.7.51Q381.37,307.66,460.47,307.62Z" transform="translate(-34.48 -152.26)"/><path class="cls-5" d="M303,437.16c-4.85,9.54-12,17.23-19.54,24.66-13.53,13.34-30.69,19.82-48.1,25.94-10.65,3.75-21.25,7.69-31.54,12.35C187.91,507.29,176,519,166.3,533.27c-10.57,15.54-16.5,32.5-15.66,51.5.13,2.91-.66,2.93-2.92,1.68-13.89-7.71-21.45-19.27-22-35.28a244.53,244.53,0,0,1,.08-26.25v4.79a11.21,11.21,0,0,0,2.3-3.17c1.11-1.93,1.31-4.41,3.4-5.75.1.61,0,1.34.55,1.74a6,6,0,0,0,7.58-1.38,3.41,3.41,0,0,1,2.89-1.51,16,16,0,0,0,4.65-.72,4.74,4.74,0,0,1,6.24,2.2c1.29,2.09,2,1.43,3.09,0,4.62-6.2,10.13-11.58,15.67-16.93a81.4,81.4,0,0,1,18.65-13.44c16-8.47,33.32-13.71,50.27-19.76,13.17-4.7,24.88-11.29,34.53-21.41,2.9-3,5.53-6.34,8.29-9.52.66-.76,1-1.75,2.5-1.35,2.72.75,5.58.55,8.36,1.42,2.23.7,5.23,1.56,6.61-1.95C301.58,437.68,302.43,437.48,303,437.16Z" transform="translate(-34.48 -152.26)"/><path class="cls-6" d="M303,437.16c-.54.32-1.39.52-1.58,1-1.38,3.51-4.38,2.65-6.61,1.95-2.78-.87-5.64-.67-8.36-1.42-1.46-.4-1.84.59-2.5,1.35-2.76,3.18-5.39,6.48-8.29,9.52C266,459.66,254.27,466.25,241.1,471c-16.95,6.05-34.27,11.29-50.27,19.76a81.4,81.4,0,0,0-18.65,13.44c-5.54,5.35-11.05,10.73-15.67,16.93-1.09,1.47-1.8,2.13-3.09,0a4.74,4.74,0,0,0-6.24-2.2,16,16,0,0,1-4.65.72,3.41,3.41,0,0,0-2.89,1.51,6,6,0,0,1-7.58,1.38c-.6-.4-.45-1.13-.55-1.74.68-3.93,3.71-6.48,5.76-9.59a123.37,123.37,0,0,1,20.51-23.43c4.14-3.76,8.95-6.61,13.1-10.33l2.61-1.53a1.14,1.14,0,0,0,1.21-.64c1.58-.83,3.12-1.75,4.75-2.48,10.7-4.77,21.89-8.16,33.08-11.55,11.84-3.58,23.66-7.33,34.16-14.09a67.27,67.27,0,0,0,25.79-30.4l1.15-.53c12.29-.51,24.55.73,36.83.6-.06.65-.13,1.3-.2,1.95-.1.4-.2.8-.31,1.2a34.11,34.11,0,0,1-3.26,9.56c-2.07.37-1.95,1.78-1.56,3.31l0,.12c-2.53,0-1.12,1.9-1.45,3h0l-.54.87A.31.31,0,0,1,303,437.16Z" transform="translate(-34.48 -152.26)"/><path class="cls-7" d="M272.48,416.75a67.27,67.27,0,0,1-25.79,30.4c-10.5,6.76-22.32,10.51-34.16,14.09-11.19,3.39-22.38,6.78-33.08,11.55-1.63.73-3.17,1.65-4.75,2.48a1,1,0,0,0-1.21.64l-2.61,1.53c0-1.46.42-3-.93-4.13-5.51-4.57-10.81-9.4-18.25-10.85a92.1,92.1,0,0,1-25.81-8.81l0-28c4.49,2.11,8.85,4.54,13.48,6.28C161,440,183.13,442.82,206,439c14.56-2.46,28.36-6.7,39.63-16.87,1.7-1.53,3.76-2.8,4.54-5.16Z" transform="translate(-34.48 -152.26)"/><path class="cls-8" d="M360,584.27a31.35,31.35,0,0,1,3.27-12.6c7.55-2.37,14.69-5.76,22-8.81q25.81-10.79,51.56-21.76c10.56-4.51,20.92-9.5,31.77-13.35.2,8.78.3,17.55-.2,26.32a5.72,5.72,0,0,1-2.77,2c-21.36,10-43.26,18.79-64.41,29.23a27.14,27.14,0,0,1-13.34,3c-7.91-.29-15.84-.26-23.75,0C360.83,588.39,359.68,587.33,360,584.27Z" transform="translate(-34.48 -152.26)"/><path class="cls-9" d="M468.57,527.75c-10.85,3.85-21.21,8.84-31.77,13.35q-25.74,11-51.56,21.76c-7.27,3-14.41,6.44-22,8.81a121.31,121.31,0,0,1,12.12-28,19.54,19.54,0,0,0,7.35-3.19c3-.31,5.55-1.83,8.23-3q14.13-6,28.17-12.23c8.5-3.74,17-7.42,25.43-11.4,9-4.28,15.41-11,16.31-21.33a132.84,132.84,0,0,0,0-20.92c2.28-1.75,5-2.67,7.58-3.79.1,1.58.29,3.15.29,4.72Q468.67,500.19,468.57,527.75Z" transform="translate(-34.48 -152.26)"/><path class="cls-4" d="M113.83,349.53c-1.46-5.83-3.17-11.64-2.32-17.77,3.46.37,4.86-1.09,5.35-4.65.88-6.25,4.2-11.37,8.76-15.75a32.16,32.16,0,0,1,48.91,5c3.28,4.79,4.9,9.93,6,15.4,0,4.74-.19,9.36-2,14-8.66,22.63-37.3,28.82-53.32,11.91-1-1-2.16-2.57-3.3-2.16-2.43.86-3.84-.71-5.63-1.48l0,0a1,1,0,0,0-.66-1.21.8.8,0,0,0-.48-.09A7.41,7.41,0,0,0,113.83,349.53Zm17.77-14.46c-.11,8.62,6.74,16.44,16.89,16.81,8.36.31,16.44-7.75,16.66-16.34a16.78,16.78,0,1,0-33.55-.47Z" transform="translate(-34.48 -152.26)"/><path class="cls-4" d="M170.31,561.6c7.26-22.2,22.49-37.47,42.7-48,12.85-6.69,27-10.31,40.51-15.45,6.31-2.4,12.64-4.72,19-7.08,4.12-.69,7.48-3.19,11.24-4.76,6.26-2.6,12.34-5.67,18.49-8.55,5.14,2.48,7.9,6.68,7.13,10.91l0-.06c-1.19.15-2.81-.79-3.22,1.29l0,0c-1.05.09-2.42-.45-2.55,1.35v-.07a1.74,1.74,0,0,0-1.56.73c-4.18,2.69-8.91,4.18-13.44,6Q262.9,508.42,237,518.49c-16.43,6.34-31.76,14.19-42.78,28.59a66.73,66.73,0,0,0-8.07,13c-.24.54-1.8,2,.65,1.77,0,.06-.12.14-.1.19a2.26,2.26,0,0,0,.15.41c-2.09-1.48-1.92,1.37-3.11,1.62a14.6,14.6,0,0,1-6.85,3.49,14.18,14.18,0,0,0-4.83,2.17c-2,1.28-3.23,1.77-3-1.4,0-.36-.29-.75-.45-1.12.13-.42.25-.83.37-1.25a.52.52,0,0,0,.16-.55l0-.07a.7.7,0,0,0,.36-.89c.08-.33.17-.67.25-1A1.74,1.74,0,0,0,170.31,561.6Z" transform="translate(-34.48 -152.26)"/><path class="cls-8" d="M375.21,371c-3.71,4.45-7.49,8.83-11.08,13.38a6.35,6.35,0,0,1-5.61,2.72c-14.91-.14-29.83-.11-44.74-.17-.89,0-2.13.48-2.59-.45s.69-1.62,1.24-2.35l18.5-24.46.88,0c6.65,0,13.31-.05,20,.07a8,8,0,0,0,7-3.52c2.2-3,4.52-5.82,6.87-8.66,3.75-4.54,3.77-4.51,9.1-2.73a15.73,15.73,0,0,0,3.34.9c4.69.45,9.32,1,13.29,3.9-.06,1.28-1.07,2-1.73,2.9-1.52,2.11-3.54,3.87-4.54,6.36-1.94,1.18-3,3.1-4.11,5l-.62.9,0,0-.63.67h0a3.87,3.87,0,0,0-2,2.48l.06,0a.65.65,0,0,0-.65.71v0a3.51,3.51,0,0,0-1.94,2.53Z" transform="translate(-34.48 -152.26)"/><path class="cls-8" d="M125.89,453.65a92.1,92.1,0,0,0,25.81,8.81c7.44,1.45,12.74,6.28,18.25,10.85,1.35,1.12,1,2.67.93,4.13-4.15,3.72-9,6.57-13.1,10.33a123.37,123.37,0,0,0-20.51,23.43c-2.05,3.11-5.08,5.66-5.76,9.59-2.09,1.34-2.29,3.82-3.4,5.75a11.21,11.21,0,0,1-2.3,3.17v-4.79l-.09-70A8.93,8.93,0,0,1,125.89,453.65Z" transform="translate(-34.48 -152.26)"/><path class="cls-10" d="M385.1,358.89c1-2.49,3-4.25,4.54-6.36.66-.92,1.67-1.62,1.73-2.9,5.17-5.77,9.48-12.2,14.16-18.35a16.77,16.77,0,0,1,1.87-.24q23.78,0,47.54-.05a11.65,11.65,0,0,1,5.28.81c-6.49,9.65-14.1,18.44-21.15,27.66l-30.72.25-19.62-.12C387.48,359.58,386.18,359.79,385.1,358.89Z" transform="translate(-34.48 -152.26)"/><path class="cls-4" d="M326.92,359.32l-25.8.21a27.68,27.68,0,0,0-10.92,0h-1.76c-.27-.39-.53-.37-.78,0l-8.8.1c-1.2-1.65.86-2.46,1-3.77a.32.32,0,0,1,.25-.31c.67,0,1-.37.89-1.05l1-1.36,0,.05,15.86-22.08,26.39,0c.84,1,2,.52,3,.52,7,0,13.92,0,20.87,0,.78,0,1.83-.41,2.25.6.34.79-.57,1.27-.9,1.89-1.06,2.06-3.64,3.24-3.5,6l-.12.15c-1.36-.1-2.06.89-2.73,1.77-2,2.67-4.16,5.3-5.94,8.14-1.35,2.15-4,3.54-4,6.5l0,.05Z" transform="translate(-34.48 -152.26)"/><path class="cls-8" d="M439.07,359.46c7.05-9.22,14.66-18,21.15-27.66a15.25,15.25,0,0,1,6.83,3c2.14,1.74,4.21,1.63,6.51.74l.78.17-.1,0c.13,1.25,1.1,1.85,2,2.52l0,0c2.16,4.87,5.06,9.53,4.55,15.2-.27,4.51-.57,9-3.26,13.46-1.31-5.26-4.87-8.5-8.64-8.47a3.08,3.08,0,0,0-3.14,1.68c-1.51,3.33-4.12,6-6.63,8.28-5.82,5.38-10.75,11.51-16.09,17.28a3.68,3.68,0,0,1-2.71,1.36H418.38c.08-1.54,1.16-2.34,1.91-3.29q9-11.44,18-22.87A9.6,9.6,0,0,0,439.07,359.46Z" transform="translate(-34.48 -152.26)"/><path class="cls-8" d="M264.71,375.46c-2.51,2.82-5.21,5.51-7.47,8.52a7,7,0,0,1-6.32,3.19c-14.9-.14-29.8-.07-44.69-.08-.81,0-1.62-.11-3-.21,3.05-4,5.82-7.68,8.58-11.34,4-5.31,8.34-10.33,11.89-16h.62c8.34,0,16.69-.09,25,0,8.87,0,17.75-.33,26.61.22-2,4.27-5.66,7.36-7.87,11.47a1,1,0,0,0-.77,1.12l.06-.05a.69.69,0,0,0-.67.7l0-.05a3.79,3.79,0,0,0-2,2.52Z" transform="translate(-34.48 -152.26)"/><path class="cls-4" d="M327.76,534.05c-3.14,5.5-7.1,10.43-10.81,15.53a17,17,0,0,0-8.48,1.95c-11.24,6.23-19.31,15.1-23.62,27.4-1.13,3.21-1.84,6.61-3.49,9.64l-8.87,0c-.93-.72-2-.43-3-.43-4.63,0-9.25,0-13.87,0-1.09,0-2.43.42-2.8-1.25a67.92,67.92,0,0,1,13.57-21.36h0l.53-.6.58-.2-.15-.06.79-.62-.09,0,.69-.71-.08.05a7.94,7.94,0,0,0,4.14-3,48.44,48.44,0,0,1,5.34-3.6c10.36-5.95,21.29-10.7,32.17-15.55C316,538.68,321.64,535.76,327.76,534.05Z" transform="translate(-34.48 -152.26)"/><path class="cls-9" d="M361.87,491.51c-.71-1.16.3-1.39,1-1.87q16.94-12,34.61-22.95,24.26-14.9,48.84-29.21c7.37-4.29,12.89-10.14,15.05-18.65a14.31,14.31,0,0,0,.22-1.86l.17-.19,6.79.05.41.72a45.62,45.62,0,0,0,0,10V429a6.3,6.3,0,0,0,0,3.6,13.88,13.88,0,0,0,0,5.18,7.16,7.16,0,0,0-.19,3.22l-1.46.92-.59.31c-9.8,3.93-19.26,8.62-28.78,13.15q-37.2,17.72-74.31,35.6A13.1,13.1,0,0,1,361.87,491.51Z" transform="translate(-34.48 -152.26)"/><path class="cls-11" d="M302.22,477.75c-6.15,2.88-12.23,5.95-18.49,8.55-3.76,1.57-7.12,4.07-11.24,4.76,3.38-2.32,6.82-4.56,10.13-7,22.64-16.54,37.6-38.28,44.3-65.59.15-.61.39-1.2.58-1.79,1.57,0,3.14,0,4.71,0,4.45.07,8.9-1.46,13.36,0l.18,0a2.77,2.77,0,0,0-.51.8c-2.31,10.2-7,19.38-12,28.47-1.94,3.52-5.06,6.24-6.49,10.06l-.7.74-.91.73-.55.62-1,1.23c-2,2-4,4-5.93,6.05C313.11,470.25,307.48,473.77,302.22,477.75Z" transform="translate(-34.48 -152.26)"/><path class="cls-5" d="M360,584.27c-.33,3.06.82,4.12,4.09,4,7.91-.28,15.84-.31,23.75,0a27.14,27.14,0,0,0,13.34-3c21.15-10.44,43.05-19.24,64.41-29.23a5.72,5.72,0,0,0,2.77-2c-.23,16.4-13.12,32-28.37,34.34a22.17,22.17,0,0,1-3.16.22q-36.93.12-73.88.21C358.7,588.85,358.27,588.15,360,584.27Z" transform="translate(-34.48 -152.26)"/><path class="cls-10" d="M224.31,359.59H198.89a38.44,38.44,0,0,0,3.84-10c2.33-6,2.37-12.27,2.59-18.54l39,.18c-1.79,2.58-3.56,5.17-5.38,7.73C234.1,345.82,228.78,352.41,224.31,359.59Z" transform="translate(-34.48 -152.26)"/><path class="cls-9" d="M281.36,588.57c1.65-3,2.36-6.43,3.49-9.64,4.31-12.3,12.38-21.17,23.62-27.4a17,17,0,0,1,8.48-1.95c-2.47,5.12-5.33,10-7.47,15.32a72.15,72.15,0,0,0-4.77,20.6c-.23,2.42-1.08,3.45-3.73,3.32C294.45,588.52,287.89,589.13,281.36,588.57Z" transform="translate(-34.48 -152.26)"/><path class="cls-3" d="M250.16,416.92c-.78,2.36-2.84,3.63-4.54,5.16C234.35,432.25,220.55,436.49,206,439c-22.86,3.87-45,1.06-66.59-7.06-4.63-1.74-9-4.17-13.48-6.28v-5.46c1.81.25,3.08,1.46,4.56,2.19q45.86,22.79,94.44,6.62a54.33,54.33,0,0,0,20-11.92c.6-.57,1.1-1.32,2.05-1.38C247.83,416.63,249,416.67,250.16,416.92Z" transform="translate(-34.48 -152.26)"/><path class="cls-12" d="M468.43,467.88c-2.61,1.12-5.3,2-7.58,3.79a10,10,0,0,0-1.2.42c-23.45,11.73-44.81,26.26-61.54,46.8-5.59,6.85-11.28,13.68-15.36,21.63a19.54,19.54,0,0,1-7.35,3.19c19.87-35.87,49.23-61.16,86.55-77.55.87-.38,1.71-.82,2.57-1.22C468.81,463,468.86,463,468.43,467.88Z" transform="translate(-34.48 -152.26)"/><path class="cls-5" d="M440.26,387a3.68,3.68,0,0,0,2.71-1.36c5.34-5.77,10.27-11.9,16.09-17.28,2.51-2.32,5.12-4.95,6.63-8.28a3.08,3.08,0,0,1,3.14-1.68c3.77,0,7.33,3.21,8.64,8.47,2.69-4.45,3-8.95,3.26-13.46,1.3,7.21-.75,13.72-4.46,19.76-5.69,9.26-14,14.1-25,14.14C447.61,387.32,443.91,387.75,440.26,387Z" transform="translate(-34.48 -152.26)"/><path class="cls-9" d="M461.55,417l-40.76-.19c-1.58,0-3.16-.1-4.74,0-3,.21-3-1.09-1.66-3.11,1-1.48,2-2.91,3.05-4.38s2-3,3-4.44l14-.46a6,6,0,0,0,3.83,0,180.71,180.71,0,0,0,20.29.07l3.17.44.06,11.86Z" transform="translate(-34.48 -152.26)"/><path class="cls-9" d="M116.36,354c1.79.77,3.2,2.34,5.63,1.48,1.14-.41,2.35,1.15,3.3,2.16,16,16.91,44.66,10.72,53.32-11.91,1.77-4.61,2-9.23,2-14l4.32.07c.72,7-.91,13.7-3.29,20.23l-.57,1.19c-.18.26-.35.52-.53.77-3.61,5.66-7.85,10.65-13.73,14.17a35.59,35.59,0,0,1-46.89-8.57l-2.93-3.7-.57-.78Z" transform="translate(-34.48 -152.26)"/><path class="cls-2" d="M268.08,371.23c2.21-4.11,5.9-7.2,7.87-11.47l.69-.09h2.22l8.8-.1h2.54l10.25.4c-2,4.11-5.64,7-8.14,10.69-2.3,3.44-5.64,6.12-7.34,10a2.48,2.48,0,0,1-2.4,1.24,64.73,64.73,0,0,1-15.27-1.39c-2.94-.59-2.28-3.08-2.59-5h0c1.82.07,2.1-1.07,2-2.52l0,.05.67-.7-.06.05A1.12,1.12,0,0,0,268.08,371.23Z" transform="translate(-34.48 -152.26)"/><path class="cls-5" d="M310.46,416.82c-12.28.13-24.54-1.11-36.83-.6,0-1.3.79-2.34,1.16-3.51.85-2.64,2.78-4.9,2.79-7.83q16.31,0,32.62-.07c1.7,0,2.12.66,1.89,2.35A78.86,78.86,0,0,1,310.46,416.82Z" transform="translate(-34.48 -152.26)"/><path class="cls-2" d="M385.1,358.89c1.08.9,2.38.69,3.63.7l19.62.12c-1.83,3.44-4.75,6.06-7,9.17-1.53,2.08-3.4,3.9-5,6-1.91,2.44-5.49,2.14-8.51,1.91s-5.79-.93-8.71-1.14-4.79-1.17-3.88-4.57h0c1.78,0,2.05-1.1,1.94-2.53v0l.65-.71-.06,0c1.76.06,2.06-1.07,2-2.48h0l.63-.67,0,0,.62-.9C382.11,362,383.16,360.07,385.1,358.89Z" transform="translate(-34.48 -152.26)"/><path class="cls-2" d="M373.47,404.8a89.21,89.21,0,0,1-4.41,11.85l-.13.12-23.18-.06-.18,0,.18-1.07.25-.84c.36-3.36,1.76-6.58,1.42-10Z" transform="translate(-34.48 -152.26)"/><path class="cls-8" d="M277.58,404.88c0,2.93-1.94,5.19-2.79,7.83-.37,1.17-1.15,2.21-1.16,3.51l-1.15.53-22.32.17c-1.13-.25-2.33-.29-3.17-1.26,2.52-3.5,5.89-6.3,8.16-10a2.3,2.3,0,0,1,2.22-.93Z" transform="translate(-34.48 -152.26)"/><path class="cls-13" d="M327.76,534.05c-6.12,1.71-11.75,4.63-17.51,7.21-10.88,4.85-21.81,9.6-32.17,15.55a48.44,48.44,0,0,0-5.34,3.6l-1.45-.3c7.12-8,16-13.6,25.66-18,11.21-5.09,22.57-9.83,34-14.39.67-.27,1.29-.76,2.06-.27l0-.12C331,529.37,330.05,532.23,327.76,534.05Z" transform="translate(-34.48 -152.26)"/><path class="cls-9" d="M168.53,567.26c.16.37.47.76.45,1.12-.19,3.17,1.07,2.68,3,1.4a14.18,14.18,0,0,1,4.83-2.17,14.6,14.6,0,0,0,6.85-3.49l0,1.19a5.86,5.86,0,0,1-.92,3,35.33,35.33,0,0,0-4.72,20,1.52,1.52,0,0,1-.16.42c-3.25,0-6.5.07-9.75.14-1.45,0-2.13-.61-2.13-2.06C166,580.17,166.39,573.6,168.53,567.26Z" transform="translate(-34.48 -152.26)"/><path class="cls-4" d="M345.75,415.67l-.18,1.07c-4.46-1.45-8.91.08-13.36,0-1.57,0-3.14,0-4.71,0,.09-3.48,1.31-6.85,1-10.37.1-.3.19-.59.29-.88l.27-.65a.67.67,0,0,0,.56-.24l17.83.22c.34,3.46-1.06,6.68-1.42,10C345.92,415.11,345.83,415.39,345.75,415.67Z" transform="translate(-34.48 -152.26)"/><path class="cls-10" d="M461.72,416.78l-.06-11.86a14.53,14.53,0,0,0,6.39.35l.11.14.48.65c0,3.59-.09,7.18-.13,10.77Z" transform="translate(-34.48 -152.26)"/><path class="cls-9" d="M252.78,586.92c.37,1.67,1.71,1.25,2.8,1.25,4.62,0,9.24,0,13.87,0,1,0,2.11-.29,3,.43-6.27.65-12.56.2-18.85.27C252.09,588.9,251.79,588.13,252.78,586.92Z" transform="translate(-34.48 -152.26)"/><path class="cls-2" d="M468.05,405.27a14.53,14.53,0,0,1-6.39-.35l-3.17-.44a1.28,1.28,0,0,1,1.72-.94,24.37,24.37,0,0,0,6.53.62A1.25,1.25,0,0,1,468.05,405.27Z" transform="translate(-34.48 -152.26)"/><path class="cls-2" d="M419.09,404.54a119.19,119.19,0,0,1-15.12,0A52.83,52.83,0,0,1,419.09,404.54Z" transform="translate(-34.48 -152.26)"/><path class="cls-10" d="M326.92,359.32l6.16-2.5c-.18,1.05-1.45,1.63-1.27,2.85l-.88,0C329.61,359.47,328.2,360,326.92,359.32Z" transform="translate(-34.48 -152.26)"/><path class="cls-2" d="M109.3,345c0,.68-.23,1.25-1,1.2a1.35,1.35,0,0,1-1.34-1.4c0-.78.36-1.47,1.27-1.38S109.26,344.26,109.3,345Z" transform="translate(-34.48 -152.26)"/><path class="cls-10" d="M300.45,359.94l-10.25-.4a27.68,27.68,0,0,1,10.92,0Z" transform="translate(-34.48 -152.26)"/><path class="cls-14" d="M271.29,560.11l1.45.3a7.94,7.94,0,0,1-4.14,3C268.86,561.83,270.22,561.09,271.29,560.11Z" transform="translate(-34.48 -152.26)"/><path class="cls-2" d="M468.94,427.53a45.62,45.62,0,0,1,0-10A26.38,26.38,0,0,1,468.94,427.53Z" transform="translate(-34.48 -152.26)"/><path class="cls-15" d="M452.79,604.81c-.51,3.07-2.21,2-3.85,1.1C450.19,605.43,451.27,604.35,452.79,604.81Z" transform="translate(-34.48 -152.26)"/><path class="cls-2" d="M438.2,404.41a6,6,0,0,1-3.83,0C435.65,403,436.93,403,438.2,404.41Z" transform="translate(-34.48 -152.26)"/><path class="cls-2" d="M468.79,441a7.16,7.16,0,0,1,.19-3.22C470.36,438.93,470.5,440,468.79,441Z" transform="translate(-34.48 -152.26)"/><path class="cls-5" d="M305.13,432.84c-.39-1.53-.51-2.94,1.56-3.31C306.67,430.87,305.82,431.82,305.13,432.84Z" transform="translate(-34.48 -152.26)"/><path class="cls-2" d="M382.87,404.53a12.54,12.54,0,0,1-4.92,0A6.19,6.19,0,0,1,382.87,404.53Z" transform="translate(-34.48 -152.26)"/><path class="cls-15" d="M445.8,606.69c-.51,1.72-1.45,1.47-2.55.56A4.14,4.14,0,0,1,445.8,606.69Z" transform="translate(-34.48 -152.26)"/><path class="cls-5" d="M303.66,435.93c.33-1.07-1.08-3,1.45-3A4.51,4.51,0,0,1,303.66,435.93Z" transform="translate(-34.48 -152.26)"/><path class="cls-2" d="M469,432.59a6.3,6.3,0,0,1,0-3.6A4.1,4.1,0,0,1,469,432.59Z" transform="translate(-34.48 -152.26)"/><path class="cls-2" d="M93.31,342.46a1.39,1.39,0,0,1-.3-1.71C94,341.17,93,341.91,93.31,342.46Z" transform="translate(-34.48 -152.26)"/><path class="cls-15" d="M442,607.4c-.3,1.16-.75,1.35-1.38.2Z" transform="translate(-34.48 -152.26)"/><path class="cls-2" d="M115.2,352.63a.8.8,0,0,1,.48.09l.1,1.22C114.84,353.84,114.1,353.65,115.2,352.63Z" transform="translate(-34.48 -152.26)"/><path class="cls-2" d="M389.87,404.56a3.37,3.37,0,0,1-2.4,0A1.78,1.78,0,0,1,389.87,404.56Z" transform="translate(-34.48 -152.26)"/><path class="cls-9" d="M170.31,561.6a1.74,1.74,0,0,1-.62,1.9A1.72,1.72,0,0,1,170.31,561.6Z" transform="translate(-34.48 -152.26)"/><path class="cls-9" d="M115.78,353.94l-.1-1.22a1,1,0,0,1,.66,1.21l-.28,0Z" transform="translate(-34.48 -152.26)"/><path class="cls-5" d="M310,420c.11-.4.21-.8.31-1.2A.87.87,0,0,1,310,420Z" transform="translate(-34.48 -152.26)"/><path class="cls-14" d="M266.33,565.55h0Z" transform="translate(-34.48 -152.26)"/><path class="cls-2" d="M466.74,442.22l.59-.31Z" transform="translate(-34.48 -152.26)"/><path class="cls-14" d="M267.44,564.75l-.58.2Z" transform="translate(-34.48 -152.26)"/><path class="cls-2" d="M328.76,405.46c-.1.29-.19.58-.29.88C328.57,406,328.66,405.75,328.76,405.46Z" transform="translate(-34.48 -152.26)"/><path class="cls-2" d="M468.64,406.06l-.48-.65Z" transform="translate(-34.48 -152.26)"/><path class="cls-2" d="M116.38,355.11l.57.78Z" transform="translate(-34.48 -152.26)"/><path class="cls-16" d="M153.27,607.88" transform="translate(-34.48 -152.26)"/><path class="cls-2" d="M180.5,354c.18-.25.35-.51.53-.77Z" transform="translate(-34.48 -152.26)"/><path class="cls-13" d="M333,527.46l-.08-.18.11.07Z" transform="translate(-34.48 -152.26)"/><path class="cls-2" d="M329.59,404.57a.67.67,0,0,1-.56.24C329.11,404.47,329.25,404.3,329.59,404.57Z" transform="translate(-34.48 -152.26)"/><path class="cls-14" d="M268.68,563.4l-.69.71C268,563.62,268,563.23,268.68,563.4Z" transform="translate(-34.48 -152.26)"/><path class="cls-14" d="M268.08,564.07l-.79.62C267.42,564.31,267.56,564,268.08,564.07Z" transform="translate(-34.48 -152.26)"/><path class="cls-9" d="M169.44,564.5a.7.7,0,0,1-.36.89Z" transform="translate(-34.48 -152.26)"/><path class="cls-5" d="M303.13,436.79l.54-.87Z" transform="translate(-34.48 -152.26)"/><path class="cls-9" d="M169.06,565.46a.52.52,0,0,1-.16.55,3.18,3.18,0,0,1-.06-.43S169,565.5,169.06,565.46Z" transform="translate(-34.48 -152.26)"/><path class="cls-2" d="M165.44,198.8c0,4.55-4.45,9.07-8.85,9s-8.56-4.37-8.56-8.92a8.92,8.92,0,0,1,8.87-8.82A8.76,8.76,0,0,1,165.44,198.8Z" transform="translate(-34.48 -152.26)"/><path class="cls-6" d="M214.76,188.29c.19.22.39.43.58.64s-.26,1,.62.73c.21.21.45.39.64.62,3.25,4,3.25,4-.6,7.48-1-.42-.45.46-.62.73l0,0c-2.75,1.61-5.06.59-7.24-1.2l.13.1a1.69,1.69,0,0,0-1.81-1.46v0c-.56-1.95.93-3.44,1.18-5.21l0,.12a1.64,1.64,0,0,0,1.25-2v.12c.23-.25.47-.5.71-.74l-.11.06a10.71,10.71,0,0,1,4.63-.52h0Z" transform="translate(-34.48 -152.26)"/><path class="cls-5" d="M208.17,197.26c2.18,1.79,4.49,2.81,7.24,1.2C212.62,201.62,210.3,201.24,208.17,197.26Z" transform="translate(-34.48 -152.26)"/><path class="cls-5" d="M207.66,190.67c-.25,1.77-1.74,3.26-1.18,5.21C205.24,193.78,205.07,191.91,207.66,190.67Z" transform="translate(-34.48 -152.26)"/><path class="cls-5" d="M214.08,187.66a10.71,10.71,0,0,0-4.63.52C210.77,186,212.38,186.42,214.08,187.66Z" transform="translate(-34.48 -152.26)"/><path class="cls-5" d="M208.86,188.74a1.64,1.64,0,0,1-1.25,2C207.86,190,207.73,189,208.86,188.74Z" transform="translate(-34.48 -152.26)"/><path class="cls-5" d="M206.49,195.9a1.69,1.69,0,0,1,1.81,1.46A3.2,3.2,0,0,1,206.49,195.9Z" transform="translate(-34.48 -152.26)"/><path class="cls-5" d="M216,189.66c-.88.32-.43-.47-.62-.73Z" transform="translate(-34.48 -152.26)"/><path class="cls-5" d="M215.38,198.49c.17-.27-.37-1.15.62-.73Z" transform="translate(-34.48 -152.26)"/><path class="cls-1" d="M93.14,320.42l.45.35-.54.25A.59.59,0,0,1,93.14,320.42Z" transform="translate(-34.48 -152.26)"/><path class="cls-5" d="M209.56,188.12c-.24.24-.48.49-.71.74C208.78,188.33,209,188,209.56,188.12Z" transform="translate(-34.48 -152.26)"/><path class="cls-5" d="M214.76,188.29l-.68-.63Z" transform="translate(-34.48 -152.26)"/><path class="cls-2" d="M539.64,336.51c-8,3-15.1-1.8-15.16-10.4,0-6.75-.05-13.51.08-20.25.06-3.3.34-6.65,3.25-9,3.82-2.6,7.85-3.83,12.14-1.29s5.7,6.51,5.61,11.31c-.12,6-.2,12.06,0,18.08A12.35,12.35,0,0,1,539.64,336.51Z" transform="translate(-34.48 -152.26)"/><path class="cls-8" d="M532.72,371.85a3.18,3.18,0,0,0,1.29,1.82c1,5.56-.1,7.95-4.27,9.65-1.87.76-3.45-.08-5.16-.27a2.29,2.29,0,0,0-1.25-1.81l-.6-.75h.06c-1.38-3.52-.39-6.53,2-9.23a1,1,0,0,0,1.14-.43c2.1-.89,4.11-.24,6.12.36v0Z" transform="translate(-34.48 -152.26)"/><path class="cls-1" d="M460.47,307.62q-79.1,0-158.21,0c-2.89,0-5.77-.56-8.7-.51-1.66,0-2.91-.34-2.27,2.25a4.24,4.24,0,0,1-3.16,5.12c-3,.85-3.89,2.67-3.55,5.39.37,2.9-.7,3.81-3.65,3.74-4-.09-8-.6-12,.46-1,.26-1.29.5-.89,1.42-.94,0-1.89.15-2.83.15-19.21,0-38.42,0-57.63-.1-2.21,0-3.15.47-2.57,2.77a5.93,5.93,0,0,1,0,1.57c-1.94-1-1.07-2.8-.85-4.18s1.71-.83,2.68-.89c1.32-.08,2.65,0,4.13-.22-1-.57-3.1-.17-1.76-2.42.33-.56-1.13-1-1.91-1.2a2.39,2.39,0,0,1-2.06-3l1.18-.36c1.14,1.25,1.74.9,1.94-.65l.17-.08.15.13c1.13,0,2.62.79,2.83-1.27a2.63,2.63,0,0,1,1.92-.62c.32.23.72.7,1,.63,3.17-.87,6.13-2.41,9.47-2.8a2.35,2.35,0,0,0,1.67-2.09l2.51-.74c1.15,1.14,1.71.7,1.91-.71l1.89-.6c.93,1,1.15.35,1.31-.52l2.49-.76c1,1.08,1.17.31,1.31-.56l1.91-.6c.89.93,1.12.28,1.28-.53a3.8,3.8,0,0,1,2.49-.83c1.34,1.2,1.58.07,1.9-.89,14.34-5.57,28.84-10.72,43.38-15.75,1.72-.6,1.73-1.26.3-2.24-3.38-2.32-6.73-4.68-10.09-7,13.79-5.6,28-10,42.07-14.79,1.37-.47,3.28-.72,3.1-3L325,262c2.7,2,5.46,4,8.05,6.09a5.23,5.23,0,0,0,5.78.9c18.74-6.7,37.54-13.24,56.32-19.84,18.2-6.4,36.42-12.77,54.59-19.28,3.83-1.37,7.75-2.79,10.64-5.94,7.88-7.1,10.77-16,9.36-26.37a40.09,40.09,0,0,0-3.67-11.18l.1-.09c3.58,3.52,4.48,8.14,4.95,12.8.65,6.52-1,12.53-3.52,18.62-1,2.49.9,6.37,1.91,9.49.28.84,2.13.51,3.27.2.8-.22,1.67-.74,2.38,0s-.1,1.48-.41,2.21c-1.07,2.59-.14,4,2.78,4.41-5.62,7.29-13.24,11.77-21.7,14.77-16.63,5.9-33.36,11.5-50,17.25l-97.35,33.66-17.1,5.9c1.51,1,2.87.69,4.1.69q48.24.08,96.48.11,30.94,0,61.88.05C456.11,306.43,458.42,306.33,460.47,307.62ZM240.32,324.21a9.81,9.81,0,0,0,5.3.35C243.9,323.32,242.56,323.29,240.32,324.21Zm21.8.39.09-.32h-6.77v.32Z" transform="translate(-34.48 -152.26)"/><path class="cls-6" d="M523.9,423.83a6.37,6.37,0,0,1-6.32,6.17,6.7,6.7,0,0,1-6.37-6.58,6.59,6.59,0,0,1,6.37-6.54A6.77,6.77,0,0,1,523.9,423.83Z" transform="translate(-34.48 -152.26)"/><path class="cls-2" d="M455,277.87c3.19.1,6.21,3.54,6.05,6.91a6.3,6.3,0,0,1-6.39,5.72,6.13,6.13,0,0,1-5.81-6.27C448.9,280.78,451.79,277.78,455,277.87Z" transform="translate(-34.48 -152.26)"/><path class="cls-2" d="M504.33,286.05c-1.06,1.93-2.07,3.88-4.51,4.44a6.12,6.12,0,0,1-7-3.58,6.54,6.54,0,0,1,2.86-8.17c2.64-1.45,5.31-.7,7.36,2,.37.5.78,1,1.17,1.47l.1.62c0,.86,0,1.71.07,2.56Z" transform="translate(-34.48 -152.26)"/><path class="cls-1" d="M477.55,234c-.19-1.84.09-3.48,1.78-4.6a.9.9,0,0,1,1.49.36C479.43,231,479.21,233,477.55,234Z" transform="translate(-34.48 -152.26)"/><path class="cls-1" d="M470.07,310.07a13,13,0,0,1-7.1-1.9A12.29,12.29,0,0,1,470.07,310.07Z" transform="translate(-34.48 -152.26)"/><path class="cls-1" d="M476.42,313.24c-1.67.05-3.25-.05-3.77-2.07A9.43,9.43,0,0,1,476.42,313.24Z" transform="translate(-34.48 -152.26)"/><path class="cls-1" d="M479.09,314.85c-1.5.44-2.54.1-2.72-1.64Z" transform="translate(-34.48 -152.26)"/><path class="cls-1" d="M472.69,311.21c-1.23.35-2.26.26-2.7-1.19A4.82,4.82,0,0,1,472.69,311.21Z" transform="translate(-34.48 -152.26)"/><path class="cls-1" d="M463,308.22c-.72,0-1.47.16-2-.54C461.86,307.27,462.59,307.23,463,308.22Z" transform="translate(-34.48 -152.26)"/><path class="cls-1" d="M480.33,315.81c-.62,0-1.24,0-1.17-.92Z" transform="translate(-34.48 -152.26)"/><path class="cls-16" d="M532.72,371.85l-.64-.68Z" transform="translate(-34.48 -152.26)"/><path class="cls-12" d="M504.33,286.05l.09-.62a2.85,2.85,0,0,1,.12.46C504.54,285.94,504.4,286,504.33,286.05Z" transform="translate(-34.48 -152.26)"/><path class="cls-12" d="M504.35,282.87l-.1-.62a2.29,2.29,0,0,1,.28.41S504.41,282.8,504.35,282.87Z" transform="translate(-34.48 -152.26)"/><path class="cls-16" d="M522.73,380.49l.6.75Z" transform="translate(-34.48 -152.26)"/><path class="cls-3" d="M124.4,283.37a24.8,24.8,0,0,1,13.51-10.91q41.21-14.08,82.38-28.24c30.33-10.42,60.63-20.93,91-31.3q48.35-16.53,96.77-32.82c7.28-2.45,14.47-5.15,21.94-7.08,11.24-2.92,21.43-1.5,30.31,6.44a1.34,1.34,0,0,1-.05.49l-3.59.72-1.9,0c-5.73-4.45-12.37-5.2-19.17-4.11s-13.32,3.88-19.85,6.21c-1.55.55-3.35.72-4.38,2.31-1.29-.82-2.45-.05-3.61.34-20.75,7-41.51,14-62.22,21.22-7.44,2.57-15.08,4.64-22.24,8a21.3,21.3,0,0,0-2.78.52c-10.78,3.55-21.56,7.07-32.3,10.74-3.45,1.18-7,2.07-10.17,4.11a34.42,34.42,0,0,0-3.68.82c-10.88,3.72-21.77,7.42-32.61,11.25-4.14,1.45-8.52,2.31-12.35,4.61a15.91,15.91,0,0,0-1.85.35c-9.16,3-18.37,6-27.46,9.19-5.63,2-11.55,3.21-16.78,6.26a26.91,26.91,0,0,0-3.37.73c-11.74,4-23.48,8-35.18,12.13-2.94,1-6,1.9-8.46,4l-12,4Z" transform="translate(-34.48 -152.26)"/><path class="cls-13" d="M205,329.86a5.93,5.93,0,0,0,0-1.57c-.58-2.3.36-2.78,2.57-2.77,19.21.1,38.42.09,57.63.1.94,0,1.89-.1,2.83-.15a15.56,15.56,0,0,0,5.05,0,52.1,52.1,0,0,0,8.92,0h1.24c1,.05,1.9.14,2.84.14,48.28,0,96.56,0,144.84.12,9.15,0,18.34-.66,27.48.6a29.13,29.13,0,0,1,14.93,8.7.6.6,0,0,0,.2.52c-2.3.89-4.37,1-6.51-.74a15.25,15.25,0,0,0-6.83-3,11.65,11.65,0,0,0-5.28-.81q-23.78,0-47.54.05a16.77,16.77,0,0,0-1.87.24,26.05,26.05,0,0,0-3.13-.41c-7.92,0-15.85-.16-23.77,0-8.65.22-17.32-.42-26,.35-9.5-.56-19-.16-28.5-.1l-26.39,0a7,7,0,0,0-3.41-.52q-23.3.06-46.59.09a8.43,8.43,0,0,0-3.42.48l-39-.18Z" transform="translate(-34.48 -152.26)"/><path class="cls-4" d="M136.3,279.36c2.45-2.12,5.52-3,8.46-4,11.7-4.13,23.44-8.12,35.18-12.13a26.91,26.91,0,0,1,3.37-.73,170.56,170.56,0,0,0,16,10.63c.14.27.2.65.43.8q8.85,5.85,17.73,11.66a.51.51,0,0,0-.3.49,7.73,7.73,0,0,0-1.54.23l-26.5,9.48c-12.49-12.59-27.62-18.28-45.29-17.22C141.31,278.71,138.81,279.08,136.3,279.36Z" transform="translate(-34.48 -152.26)"/><path class="cls-9" d="M189.12,295.77l26.5-9.48a7.73,7.73,0,0,1,1.54-.23l1.35.11a2.63,2.63,0,0,0,1.86,1.27,1.08,1.08,0,0,0,1.3,1,5.18,5.18,0,0,0,2.51,1.54,1.09,1.09,0,0,0,1.31,1l.58.3a1.15,1.15,0,0,0,1.33,1,.64.64,0,0,0,.55.28c.18.71.58,1.12,1.36,1l2.33,1.57c.58,1.41,2.06,1.7,3.11,2.53,2.94,2.36,6.86,3.32,9.21,6.51l-1.34.88a3.8,3.8,0,0,0-2.49.83,1.15,1.15,0,0,0-1.28.53l-1.91.6a1.31,1.31,0,0,0-1.31.56l-2.49.76a1.26,1.26,0,0,0-1.31.52l-1.89.6a2.36,2.36,0,0,0-1.91.71l-2.51.74a63.32,63.32,0,0,0-12.11,4.26,2.63,2.63,0,0,0-1.92.62,3.43,3.43,0,0,0-2.83,1.27l-.15-.13-.17.08a2.39,2.39,0,0,0-1.94.65l-1.18.36c-.94-.21-2.13.95-2.73-1C200,308.73,194.83,302.06,189.12,295.77Z" transform="translate(-34.48 -152.26)"/><path class="cls-13" d="M184.89,331.8l-4.32-.07c-1.14-5.47-2.76-10.61-6-15.4a32.16,32.16,0,0,0-48.91-5c-4.56,4.38-7.88,9.5-8.76,15.75-.49,3.56-1.89,5-5.35,4.65,1.62-19.79,15.41-33.34,35.31-34.22a36.55,36.55,0,0,1,35.75,22.58A25.62,25.62,0,0,1,184.89,331.8Z" transform="translate(-34.48 -152.26)"/><path class="cls-1" d="M460.25,180a1.34,1.34,0,0,0,.05-.49,2.64,2.64,0,0,1,2.7,2.43l-.14.14a1.33,1.33,0,0,0-.56.11Z" transform="translate(-34.48 -152.26)"/><path class="cls-1" d="M463,181.89c1.52.16,1.88,1.21,1.93,2.5l-.08.09c-.77-.73-1.91-1.16-2-2.45Z" transform="translate(-34.48 -152.26)"/><path class="cls-1" d="M464.93,184.39c1.13.17,1.2,1.05,1.27,1.92l-.1.09a3,3,0,0,1-1.25-1.92Z" transform="translate(-34.48 -152.26)"/><path class="cls-3" d="M124.31,283.32l.23.43-.23.11c0-.16.07-.32.1-.48Z" transform="translate(-34.48 -152.26)"/><path class="cls-11" d="M178,588.29a35.33,35.33,0,0,1,4.72-20,5.86,5.86,0,0,0,.92-3c2.11.25,2.44-1.48,3.14-2.81a2.26,2.26,0,0,1-.15-.41c0-.05.06-.13.1-.19,2.21-2.43,4.58-4.74,6.62-7.31,11.09-13.88,24.78-24,41.63-30,7.6-2.67,15-5.93,22.51-8.86,15.65-6.11,31.18-12.5,46.7-18.91,21.29-8.81,38.2-22.64,50.57-42.08,6.43-10.1,11.28-21,16.75-31.64,1-2,2.41-4,2.51-6.41,1.73-1.06,3.45.12,5.19.09,9.72-.14,19.45-.07,29.18,0,1.11,0,2.64-.6,3.26.46s-.69,2.08-1.34,2.93c-7.52,9.77-14.26,20.08-21.33,30.16-7.66,10.92-16.88,20.4-26.56,29.54a170.2,170.2,0,0,1-24.62,19.23,108.45,108.45,0,0,1-16.92,8.51q-17.34,7.29-34.7,14.51c-10.5,4.39-21,8.73-31.48,13.19-7.92,3.39-14.73,8.55-21.45,13.83-7.28,5.72-12,13.48-16.79,21.13-3.19,5.09-6.22,10.33-7.39,16.35-.37,1.89-1.61,1.62-2.84,1.62Z" transform="translate(-34.48 -152.26)"/><path class="cls-13" d="M374.05,416.72c-.1,2.43-1.46,4.37-2.51,6.41-5.47,10.61-10.32,21.54-16.75,31.64-12.37,19.44-29.28,33.27-50.57,42.08-15.52,6.41-31.05,12.8-46.7,18.91C250,518.69,242.61,522,235,524.62c-16.85,5.93-30.54,16.09-41.63,30-2,2.57-4.41,4.88-6.62,7.31-2.45.25-.89-1.23-.65-1.77a66.73,66.73,0,0,1,8.07-13c11-14.4,26.35-22.25,42.78-28.59q25.95-10,51.69-20.6c4.53-1.85,9.26-3.34,13.44-6,.62,0,1.24-.07,1.56-.73v.07a4.37,4.37,0,0,0,2.55-1.35l0,0a3.9,3.9,0,0,0,3.22-1.29l0,.06a76.45,76.45,0,0,0,24.7-16.51,3.2,3.2,0,0,0,1.57-1.61l.12-.12c.86-.77,1.77-1.48,2.56-2.32a122.33,122.33,0,0,0,21.78-32.83c2.89-6.2,6.83-11.89,8.85-18.5l.13-.12Z" transform="translate(-34.48 -152.26)"/><path class="cls-1" d="M458.43,326.3c-9.14-1.26-18.33-.57-27.48-.6-48.28-.14-96.56-.09-144.84-.12-.94,0-1.89-.09-2.84-.14,1.15-1.17,2.61-.64,3.92-.64,33.17,0,66.34,0,99.51-.05,8.37,0,16.74-.51,25.12-.56,5.68,0,11.33.88,17,.6,5.25-.27,10.51-.57,15.76-.6,3.75,0,7.5.37,11.24.61A2.61,2.61,0,0,1,458.43,326.3Z" transform="translate(-34.48 -152.26)"/><path class="cls-1" d="M282,325.45a52.1,52.1,0,0,1-8.92,0A12.52,12.52,0,0,1,282,325.45Z" transform="translate(-34.48 -152.26)"/><path class="cls-1" d="M476.22,338.18c-.88-.67-1.85-1.27-2-2.52C476.06,335.59,476.35,336.72,476.22,338.18Z" transform="translate(-34.48 -152.26)"/><path class="cls-1" d="M473.56,335.52a.6.6,0,0,1-.2-.52l1,.69Z" transform="translate(-34.48 -152.26)"/><path class="cls-8" d="M173.49,475.91a1,1,0,0,1,1.21-.64A1.14,1.14,0,0,1,173.49,475.91Z" transform="translate(-34.48 -152.26)"/><path class="cls-4" d="M382.75,540.52c4.08-7.95,9.77-14.78,15.36-21.63,16.73-20.54,38.09-35.07,61.54-46.8a10,10,0,0,1,1.2-.42,132.84,132.84,0,0,1,0,20.92c-.9,10.34-7.29,17.05-16.31,21.33-8.4,4-16.93,7.66-25.43,11.4q-14.06,6.2-28.17,12.23C388.3,538.69,385.73,540.21,382.75,540.52Z" transform="translate(-34.48 -152.26)"/><path class="cls-2" d="M131.6,335.07a16.78,16.78,0,1,1,33.55.47c-.22,8.59-8.3,16.65-16.66,16.34C138.34,351.51,131.49,343.69,131.6,335.07Z" transform="translate(-34.48 -152.26)"/><path class="cls-9" d="M334.05,472.15a76.45,76.45,0,0,1-24.7,16.51c.77-4.23-2-8.43-7.13-10.91,5.26-4,10.89-7.5,15.47-12.34,1.94-2.05,3.95-4,5.94-6.05.72-.1.93-.6,1-1.23l.55-.62.91-.73.7-.74c.49.93,1.49,1.91,1.39,2.77-.5,4.41,1.93,7,5.14,9.3.88.63,2.1,1.05,2.44,2.31l-.12.11C333.72,470.3,333.52,470.51,334.05,472.15Z" transform="translate(-34.48 -152.26)"/><path class="cls-14" d="M186.81,562.5c-.7,1.33-1,3.06-3.14,2.81l0-1.19C184.89,563.87,184.72,561,186.81,562.5Z" transform="translate(-34.48 -152.26)"/><path class="cls-9" d="M309.37,488.6a3.9,3.9,0,0,1-3.22,1.29C306.56,487.81,308.18,488.75,309.37,488.6Z" transform="translate(-34.48 -152.26)"/><path class="cls-9" d="M306.19,489.85a4.37,4.37,0,0,1-2.55,1.35C303.77,489.4,305.14,489.94,306.19,489.85Z" transform="translate(-34.48 -152.26)"/><path class="cls-9" d="M303.65,491.13c-.32.66-.94.69-1.56.73A1.74,1.74,0,0,1,303.65,491.13Z" transform="translate(-34.48 -152.26)"/><path class="cls-7" d="M352.67,331.26c8.64-.77,17.31-.13,26-.35,7.92-.2,15.85-.07,23.77,0a26.05,26.05,0,0,1,3.13.41c-4.68,6.15-9,12.58-14.16,18.35-4-2.88-8.6-3.45-13.29-3.9a15.73,15.73,0,0,1-3.34-.9c-5.33-1.78-5.35-1.81-9.1,2.73-2.35,2.84-4.67,5.71-6.87,8.66a8,8,0,0,1-7,3.52c-6.65-.12-13.31-.06-20-.07-.18-1.22,1.09-1.8,1.27-2.85l0-.05c4.77-5.06,8.61-10.83,12.69-16.41l.12-.15A61.76,61.76,0,0,0,352.67,331.26Z" transform="translate(-34.48 -152.26)"/><path class="cls-1" d="M379.76,365.39c.07,1.41-.23,2.54-2,2.48A3.87,3.87,0,0,1,379.76,365.39Z" transform="translate(-34.48 -152.26)"/><path class="cls-1" d="M377.19,368.52c.11,1.43-.16,2.56-1.94,2.53A3.51,3.51,0,0,1,377.19,368.52Z" transform="translate(-34.48 -152.26)"/><path class="cls-1" d="M380.39,364.72l-.63.67Z" transform="translate(-34.48 -152.26)"/><path class="cls-1" d="M381,363.85l-.62.9Z" transform="translate(-34.48 -152.26)"/><path class="cls-1" d="M377.83,367.85l-.65.71A.65.65,0,0,1,377.83,367.85Z" transform="translate(-34.48 -152.26)"/><path class="cls-7" d="M244.36,331.19a8.43,8.43,0,0,1,3.42-.48q23.29,0,46.59-.09a7,7,0,0,1,3.41.52l-15.86,22.08-.05-.1.07.05-1,1.36a1,1,0,0,0-.89,1.05.32.32,0,0,0-.25.31,5,5,0,0,0-3.19,3.78l-.69.09c-8.86-.55-17.74-.18-26.61-.22-8.34,0-16.69,0-25,0,4.47-7.18,9.79-13.77,14.67-20.67C240.8,336.36,242.57,333.77,244.36,331.19Z" transform="translate(-34.48 -152.26)"/><path class="cls-10" d="M352.67,331.26a61.76,61.76,0,0,1-6.81,8.95c-.14-2.77,2.44-3.95,3.5-6,.33-.62,1.24-1.1.9-1.89-.42-1-1.47-.59-2.25-.6-6.95,0-13.91,0-20.87,0-1,0-2.13.45-3-.52C333.67,331.1,343.17,330.7,352.67,331.26Z" transform="translate(-34.48 -152.26)"/><path class="cls-10" d="M345.74,340.36c-4.08,5.58-7.92,11.35-12.69,16.41,0-3,2.67-4.35,4-6.5,1.78-2.84,3.9-5.47,5.94-8.14C343.68,341.25,344.38,340.26,345.74,340.36Z" transform="translate(-34.48 -152.26)"/><path class="cls-10" d="M276.64,359.67a5,5,0,0,1,3.19-3.78c-.11,1.31-2.17,2.12-1,3.77Z" transform="translate(-34.48 -152.26)"/><path class="cls-10" d="M280.08,355.58a1,1,0,0,1,.89-1.05C281.07,355.21,280.75,355.54,280.08,355.58Z" transform="translate(-34.48 -152.26)"/><polygon class="cls-10" points="247.46 200.91 247.39 200.86 247.43 200.96 247.46 200.91"/><path class="cls-10" d="M288.44,359.55h-.78C287.91,359.18,288.17,359.16,288.44,359.55Z" transform="translate(-34.48 -152.26)"/><path class="cls-1" d="M266.73,373c.12,1.45-.16,2.59-2,2.52A3.79,3.79,0,0,1,266.73,373Z" transform="translate(-34.48 -152.26)"/><path class="cls-1" d="M268.08,371.23a1.12,1.12,0,0,1-.77,1.12A1,1,0,0,1,268.08,371.23Z" transform="translate(-34.48 -152.26)"/><path class="cls-1" d="M267.37,372.3l-.67.7A.69.69,0,0,1,267.37,372.3Z" transform="translate(-34.48 -152.26)"/><path class="cls-10" d="M335.74,470.42c-.34-1.26-1.56-1.68-2.44-2.31-3.21-2.32-5.64-4.89-5.14-9.3.1-.86-.9-1.84-1.39-2.77,1.43-3.82,4.55-6.54,6.49-10.06,5-9.09,9.67-18.27,12-28.47a2.77,2.77,0,0,1,.51-.8l23.18.06c-2,6.61-6,12.3-8.85,18.5A122.33,122.33,0,0,1,338.3,468.1C337.51,468.94,336.6,469.65,335.74,470.42Z" transform="translate(-34.48 -152.26)"/><path class="cls-10" d="M324.61,458.13c-.05.63-.26,1.13-1,1.23Z" transform="translate(-34.48 -152.26)"/><path class="cls-10" d="M326.07,456.78l-.91.73Z" transform="translate(-34.48 -152.26)"/><path class="cls-10" d="M345.75,415.67c.08-.28.17-.56.25-.84C345.92,415.11,345.83,415.39,345.75,415.67Z" transform="translate(-34.48 -152.26)"/><path class="cls-16" d="M50.36,366.64c-.22-.23-.43-.47-.65-.71a4,4,0,0,0,.6,0C50.32,366.15,50.34,366.39,50.36,366.64Z" transform="translate(-34.48 -152.26)"/><path class="cls-16" d="M51,367.29l-.63-.66Z" transform="translate(-34.48 -152.26)"/><path class="cls-5" d="M460.41,224c-2.89,3.15-6.81,4.57-10.64,5.94-18.17,6.51-36.39,12.88-54.59,19.28-18.78,6.6-37.58,13.14-56.32,19.84a5.23,5.23,0,0,1-5.78-.9C330.49,266,327.73,264,325,262c12.87-4.54,25.76-9,38.6-13.68,1.79-.65,4.9-.53,5-2.53s-2.92-2.84-4.6-4.16c-2.18-1.72-5.29-2.22-6.6-5.05,4.86-1.73,9.71-3.49,14.58-5.17,8.94-3.1,17.92-6.12,26.86-9.22,11.82-4.11,23.66-8.19,35.41-12.49,2.25-.83,5.16-.63,6.61-3.21l2.34.83c0,.88.72,1.18,1.28,1.64C450.14,213.61,455.92,218.1,460.41,224Z" transform="translate(-34.48 -152.26)"/><path class="cls-8" d="M357.42,236.6c1.31,2.83,4.42,3.33,6.6,5.05,1.68,1.32,4.7,2.06,4.6,4.16s-3.2,1.88-5,2.53C350.79,253,337.9,257.48,325,262l-1.75-.66-.07-.05c-.18-.59-.64-.71-1.17-.7h0a1.41,1.41,0,0,0-1.24-.83A60.56,60.56,0,0,0,310.63,253c-.77-1.66-2.5-2.16-3.81-3.17-4.29-3.32-9.43-5.46-13.24-9.45a8.43,8.43,0,0,1,1.6-1c11.67-4,23.37-7.89,35-12,2.73-1,5.72-1.46,8-3.55C344.47,228.3,350.83,232.62,357.42,236.6Z" transform="translate(-34.48 -152.26)"/><path class="cls-2" d="M310.62,253a60.24,60.24,0,0,1,10.19,6.83c.14.68.64.83,1.24.83h0a1.22,1.22,0,0,0,1.17.7l.07.05c.18,2.24-1.73,2.49-3.1,3-14.06,4.82-28.28,9.19-42.07,14.79l-1.75-.72-12.78-9.32c3.26-.49,6.16-2.06,9.26-3C285.54,262,298.28,258,310.62,253Z" transform="translate(-34.48 -152.26)"/><path class="cls-5" d="M276.36,278.39l1.75.72c3.36,2.34,6.71,4.7,10.09,7,1.43,1,1.42,1.64-.3,2.24-14.54,5-29,10.18-43.38,15.75a.5.5,0,0,0-.56,0c-2.35-3.19-6.27-4.15-9.21-6.51-1.05-.83-2.53-1.12-3.11-2.53a16.21,16.21,0,0,0,3.73-.45c11.78-4.41,23.64-8.59,35.48-12.83C272.73,281.14,275.77,281.48,276.36,278.39Z" transform="translate(-34.48 -152.26)"/><path class="cls-8" d="M460.41,224c-4.49-5.85-10.27-10.34-15.91-15-.56-.46-1.28-.76-1.28-1.64,1.66-.66,3.35-1.26,5-2,8.44-3.82,11.76-10.16,9.64-18.19-.62-2.38-2.75-4-3.08-6.5l1.9,0c.3,2.63,2.67,3.25,5.64,1.47a1.33,1.33,0,0,1,.56-.11c.08,1.29,1.22,1.72,2,2.45a3,3,0,0,0,1.25,1.92,40.09,40.09,0,0,1,3.67,11.18C471.18,208,468.29,216.85,460.41,224Z" transform="translate(-34.48 -152.26)"/><path class="cls-2" d="M213.41,315.12a63.32,63.32,0,0,1,12.11-4.26,2.35,2.35,0,0,1-1.67,2.09c-3.34.39-6.3,1.93-9.47,2.8C214.13,315.82,213.73,315.35,213.41,315.12Z" transform="translate(-34.48 -152.26)"/><path class="cls-2" d="M240.32,324.21c2.24-.92,3.58-.89,5.3.35A9.81,9.81,0,0,1,240.32,324.21Z" transform="translate(-34.48 -152.26)"/><path class="cls-2" d="M262.12,324.6h-6.68v-.32h6.77Z" transform="translate(-34.48 -152.26)"/><path class="cls-2" d="M208.66,317a3.43,3.43,0,0,1,2.83-1.27C211.28,317.8,209.79,317,208.66,317Z" transform="translate(-34.48 -152.26)"/><path class="cls-2" d="M228,310.12a2.36,2.36,0,0,1,1.91-.71C229.74,310.82,229.18,311.26,228,310.12Z" transform="translate(-34.48 -152.26)"/><path class="cls-2" d="M206.4,317.61a2.39,2.39,0,0,1,1.94-.65C208.14,318.51,207.54,318.86,206.4,317.61Z" transform="translate(-34.48 -152.26)"/><path class="cls-2" d="M244,304.13a.5.5,0,0,1,.56,0c-.32,1-.56,2.09-1.9.89Z" transform="translate(-34.48 -152.26)"/><path class="cls-2" d="M238.85,306.37a1.15,1.15,0,0,1,1.28-.53C240,306.65,239.74,307.3,238.85,306.37Z" transform="translate(-34.48 -152.26)"/><path class="cls-2" d="M231.83,308.81a1.26,1.26,0,0,1,1.31-.52C233,309.16,232.76,309.85,231.83,308.81Z" transform="translate(-34.48 -152.26)"/><path class="cls-2" d="M235.63,307.53a1.31,1.31,0,0,1,1.31-.56C236.8,307.84,236.62,308.61,235.63,307.53Z" transform="translate(-34.48 -152.26)"/><path class="cls-6" d="M357.42,236.6c-6.59-4-12.95-8.3-19.24-12.72a166.43,166.43,0,0,0-14.89-9.25c7.16-3.37,14.8-5.44,22.24-8,20.71-7.17,41.47-14.17,62.22-21.22,1.16-.39,2.32-1.16,3.61-.34,4,3.78,8.78,6.47,13.22,9.63,5.19,3.72,10.71,7,15.47,11.3l.75.67.08-.16c-1.45,2.59-4.36,2.39-6.61,3.22-11.75,4.3-23.59,8.38-35.41,12.49-8.94,3.1-17.92,6.12-26.86,9.22C367.13,233.11,362.28,234.87,357.42,236.6Z" transform="translate(-34.48 -152.26)"/><path class="cls-7" d="M440.05,206c-4.76-4.31-10.28-7.58-15.47-11.3-4.44-3.16-9.23-5.85-13.22-9.63,1-1.59,2.83-1.76,4.38-2.31,6.53-2.33,13-5.11,19.85-6.21s13.44-.34,19.17,4.11c.33,2.5,2.46,4.12,3.08,6.5,2.12,8-1.2,14.37-9.64,18.19-1.63.74-3.32,1.34-5,2l-2.34-.83-.08.15C440.8,206.16,440.5,206,440.05,206Z" transform="translate(-34.48 -152.26)"/><path class="cls-11" d="M229.4,246.68c3.83-2.3,8.21-3.16,12.35-4.61,10.84-3.83,21.73-7.53,32.61-11.25A34.42,34.42,0,0,1,278,230c1.4.94,2.8,1.85,4.18,2.81,3.5,2.45,7.39,4.35,10.36,7.54l-47.67,16.56A97.84,97.84,0,0,1,229.4,246.68Z" transform="translate(-34.48 -152.26)"/><path class="cls-7" d="M229.4,246.68a97.84,97.84,0,0,0,15.51,10.23c0,.22,0,.45,0,.67a9.54,9.54,0,0,0-4.31.8c-9.08,3.11-18.21,6.07-27.21,9.41-4.71,1.75-9.88,2.3-14.11,5.32a170.56,170.56,0,0,1-16-10.63c5.23-3.05,11.15-4.27,16.78-6.26,9.09-3.23,18.3-6.15,27.46-9.19A15.91,15.91,0,0,1,229.4,246.68Z" transform="translate(-34.48 -152.26)"/><path class="cls-7" d="M292.58,240.35c-3-3.19-6.86-5.09-10.36-7.54-1.38-1-2.78-1.87-4.18-2.81,3.12-2,6.72-2.93,10.17-4.11,10.74-3.67,21.52-7.19,32.3-10.74a21.3,21.3,0,0,1,2.78-.52,166.43,166.43,0,0,1,14.89,9.25c-2.26,2.09-5.25,2.59-8,3.55-11.65,4.07-23.35,8-35,12a8.43,8.43,0,0,0-1.6,1Z" transform="translate(-34.48 -152.26)"/><path class="cls-7" d="M462.3,182.14c-3,1.78-5.34,1.16-5.64-1.47l3.59-.72Z" transform="translate(-34.48 -152.26)"/><path class="cls-8" d="M199.3,273.11c4.23-3,9.4-3.57,14.11-5.32,9-3.34,18.13-6.3,27.21-9.41a9.54,9.54,0,0,1,4.31-.8c.83.41,1.68.79,2.48,1.26,5.49,3.25,10.45,7.33,16.17,10.23l12.78,9.32c-.59,3.09-3.63,2.75-5.51,3.42-11.84,4.24-23.7,8.42-35.48,12.83a16.21,16.21,0,0,1-3.73.45l-2.33-1.56c-.05-.88-.53-1.18-1.36-1a.64.64,0,0,1-.55-.28c-.05-.85-.51-1.16-1.33-1l-.58-.3c0-.85-.52-1.12-1.31-1a5.18,5.18,0,0,1-2.51-1.54c0-.86-.49-1.15-1.3-1a2.63,2.63,0,0,1-1.86-1.27c-.11-.62-.52-.71-1-.6q-8.88-5.82-17.73-11.66C199.5,273.76,199.44,273.38,199.3,273.11Z" transform="translate(-34.48 -152.26)"/><path class="cls-5" d="M217.46,285.57c.53-.11.94,0,1,.6l-1.35-.11A.51.51,0,0,1,217.46,285.57Z" transform="translate(-34.48 -152.26)"/><path class="cls-5" d="M226.07,291.24c.82-.17,1.28.14,1.33,1A1.15,1.15,0,0,1,226.07,291.24Z" transform="translate(-34.48 -152.26)"/><path class="cls-5" d="M224.18,290c.79-.15,1.27.12,1.31,1A1.09,1.09,0,0,1,224.18,290Z" transform="translate(-34.48 -152.26)"/><path class="cls-5" d="M220.37,287.44c.81-.16,1.27.13,1.3,1A1.08,1.08,0,0,1,220.37,287.44Z" transform="translate(-34.48 -152.26)"/><path class="cls-5" d="M228,292.51c.83-.16,1.31.14,1.36,1A1.14,1.14,0,0,1,228,292.51Z" transform="translate(-34.48 -152.26)"/><path class="cls-10" d="M334.05,472.15c-.53-1.64-.33-1.85,1.57-1.62A3.18,3.18,0,0,1,334.05,472.15Z" transform="translate(-34.48 -152.26)"/><path class="cls-10" d="M263.58,269.07c-5.72-2.9-10.68-7-16.17-10.23-.8-.47-1.65-.85-2.48-1.26,0-.22,0-.45,0-.67l47.67-16.56h1c3.81,4,8.95,6.13,13.24,9.45,1.31,1,3,1.51,3.81,3.17-12.35,5.07-25.09,9-37.79,13.07C269.74,267,266.84,268.58,263.58,269.07Z" transform="translate(-34.48 -152.26)"/><path class="cls-1" d="M323.21,261.31a1.22,1.22,0,0,1-1.17-.7C322.57,260.6,323,260.72,323.21,261.31Z" transform="translate(-34.48 -152.26)"/><path class="cls-1" d="M322.05,260.62c-.6,0-1.1-.15-1.24-.83A1.41,1.41,0,0,1,322.05,260.62Z" transform="translate(-34.48 -152.26)"/><path class="cls-5" d="M440.05,206c.45,0,.75.17.75.67Z" transform="translate(-34.48 -152.26)"/><path class="cls-17" d="M43.77,341.49c2.37-.13,5.36.06,5.42,2.7.06,2.8-2.56,4.57-5.42,5.29Z" transform="translate(-34.48 -152.26)"/><path class="cls-18" d="M60.79,364.19c-8,1.58-11-.77-10.47-8.25l1.58-2.81c1.28,3.47,4.49,4.1,10,1.95l1.73.09a1.78,1.78,0,0,0,.61,0c-.2,2-.39,4-.59,6l-1.13,2-.74.73Z" transform="translate(-34.48 -152.26)"/><path class="cls-19" d="M76.87,347.11a2.36,2.36,0,0,1-2,1.67c-2.56-3-7.28-3.38-9.64-3-7,1-13.49-1-20.13-1.8-3.12-.37-7.08,0-9.13-3.65a2.05,2.05,0,0,0,.7-2.35l.06-.05c1.78.39,2.76-.51,3.31-2.09a3.13,3.13,0,0,1,2.78-.11c3.24,3.11,6.12.83,9-.61,3.44,2.93,7.17,2.78,11,1,1,0,2.08.34,2.94-.51L69,335.4l-.16,0,2.09.32c1.51,2.34,6,1.35,6,5.4l0,3.93Z" transform="translate(-34.48 -152.26)"/><path class="cls-20" d="M36,340.3c2.05,3.62,6,3.28,9.13,3.65,6.64.8,13.1,2.83,20.13,1.8,2.36-.35,7.08,0,9.64,3l-1.74,1.47c-2.87.82-6.42-1.74-8.77,1.73-.24,1.06-.47,2.13-.71,3.19l-1.73-.09c-.29-2,.91-5.3-2.84-4.82-2.48.33-6.64-2.55-7.18,2.87l-1.58,2.81c.28-5.22-1.69-7.49-7.25-6.29-3.75.8-6.82-.67-8.06-4.71-.08-.32-.15-.64-.23-1a5.24,5.24,0,0,1,.27-3.81Z" transform="translate(-34.48 -152.26)"/><path class="cls-21" d="M65.85,335.58c-.86.85-1.93.52-2.94.51-.29-1.1-.68-2.19-.87-3.31-1.25-7.76-1.89-7.94-8.45-3.79-2.76,1.74-1.22,4.06-1.72,6.1-2.93,1.44-5.81,3.72-9,.61,3.89-.45,7.57-.87,6.64-6.52-.66-4,1-7.31,5.16-8.39,4.26-1.12,7.76.26,9.7,4.53.19,1.28.37,2.57.55,3.85,0,1,0,2,0,3a1.51,1.51,0,0,0,.8,2.1C65.72,334.69,65.79,335.13,65.85,335.58Z" transform="translate(-34.48 -152.26)"/><path class="cls-21" d="M40,335.81c-.55,1.58-1.53,2.48-3.31,2.09C37.27,336.3,38.12,335.21,40,335.81Z" transform="translate(-34.48 -152.26)"/><path class="cls-21" d="M36,340.3l-.92-.14A1.79,1.79,0,0,1,36.67,338,2.05,2.05,0,0,1,36,340.3Z" transform="translate(-34.48 -152.26)"/><path class="cls-21" d="M34.78,344c.08.33.15.65.23,1a5.89,5.89,0,0,1-.52-.62S34.68,344.09,34.78,344Z" transform="translate(-34.48 -152.26)"/><path class="cls-22" d="M69.17,436.93l-2.4-7.69c2.39-2.45,1.59-7.24,6.07-8.19,3.63-.77,4.84-2.78,3.17-6.35-.37-.8-.06-1.93-.07-2.9l1,.25.85,1.15A2.68,2.68,0,0,0,78,414c.16.45.31.9.46,1.35l.42,1.66a2.15,2.15,0,0,0,1,2.22l1.35.66c3.1-.26,6,.3,6.26,4,.2,3.23-2.54,3.73-5.18,4.11-4.64.68-4,5.1-5.45,8.06h0l-1,.74a5.92,5.92,0,0,1-4,1.37l-1-.07Z" transform="translate(-34.48 -152.26)"/><path class="cls-23" d="M75.94,411.8c0,1-.3,2.1.07,2.9,1.67,3.57.46,5.58-3.17,6.35-4.48.95-3.68,5.74-6.07,8.19l-.91-.29c-.58-2.3-1.64-2.38-3.1-.67-2.48-.06-3.57-1.64-3.69-3.81-.15-2.5,1.54-3.74,3.65-4.74,1.62-.76,4.29.21,4.7-2.68.13-.66.27-1.32.41-2v-1L69.58,412l3.1-1.32,2.31.19Z" transform="translate(-34.48 -152.26)"/><path class="cls-21" d="M76.88,341.1c0-4.05-4.47-3.06-6-5.4l1-1.1,3,.5c4.29,3,4.7,7.12,3.38,11.74l-1.37.27,0-2.08C78.24,343.73,78.12,342.42,76.88,341.1Z" transform="translate(-34.48 -152.26)"/><path class="cls-17" d="M65.85,335.58c-.06-.45-.13-.89-.19-1.33l3,.45a.53.53,0,0,0,.3.7Z" transform="translate(-34.48 -152.26)"/><path class="cls-21" d="M69,335.4a.53.53,0,0,1-.3-.7c.14.17.27.35.4.52l-.26.16Z" transform="translate(-34.48 -152.26)"/><path class="cls-24" d="M77.75,413.2l-.85-1.15Z" transform="translate(-34.48 -152.26)"/><path class="cls-24" d="M78.5,415.37c-.15-.45-.3-.9-.46-1.35C78.2,414.47,78.35,414.92,78.5,415.37Z" transform="translate(-34.48 -152.26)"/><path class="cls-24" d="M75.83,436.79l1-.74c-.13.4-.25.8-.38,1.19Z" transform="translate(-34.48 -152.26)"/><path class="cls-25" d="M70.87,438.09l1,.07C71.49,438.67,71.17,438.62,70.87,438.09Z" transform="translate(-34.48 -152.26)"/><path class="cls-23" d="M81.23,419.91l-1.35-.66Z" transform="translate(-34.48 -152.26)"/><path class="cls-26" d="M51.9,353.13c.54-5.42,4.7-2.54,7.18-2.87,3.75-.48,2.55,2.79,2.84,4.82C56.39,357.23,53.18,356.6,51.9,353.13Z" transform="translate(-34.48 -152.26)"/><path class="cls-22" d="M62.76,428.28c1.46-1.71,2.52-1.63,3.1.67A3.44,3.44,0,0,1,62.76,428.28Z" transform="translate(-34.48 -152.26)"/><path class="cls-27" d="M51.87,335.09c.5-2-1-4.36,1.72-6.1,6.56-4.15,7.2-4,8.45,3.79.19,1.12.58,2.21.87,3.31C59,337.87,55.31,338,51.87,335.09Z" transform="translate(-34.48 -152.26)"/><path class="cls-20" d="M76.88,341.1c1.24,1.32,1.36,2.63,0,3.93C76.85,343.72,76.86,342.41,76.88,341.1Z" transform="translate(-34.48 -152.26)"/><path class="cls-25" d="M67.83,415.07l-1-1h1Z" transform="translate(-34.48 -152.26)"/></svg>