<svg xmlns="http://www.w3.org/2000/svg" version="1.1" xmlns:xlink="http://www.w3.org/1999/xlink" xmlns:svgjs="http://svgjs.dev/svgjs" width="1440" height="560" preserveAspectRatio="none" viewBox="0 0 1440 560"><g mask="url(&quot;#SvgjsMask1007&quot;)" fill="none"><rect width="1440" height="560" x="0" y="0" fill="rgba(221, 99, 1, 1)"></rect><path d="M 0,204 C 57.6,180.2 172.8,75.4 288,85 C 403.2,94.6 460.8,257.2 576,252 C 691.2,246.8 748.8,70.4 864,59 C 979.2,47.6 1036.8,202.2 1152,195 C 1267.2,187.8 1382.4,57.4 1440,23L1440 560L0 560z" fill="rgba(254, 126, 24, 1)"></path><path d="M 0,316 C 96,344.2 288,445.2 480,457 C 672,468.8 768,371.4 960,375 C 1152,378.6 1344,455 1440,475L1440 560L0 560z" fill="rgba(254, 157, 79, 1)"></path></g><defs><mask id="SvgjsMask1007"><rect width="1440" height="560" fill="#ffffff"></rect></mask></defs></svg>